<?xml version="1.0" encoding="UTF-8" standalone="no"?>
<!DOCTYPE svg PUBLIC "-//W3C//DTD SVG 1.1//EN" "http://www.w3.org/Graphics/SVG/1.1/DTD/svg11.dtd">
<svg width="100%" height="100%" viewBox="0 0 128 128" version="1.1" xmlns="http://www.w3.org/2000/svg" xmlns:xlink="http://www.w3.org/1999/xlink" xml:space="preserve" xmlns:serif="http://www.serif.com/" style="fill-rule:evenodd;clip-rule:evenodd;stroke-linecap:round;stroke-linejoin:round;stroke-miterlimit:1.5;">
    <g transform="matrix(0.965926,0.258819,-0.258819,0.965926,10.2632,-5.63643)">
        <path d="M83.007,70.919L76.551,82.102C71.056,91.619 58.849,94.883 49.34,89.393C39.831,83.903 36.559,71.691 42.049,62.182L45.913,55.489C46.042,55.655 46.18,55.815 46.323,55.966C48.673,58.45 52.642,56.395 55.502,57.633C55.991,57.845 56.412,58.106 56.779,58.408L51.462,67.617C48.967,71.938 50.454,77.484 54.775,79.979C59.096,82.474 64.643,80.988 67.138,76.667L72.182,67.93C72.833,68.405 73.703,68.538 74.629,68.29C76.843,67.697 79.276,66.192 81.426,67.839C82.436,68.613 82.85,69.718 83.007,70.919Z" style="fill:rgb(120,163,173);"/>
    </g>
    <g transform="matrix(0.707107,0.707107,-0.707107,0.707107,76.28,-29.6059)">
        <path d="M45.913,55.489L51.704,45.459C57.194,35.95 69.406,32.677 78.915,38.167C88.424,43.657 91.696,55.87 86.206,65.379L83.007,70.919C82.85,69.718 82.436,68.613 81.426,67.839C79.276,66.192 76.843,67.697 74.629,68.29C73.703,68.538 72.833,68.405 72.182,67.93L76.793,59.944C79.296,55.627 77.801,50.076 73.48,47.581C69.159,45.086 63.612,46.572 61.117,50.894L56.779,58.408C56.412,58.106 55.991,57.845 55.502,57.633C52.642,56.395 48.673,58.45 46.323,55.966C46.18,55.815 46.042,55.655 45.913,55.489Z" style="fill:rgb(120,163,173);"/>
    </g>
    <g transform="matrix(0.707107,0.707107,-0.707107,0.707107,12.2217,-12.1259)">
        <path d="M90.63,126.33C79.65,126.33 70.71,117.39 70.71,106.41L70.71,87.1C70.71,76.12 79.65,67.18 90.63,67.18C101.61,67.18 110.55,76.12 110.55,87.1L110.55,106.41C110.55,117.4 101.61,126.33 90.63,126.33ZM90.63,78.05C85.64,78.05 81.58,82.11 81.58,87.1L81.58,106.41C81.58,111.4 85.64,115.46 90.63,115.46C95.62,115.46 99.68,111.4 99.68,106.41L99.68,87.1C99.69,82.11 95.62,78.05 90.63,78.05Z" style="fill:rgb(120,163,173);fill-rule:nonzero;"/>
    </g>
    <g transform="matrix(0.258819,0.965926,-0.965926,0.258819,146.527,-51.7454)">
        <path d="M90.63,59.09C79.65,59.09 70.71,50.15 70.71,39.17L70.71,19.85C70.71,8.87 79.65,-0.07 90.63,-0.07C101.61,-0.07 110.55,8.87 110.55,19.85L110.55,39.16C110.55,50.15 101.61,59.09 90.63,59.09ZM90.63,10.8C85.64,10.8 81.58,14.86 81.58,19.85L81.58,39.16C81.58,44.15 85.64,48.21 90.63,48.21C95.62,48.21 99.68,44.15 99.68,39.16L99.68,19.85C99.69,14.86 95.62,10.8 90.63,10.8Z" style="fill:rgb(120,163,173);fill-rule:nonzero;"/>
    </g>
    <g transform="matrix(0.707107,0.707107,-0.707107,0.707107,60.0291,-59.9334)">
        <path d="M90.63,155.31C87.63,155.31 85.2,152.88 85.2,149.88L85.2,111.25C85.2,108.25 87.63,105.82 90.63,105.82C93.63,105.82 96.06,108.25 96.06,111.25L96.06,149.88C96.06,152.87 93.63,155.31 90.63,155.31Z" style="fill:rgb(100,135,142);fill-rule:nonzero;"/>
    </g>
    <g transform="matrix(0.258819,0.965926,-0.965926,0.258819,146.527,-51.7454)">
        <path d="M90.63,87.71C87.63,87.71 85.2,85.28 85.2,82.28L85.2,43.64C85.2,40.64 87.63,38.21 90.63,38.21C93.63,38.21 96.06,40.64 96.06,43.64L96.06,82.27C96.06,85.27 93.63,87.71 90.63,87.71Z" style="fill:rgb(100,135,142);fill-rule:nonzero;"/>
    </g>
    <g transform="matrix(0.398015,-0.061099,-0.118693,0.384787,70.1284,68.5812)">
        <path d="M64,64L104.734,104.734" style="fill:none;stroke:rgb(90,129,142);stroke-opacity:0.3;stroke-width:19.85px;"/>
    </g>
    <g transform="matrix(0.368639,-0.162031,-0.0150589,0.402395,72.3565,66.0811)">
        <path d="M64,64L104.734,104.734" style="fill:none;stroke:rgb(90,129,142);stroke-opacity:0.3;stroke-width:19.85px;"/>
    </g>
    <g transform="matrix(-0.383835,-0.121737,0.277018,-0.292249,66.2517,60.6876)">
        <path d="M64,64L104.734,104.734" style="fill:none;stroke:rgb(90,129,142);stroke-opacity:0.3;stroke-width:19.85px;"/>
    </g>
    <g transform="matrix(-0.402263,-0.0182448,0.191939,-0.353989,63.146,61.9404)">
        <path d="M64,64L104.734,104.734" style="fill:none;stroke:rgb(90,129,142);stroke-opacity:0.3;stroke-width:19.85px;"/>
    </g>
    <g transform="matrix(-0.393279,0.0864903,0.0937802,-0.391604,60.4704,63.9543)">
        <path d="M64,64L104.734,104.734" style="fill:none;stroke:rgb(90,129,142);stroke-opacity:0.3;stroke-width:19.85px;"/>
    </g>
    <g transform="matrix(-0.357493,0.185331,-0.01077,-0.402533,58.4071,66.592)">
        <path d="M64,64L104.734,104.734" style="fill:none;stroke:rgb(90,129,142);stroke-opacity:0.3;stroke-width:19.85px;"/>
    </g>
    <g transform="matrix(0.37524,0.146094,-0.295185,0.273888,64.1495,71.4705)">
        <path d="M64,64L104.734,104.734" style="fill:none;stroke:rgb(90,129,142);stroke-opacity:0.3;stroke-width:19.85px;"/>
    </g>
    <g transform="matrix(0.400266,0.0439967,-0.214239,0.340955,67.3292,70.4194)">
        <path d="M64,64L104.734,104.734" style="fill:none;stroke:rgb(90,129,142);stroke-opacity:0.3;stroke-width:19.85px;"/>
    </g>
</svg>
