<?xml version="1.0" encoding="UTF-8" standalone="no"?>
<!DOCTYPE svg PUBLIC "-//W3C//DTD SVG 1.1//EN" "http://www.w3.org/Graphics/SVG/1.1/DTD/svg11.dtd">
<svg width="100%" height="100%" viewBox="0 0 128 128" version="1.1" xmlns="http://www.w3.org/2000/svg" xmlns:xlink="http://www.w3.org/1999/xlink" xml:space="preserve" xmlns:serif="http://www.serif.com/" style="fill-rule:evenodd;clip-rule:evenodd;stroke-linejoin:round;stroke-miterlimit:2;">
    <path id="a" d="M63.3,5.13C40,6.43 18.42,10.34 16.63,34.46C15.4,51.13 27.72,68.18 40.77,77.94C57.6,90.52 83.35,105.68 104.22,99.1C124.51,92.7 123.57,66.26 121.52,48.71C118.77,25.08 111.29,18.33 100.13,10.27C88.72,2.03 72.14,4.62 63.3,5.13Z" style="fill:rgb(109,74,65);fill-rule:nonzero;"/>
    <path d="M94.29,103.87C72.9,103.87 50.46,88.95 38.99,80.06C22.64,67.37 13.55,50.96 13.4,33.82C15.17,7.39 46.1,1.45 64.38,0.25C65.23,0.19 66.58,0.15 68.27,0.15C72.02,0.15 81.7,0.37 90.51,2.43C97.51,4.06 105.11,8.2 109.43,12.73C116.32,19.97 122.16,33.21 124.3,46.45C126.8,61.96 125,78.62 122.04,86.43C118.93,94.7 113.13,100.23 105.26,102.42C101.82,103.38 98.13,103.87 94.29,103.87ZM68.27,6.3C66.76,6.3 65.55,6.34 64.79,6.39C48.52,7.46 21,12.48 19.55,34C19.65,44.53 23.75,60.44 42.76,75.18C53.61,83.59 74.73,97.7 94.29,97.7C97.57,97.7 100.71,97.29 103.61,96.48C109.59,94.81 113.86,90.7 116.28,84.24C118.57,78.19 120.68,62.76 118.22,47.41C116.3,35.5 110.97,23.25 104.97,16.95C101.47,13.28 94.95,9.76 89.11,8.4C80.69,6.45 71.04,6.3 68.27,6.3Z" style="fill:rgb(109,74,65);fill-rule:nonzero;"/>
    <path d="M26.3,40.81C20.66,44.9 29.28,59.68 33.17,63.91C39.2,70.5 49.46,78.86 60.86,84.96C70.16,89.93 76.49,92.19 82.36,93.75C91.54,96 97.8,95.4 99.48,92.16C100.21,90.77 99.41,85.6 93.99,78.81C88.29,71.65 77.77,62.8 72.73,59.03C56.28,46.6 42.73,41.75 39.85,40.79C32.99,38.5 28.41,38.99 26.3,40.81Z" style="fill:rgb(78,52,46);fill-rule:nonzero;"/>
    <path id="b" d="M49.18,56.71C46.7,58.77 43.36,61.93 41.19,63.29C36.08,66.49 30.62,68.83 25.07,70.49C15.86,73.24 8.73,78.86 4.86,88.55C1.23,97.89 2.12,105.86 5.52,112.1C9.87,120.33 16.91,124.48 23.78,126.4C32.59,128.86 46.87,130.26 59.94,112.86C65.81,105.18 72.25,88.39 74.06,78.58C74.26,77.5 74.59,75.95 74.81,74.37C74.89,73.8 74.86,71.29 73.82,69.59C72.88,68.05 69.23,64.42 64.67,61.35C60.84,58.77 55.66,56.36 52.99,55.8C50.43,55.26 49.62,56.33 49.18,56.71Z" style="fill:rgb(252,212,181);fill-rule:nonzero;"/>
    <clipPath id="_clip1">
        <path d="M49.18,56.71C46.7,58.77 43.36,61.93 41.19,63.29C36.08,66.49 30.62,68.83 25.07,70.49C15.86,73.24 8.73,78.86 4.86,88.55C1.23,97.89 2.12,105.86 5.52,112.1C9.87,120.33 16.91,124.48 23.78,126.4C32.59,128.86 46.87,130.26 59.94,112.86C65.81,105.18 72.25,88.39 74.06,78.58C74.26,77.5 74.59,75.95 74.81,74.37C74.89,73.8 74.86,71.29 73.82,69.59C72.88,68.05 69.23,64.42 64.67,61.35C60.84,58.77 55.66,56.36 52.99,55.8C50.43,55.26 49.62,56.33 49.18,56.71Z"/>
    </clipPath>
    <g clip-path="url(#_clip1)">
        <path d="M2.54,101.09C2.54,101.09 11.57,117.42 36.39,113.68C64.76,109.4 73.81,65.66 73.81,65.66L80.56,77.68C80.56,77.68 77.41,103.46 64.79,118.24C52.18,133.02 31.72,139.65 11.03,125.08C-4.09,114.44 2.54,101.09 2.54,101.09Z" style="fill:rgb(184,146,120);fill-rule:nonzero;"/>
    </g>
</svg>
