<?xml version="1.0" encoding="UTF-8" standalone="no"?><!DOCTYPE svg PUBLIC "-//W3C//DTD SVG 1.1//EN" "http://www.w3.org/Graphics/SVG/1.1/DTD/svg11.dtd"><svg width="100%" height="100%" viewBox="0 0 534 534" version="1.1" xmlns="http://www.w3.org/2000/svg" xmlns:xlink="http://www.w3.org/1999/xlink" xml:space="preserve" xmlns:serif="http://www.serif.com/" style="fill-rule:evenodd;clip-rule:evenodd;stroke-linejoin:round;stroke-miterlimit:2;"><g id="g4"><path id="path2" d="M516.667,83.343c0,-36.794 -29.881,-66.676 -66.666,-66.676l-366.667,-0c-36.786,-0 -66.667,29.882 -66.667,66.676l-0,366.647c-0,36.794 29.881,66.676 66.667,66.676l366.667,0c36.785,0 66.666,-29.882 66.666,-66.676l0,-366.647Z" style="fill:#7cb342;"/></g><g id="g8"><path id="path6" d="M201.245,426.344l-148.552,-147.719c-1.729,-1.721 -2.705,-4.062 -2.705,-6.5c0,-2.438 0.976,-4.78 2.705,-6.501l37.502,-37.544c3.584,-3.583 9.376,-3.583 12.96,0l97.798,97.215c3.584,3.584 9.418,3.542 13.001,-0.041l216.099,-218.182c3.583,-3.626 9.417,-3.626 13.042,-0.042l37.544,37.544c3.584,3.584 3.584,9.376 0.042,12.959l-235.433,237.559l0.042,0.041l-31.044,31.211c-3.584,3.584 -9.418,3.584 -13.001,-0Z" style="fill:#f5f5f5;fill-rule:nonzero;"/></g><g id="g12"></g></svg>