<?xml version="1.0" encoding="UTF-8" standalone="no"?>
<svg
   width="100%"
   height="100%"
   viewBox="0 0 128 128"
   version="1.1"
   xml:space="preserve"
   style="fill-rule:evenodd;clip-rule:evenodd;stroke-linejoin:round;stroke-miterlimit:2;"
   id="svg2221"
   sodipodi:docname="coin.svg"
   inkscape:version="1.2.2 (732a01da63, 2022-12-09)"
   xmlns:inkscape="http://www.inkscape.org/namespaces/inkscape"
   xmlns:sodipodi="http://sodipodi.sourceforge.net/DTD/sodipodi-0.dtd"
   xmlns="http://www.w3.org/2000/svg"
   xmlns:svg="http://www.w3.org/2000/svg"><defs
   id="defs2225" /><sodipodi:namedview
   id="namedview2223"
   pagecolor="#ffffff"
   bordercolor="#000000"
   borderopacity="0.25"
   inkscape:showpageshadow="2"
   inkscape:pageopacity="0.0"
   inkscape:pagecheckerboard="0"
   inkscape:deskcolor="#d1d1d1"
   showgrid="false"
   inkscape:zoom="2.9996795"
   inkscape:cx="55.839298"
   inkscape:cy="55.005876"
   inkscape:window-width="1366"
   inkscape:window-height="697"
   inkscape:window-x="-8"
   inkscape:window-y="-8"
   inkscape:window-maximized="1"
   inkscape:current-layer="svg2221" />
    <g
   transform="matrix(1.14946,0,0,1.008931,-9.56519,-0.57155648)"
   id="g2183"
   style="stroke-width:0.984732">
        <path
   d="M 13.208,60.695 C 16.453,35.548 37.972,16.09 64,16.09 c 26.028,0 47.547,19.458 50.792,44.605 h 0.423 v 6.61 c 0,28.267 -22.949,51.215 -51.215,51.215 -28.266,0 -51.215,-22.948 -51.215,-51.215 v -6.61 z"
   style="fill:#f79329;stroke-width:0.958153"
   id="path2181" />
    </g>
    <g
   transform="matrix(1.277,0,0,1.1208855,-17.7279,-11.071076)"
   id="g2187"
   style="stroke-width:0.984732">
        <circle
   cx="64"
   cy="64"
   r="46.099998"
   style="fill:#ffca28;stroke-width:0.958153"
   id="circle2185" />
    </g>
    <g
   transform="matrix(1.25364,0,0,1.1270491,-15.9695,-9.4455622)"
   id="g2219"
   style="stroke-width:0.973009">
        <g
   transform="matrix(0.521107,0,0,0.521107,30.5486,28.3808)"
   id="g2191"
   style="stroke-width:0.973009">
            <path
   d="M 63.79,8.64 C 1.48,8.64 0,78.5 0,92.33 c 0,13.83 28.56,25.03 63.79,25.03 35.24,0 63.79,-11.21 63.79,-25.03 0,-13.83 -1.47,-83.69 -63.79,-83.69 z"
   style="fill:#ffb300;fill-rule:nonzero;stroke-width:0.973009"
   id="path2189" />
        </g>
        <path
   d="m 30.55,76.078 c -0.001,-0.033 -0.001,-0.066 -0.001,-0.099 0,-7.207 0.771,-43.612 33.241,-43.612 32.475,0 33.241,36.405 33.241,43.612 0,0.033 0,0.066 -0.001,0.099 -0.036,-8.089 -1.349,-43.195 -33.24,-43.195 -31.886,0 -33.203,35.106 -33.24,43.195 z"
   style="fill:#f79329;fill-rule:nonzero;stroke-width:0.946747"
   id="path2193" />
        <path
   d="m 57.364,77.413 c -0.035,-0.208 -0.028,-0.426 0.027,-0.642 0.218,-0.829 1.078,-1.332 1.907,-1.115 6.071,1.584 12.616,-0.11 17.082,-4.419 0.291,-0.281 0.68,-0.439 1.084,-0.439 0.425,0 0.832,0.174 1.125,0.48 0.282,0.291 0.439,0.68 0.439,1.084 0,0.088 -0.007,0.174 -0.021,0.258 -0.052,-0.309 -0.197,-0.598 -0.418,-0.826 -0.293,-0.307 -0.7,-0.48 -1.125,-0.48 -0.404,0 -0.793,0.157 -1.084,0.439 -4.466,4.309 -11.011,6.003 -17.082,4.419 -0.829,-0.217 -1.689,0.286 -1.907,1.115 -0.011,0.042 -0.02,0.084 -0.027,0.126 z m 2.122,-14.498 -0.011,0.01 c 0,-0.005 0.005,-0.01 0.011,-0.01 z"
   style="fill:#f79329;fill-rule:nonzero;stroke-width:0.946747"
   id="path2195" />
        <path
   d="m 57.364,77.413 c -0.035,-0.208 -0.028,-0.426 0.027,-0.642 0.218,-0.829 1.078,-1.332 1.907,-1.115 6.071,1.584 12.616,-0.11 17.082,-4.419 0.291,-0.281 0.68,-0.439 1.084,-0.439 0.425,0 0.832,0.174 1.125,0.48 0.282,0.291 0.439,0.68 0.439,1.084 0,0.088 -0.007,0.174 -0.021,0.258 -0.052,-0.309 -0.197,-0.598 -0.418,-0.826 -0.293,-0.307 -0.7,-0.48 -1.125,-0.48 -0.404,0 -0.793,0.157 -1.084,0.439 -4.466,4.309 -11.011,6.003 -17.082,4.419 -0.829,-0.217 -1.689,0.286 -1.907,1.115 -0.011,0.042 -0.02,0.084 -0.027,0.126 z m 2.122,-14.498 -0.011,0.01 c 0,-0.005 0.005,-0.01 0.011,-0.01 z"
   style="fill-opacity:0.08;fill-rule:nonzero;stroke-width:0.946747"
   id="path2197" />
        <g
   transform="matrix(0.521107,0,0,0.521107,30.5486,28.3808)"
   id="g2201"
   style="stroke-width:0.973009">
            <path
   d="m 63.91,98.82 c -3.43,0 -6.87,-0.43 -10.25,-1.31 -1.589,-0.42 -2.557,-2.067 -2.15,-3.66 0.418,-1.59 2.069,-2.556 3.66,-2.14 11.65,3.04 24.21,-0.21 32.78,-8.48 0.558,-0.54 1.304,-0.842 2.08,-0.842 0.815,0 1.596,0.333 2.16,0.922 0.54,0.558 0.842,1.304 0.842,2.08 0,0.815 -0.333,1.596 -0.922,2.16 -7.57,7.3 -17.79,11.27 -28.2,11.27 z m -8.38,-31.56 -0.02,0.02 c 0,-0.01 0.01,-0.02 0.02,-0.02 z"
   style="fill:#f79329;fill-rule:nonzero;stroke-width:0.973009"
   id="path2199" />
        </g>
        <path
   d="m 69.048,62.118 c -0.06,-0.322 -0.008,-0.667 0.172,-0.97 0.094,-0.161 2.397,-3.971 7.488,-3.971 0.605,-0.003 1.209,0.053 1.803,0.167 l 0.045,0.009 c 3.81,0.754 5.563,3.655 5.651,3.795 0.178,0.306 0.229,0.65 0.17,0.972 -0.029,-0.156 -0.085,-0.311 -0.17,-0.456 -0.088,-0.14 -1.841,-3.041 -5.651,-3.795 L 78.511,57.86 c -0.594,-0.114 -1.198,-0.17 -1.803,-0.167 -5.091,0 -7.394,3.809 -7.488,3.971 -0.086,0.144 -0.143,0.298 -0.172,0.454 z m 8.359,-1.547 0.057,0.004 c -0.032,0.204 -0.052,0.404 -0.062,0.6 -0.01,-0.196 -0.008,-0.398 0.005,-0.604 z"
   style="fill:#f79329;stroke-width:0.946747"
   id="path2203" />
        <path
   d="m 69.048,62.118 c -0.06,-0.322 -0.008,-0.667 0.172,-0.97 0.094,-0.161 2.397,-3.971 7.488,-3.971 0.605,-0.003 1.209,0.053 1.803,0.167 l 0.045,0.009 c 3.81,0.754 5.563,3.655 5.651,3.795 0.178,0.306 0.229,0.65 0.17,0.972 -0.029,-0.156 -0.085,-0.311 -0.17,-0.456 -0.088,-0.14 -1.841,-3.041 -5.651,-3.795 L 78.511,57.86 c -0.594,-0.114 -1.198,-0.17 -1.803,-0.167 -5.091,0 -7.394,3.809 -7.488,3.971 -0.086,0.144 -0.143,0.298 -0.172,0.454 z m 8.359,-1.547 0.057,0.004 c -0.032,0.204 -0.052,0.404 -0.062,0.6 -0.01,-0.196 -0.008,-0.398 0.005,-0.604 z"
   style="fill-opacity:0.08;stroke-width:0.946747"
   id="path2205" />
        <g
   transform="translate(0,-1.78947)"
   id="g2209"
   style="stroke-width:0.973009">
            <path
   d="m 78.556,59.658 c 3.81,0.754 5.563,3.655 5.651,3.795 0.344,0.589 0.214,1.324 -0.266,1.762 l -0.01,0.01 -0.002,0.002 c -1.011,0.927 -2.223,1.52 -3.401,1.53 -2.163,0.016 -3.45,-1.902 -3.064,-4.393 v 0 0 c -0.243,-0.026 -0.487,-0.047 -0.751,-0.047 -3.428,0 -4.981,2.476 -5.049,2.585 -0.407,0.667 -1.272,0.886 -1.944,0.485 -0.672,-0.402 -0.896,-1.267 -0.5,-1.934 0.094,-0.161 2.397,-3.97 7.488,-3.97 0.605,-0.003 1.209,0.052 1.803,0.166 z m 5.373,5.569 -0.01,0.008 z"
   style="fill:#f79329;stroke-width:0.973009"
   id="path2207" />
        </g>
        <path
   d="m 43.55,62.118 c -0.06,-0.322 -0.008,-0.667 0.172,-0.97 0.094,-0.161 2.397,-3.971 7.488,-3.971 0.605,-0.003 1.209,0.053 1.804,0.167 l 0.044,0.009 c 3.81,0.754 5.563,3.655 5.651,3.795 0.179,0.306 0.229,0.65 0.17,0.972 -0.029,-0.156 -0.085,-0.311 -0.17,-0.456 -0.088,-0.14 -1.841,-3.041 -5.651,-3.795 L 53.014,57.86 c -0.595,-0.114 -1.199,-0.17 -1.804,-0.167 -5.091,0 -7.394,3.809 -7.488,3.971 -0.086,0.144 -0.142,0.298 -0.172,0.454 z m 8.36,-1.547 0.056,0.004 c -0.032,0.204 -0.052,0.404 -0.061,0.6 -0.01,-0.196 -0.009,-0.398 0.005,-0.604 z"
   style="fill:#f79329;stroke-width:0.946747"
   id="path2211" />
        <path
   d="m 43.55,62.118 c -0.06,-0.322 -0.008,-0.667 0.172,-0.97 0.094,-0.161 2.397,-3.971 7.488,-3.971 0.605,-0.003 1.209,0.053 1.804,0.167 l 0.044,0.009 c 3.81,0.754 5.563,3.655 5.651,3.795 0.179,0.306 0.229,0.65 0.17,0.972 -0.029,-0.156 -0.085,-0.311 -0.17,-0.456 -0.088,-0.14 -1.841,-3.041 -5.651,-3.795 L 53.014,57.86 c -0.595,-0.114 -1.199,-0.17 -1.804,-0.167 -5.091,0 -7.394,3.809 -7.488,3.971 -0.086,0.144 -0.142,0.298 -0.172,0.454 z m 8.36,-1.547 0.056,0.004 c -0.032,0.204 -0.052,0.404 -0.061,0.6 -0.01,-0.196 -0.009,-0.398 0.005,-0.604 z"
   style="fill-opacity:0.08;stroke-width:0.946747"
   id="path2213" />
        <g
   transform="translate(-25.4978,-1.78947)"
   id="g2217"
   style="stroke-width:0.973009">
            <path
   d="m 78.556,59.658 c 3.81,0.754 5.563,3.655 5.651,3.795 0.344,0.589 0.214,1.324 -0.266,1.762 l -0.01,0.01 -0.002,0.002 c -1.011,0.927 -2.223,1.52 -3.401,1.53 -2.163,0.016 -3.45,-1.902 -3.064,-4.393 v 0 0 c -0.243,-0.026 -0.487,-0.047 -0.751,-0.047 -3.428,0 -4.981,2.476 -5.049,2.585 -0.407,0.667 -1.272,0.886 -1.944,0.485 -0.672,-0.402 -0.896,-1.267 -0.5,-1.934 0.094,-0.161 2.397,-3.97 7.488,-3.97 0.605,-0.003 1.209,0.052 1.803,0.166 z m 5.373,5.569 -0.01,0.008 z"
   style="fill:#f79329;stroke-width:0.973009"
   id="path2215" />
        </g>
    </g>
</svg>
