<?xml version="1.0" encoding="UTF-8" standalone="no"?>
<svg
   width="100%"
   height="100%"
   viewBox="0 0 128 128"
   version="1.1"
   xml:space="preserve"
   style="fill-rule:evenodd;clip-rule:evenodd;stroke-linecap:round;stroke-linejoin:round;stroke-miterlimit:1.5;"
   id="svg41672"
   sodipodi:docname="disguised face.svg"
   inkscape:version="1.2.2 (732a01da63, 2022-12-09)"
   xmlns:inkscape="http://www.inkscape.org/namespaces/inkscape"
   xmlns:sodipodi="http://sodipodi.sourceforge.net/DTD/sodipodi-0.dtd"
   xmlns="http://www.w3.org/2000/svg"
   xmlns:svg="http://www.w3.org/2000/svg"><defs
   id="defs41676" /><sodipodi:namedview
   id="namedview41674"
   pagecolor="#ffffff"
   bordercolor="#000000"
   borderopacity="0.25"
   inkscape:showpageshadow="2"
   inkscape:pageopacity="0.0"
   inkscape:pagecheckerboard="0"
   inkscape:deskcolor="#d1d1d1"
   showgrid="false"
   showguides="false"
   inkscape:zoom="2.8284271"
   inkscape:cx="91.393551"
   inkscape:cy="95.105862"
   inkscape:window-width="1366"
   inkscape:window-height="697"
   inkscape:window-x="-8"
   inkscape:window-y="-8"
   inkscape:window-maximized="1"
   inkscape:current-layer="svg41672" />
    <path
   d="M 64,9.64 C 1.69,9.64 0.21,79.5 0.21,93.33 c 0,13.83 28.56,25.03 63.79,25.03 35.24,0 63.79,-11.21 63.79,-25.03 C 127.79,79.5 126.32,9.64 64,9.64 Z"
   style="fill:#fcc21b;fill-rule:nonzero"
   id="path41636" />
    <path
   d="m 41.795247,66.47 c -4.49,0.04 -8.17,-4.27 -8.22,-9.62 -0.05,-5.37 3.55,-9.75 8.04,-9.79 4.48,-0.04 8.17,4.27 8.22,9.64 0.05,5.36 -3.55,9.73 -8.04,9.77 z m 44.11,0 c 4.48,-0.01 8.11,-4.36 8.1,-9.71 -0.01,-5.37 -3.66,-9.7 -8.14,-9.69 -4.49,0.01 -8.13,4.36 -8.12,9.73 0.02,5.35 3.67,9.68 8.16,9.67 z"
   style="fill:#2f2f2f;fill-rule:nonzero"
   id="path41638" />
    <g
   transform="matrix(1,0,0,0.154034,-0.21,79.4971)"
   id="g41642"
   style="stroke-width:15.2877;stroke-dasharray:none">
        <path
   d="m 35.547,103.505 c 14.047,17.056 42.859,17.056 56.906,0 C 94.352,101.2 95.605,89.32 95.25,76.993 94.895,64.666 93.065,56.53 91.167,58.835 c -13.413,16.284 -40.921,16.284 -54.334,0 -1.898,-2.305 -3.728,5.831 -4.083,18.158 -0.355,12.327 0.898,24.207 2.797,26.512 z"
   style="fill:#2f2f2f;stroke-width:15.2877;stroke-dasharray:none"
   id="path41640" />
    </g>
    <g
   transform="matrix(0.861958,0,0,0.861958,3.5279303,0.0814152)"
   id="g41646">
        <path
   d="m 72.614,67.319 c -0.559,-0.962 -1.588,-1.554 -2.701,-1.554 -1.113,0 -2.142,0.592 -2.701,1.554 -4.65,7.65 -13.676,23.524 -13.676,31.501 0,9.039 7.338,16.377 16.377,16.377 9.039,0 16.377,-7.338 16.377,-16.377 0,-7.977 -9.026,-23.851 -13.676,-31.501 z"
   style="fill:#5a818e"
   id="path41644" />
    </g>
    
    
    
    
    <rect
   style="fill:#5a818e;fill-opacity:1;stroke:none;stroke-width:2;stroke-linecap:round;stroke-linejoin:round;paint-order:stroke fill markers"
   id="rect7360"
   width="12.020815"
   height="7.7781744"
   x="57.452427"
   y="57.452427" /><g
   id="g42204"
   transform="translate(-0.415)"><g
     transform="matrix(1,0,0,0.721166,0,10.2672)"
     id="g41650">
        <path
   d="m 70.946,54.523 v -5.87 c 0,-11.998 9.191,-11.831 15.344,-11.831 6.153,0 15.344,-0.167 15.344,11.831 v 5.87 z"
   style="fill:#93b1bb"
   id="path41648" />
    </g><g
     transform="matrix(1,0,0,0.721166,0,10.2672)"
     id="g41654">
        <path
   d="m 26.776,54.523 v -5.87 c 0,-11.998 9.191,-11.831 15.344,-11.831 6.153,0 15.344,-0.167 15.344,11.831 v 5.87 z"
   style="fill:#93b1bb"
   id="path41652" />
    </g><g
     id="g42192"><g
       transform="matrix(0.38005,0,0,0.438121,17.7968,28.7303)"
       id="g41658"
       style="stroke-width:12.2533;stroke-dasharray:none">
        <path
   d="m 64,109.531 c -16.191,0 -40.373,0.382 -40.373,-27.004 V 45.473 c 0,-27.386 24.182,-27.004 40.373,-27.004 16.191,0 40.373,-0.382 40.373,27.004 v 37.054 c 0,27.386 -24.182,27.004 -40.373,27.004 z"
   style="fill:#40c0e7;fill-opacity:0.33;stroke:#2f2f2f;stroke-width:12.2533;stroke-dasharray:none"
   id="path41656" />
    </g><g
       transform="matrix(0.38005,0,0,0.438121,61.9668,28.7303)"
       id="g41662"
       style="stroke-width:12.2533;stroke-dasharray:none">
        <path
   d="m 64,109.531 c -16.191,0 -40.373,0.382 -40.373,-27.004 V 45.473 c 0,-27.386 24.182,-27.004 40.373,-27.004 16.191,0 40.373,-0.382 40.373,27.004 v 37.054 c 0,27.386 -24.182,27.004 -40.373,27.004 z"
   style="fill:#40c0e7;fill-opacity:0.33;stroke:#2f2f2f;stroke-width:12.2533;stroke-dasharray:none"
   id="path41660" />
    </g><path
       d="M 58.642637,56.765 69.767362,56.77"
       style="fill:none;stroke:#2f2f2f;stroke-width:5;stroke-dasharray:none;stroke-opacity:1"
       id="path41664" /></g></g>
    
    <g
   id="g42209"
   transform="translate(-0.36557878)"><path
     d="M 25.832154,56.77 8.642481,46.024"
     style="fill:none;stroke:#2f2f2f;stroke-width:5;stroke-dasharray:none;stroke-opacity:1"
     id="path41666" /><g
     transform="matrix(-0.9224897,0,0,1,127.27843,0)"
     id="g41670"
     style="stroke:#2f2f2f;stroke-width:5.20582;stroke-dasharray:none;stroke-opacity:1">
        <path
   d="M 26.776,56.77 8.142,46.024"
   style="fill:none;stroke:#2f2f2f;stroke-width:5.20582;stroke-dasharray:none;stroke-opacity:1"
   id="path41668" />
    </g></g>
</svg>
