<?xml version="1.0" encoding="UTF-8" standalone="no"?>
<svg
   width="128px"
   height="128px"
   version="1.1"
   xml:space="preserve"
   style="fill-rule:evenodd;clip-rule:evenodd;stroke-linejoin:round;stroke-miterlimit:2;"
   id="svg43410"
   sodipodi:docname="dotted line face.svg"
   inkscape:version="1.2.2 (732a01da63, 2022-12-09)"
   xmlns:inkscape="http://www.inkscape.org/namespaces/inkscape"
   xmlns:sodipodi="http://sodipodi.sourceforge.net/DTD/sodipodi-0.dtd"
   xmlns="http://www.w3.org/2000/svg"
   xmlns:svg="http://www.w3.org/2000/svg"><defs
     id="defs43414" /><sodipodi:namedview
     id="namedview43412"
     pagecolor="#ffffff"
     bordercolor="#000000"
     borderopacity="0.25"
     inkscape:showpageshadow="2"
     inkscape:pageopacity="0.0"
     inkscape:pagecheckerboard="0"
     inkscape:deskcolor="#d1d1d1"
     showgrid="false"
     inkscape:zoom="2.1210938"
     inkscape:cx="9.4290976"
     inkscape:cy="96.64825"
     inkscape:window-width="1366"
     inkscape:window-height="697"
     inkscape:window-x="-8"
     inkscape:window-y="-8"
     inkscape:window-maximized="1"
     inkscape:current-layer="svg43410" /><g
     transform="matrix(0.923607,0,0,0.923607,4.76917,4.88917)"
     id="g43400"><path
       d="M64,9.56C1.59,9.56 0.12,79.52 0.12,93.36C0.12,107.22 28.71,118.44 64,118.44C99.28,118.44 127.88,107.22 127.88,93.36C127.88,79.52 126.4,9.56 64,9.56Z"
       style="fill:#fbc746;fill-opacity:0.6;fill-rule:nonzero;"
       id="path43396" /></g><g
     transform="matrix(0.923607,0,0,0.923607,4.76917,4.88917)"
     id="g43404"><path
       d="M42.21,62.3C37.72,62.34 34.04,58.03 33.99,52.68C33.94,47.31 37.54,42.93 42.03,42.89C46.51,42.85 50.2,47.16 50.25,52.53C50.3,57.88 46.7,62.25 42.21,62.3ZM86.32,62.3C90.8,62.29 94.43,57.94 94.42,52.59C94.41,47.22 90.76,42.89 86.28,42.9C81.79,42.91 78.15,47.26 78.16,52.63C78.18,57.98 81.83,62.31 86.32,62.3Z"
       style="fill:#2f2f2f;fill-rule:nonzero;"
       id="path43402" /></g><g
     transform="matrix(0.923607,0,0,0.923607,10.7532,4.88917)"
     id="g43408"><path
       d="M77.132,84.75L38.31,84.75C36.65,84.75 35.31,83.41 35.31,81.75C35.31,80.09 36.65,78.75 38.31,78.75L77.142,78.75C78.802,78.75 80.142,80.09 80.142,81.75C80.142,83.41 78.792,84.75 77.132,84.75Z"
       style="fill:#2f2f2f;fill-rule:nonzero;"
       id="path43406" /></g><g
     transform="matrix(0.923607,0,0,0.923607,4.76917,4.88917)"
     id="g43898"
     style="stroke:#000000;stroke-opacity:1;stroke-width:6.49626952;stroke-dasharray:19.4888091, 12.9925394;paint-order:normal;stroke-dashoffset:0;fill:none"><path
       d="M64,9.56C1.59,9.56 0.12,79.52 0.12,93.36C0.12,107.22 28.71,118.44 64,118.44C99.28,118.44 127.88,107.22 127.88,93.36C127.88,79.52 126.4,9.56 64,9.56Z"
       style="fill:none;fill-opacity:0.6;fill-rule:nonzero;stroke:#e65100;stroke-opacity:1;stroke-width:6.49626952;stroke-dasharray:19.4888091, 12.9925394;paint-order:normal;stroke-dashoffset:0"
       id="path43896" /></g></svg>
