<?xml version="1.0" encoding="UTF-8" standalone="no"?>
<!DOCTYPE svg PUBLIC "-//W3C//DTD SVG 1.1//EN" "http://www.w3.org/Graphics/SVG/1.1/DTD/svg11.dtd">
<svg width="100%" height="100%" viewBox="0 0 128 128" version="1.1" xmlns="http://www.w3.org/2000/svg" xmlns:xlink="http://www.w3.org/1999/xlink" xml:space="preserve" xmlns:serif="http://www.serif.com/" style="fill-rule:evenodd;clip-rule:evenodd;">
    <g transform="matrix(0.2397,0,0,0.2397,0,0)">
        <path d="M265.833,39.458C5.333,39.458 -0.833,331.458 -0.833,389.25C-0.833,447.083 118.542,493.875 265.833,493.875C413.125,493.875 532.458,447.083 532.458,389.25C532.458,331.458 526.292,39.458 265.833,39.458Z" style="fill:rgb(252,194,27);fill-rule:nonzero;"/>
    </g>
    <g transform="matrix(0.2397,0,0,0.2397,0,0)">
        <path d="M441.167,387.125C403.042,400.792 361,381.5 347.125,343.917C333.333,306.333 352.875,264.708 390.958,250.958C428.958,237.292 471.083,256.667 485,294.25C498.833,331.875 479.167,373.5 441.167,387.125Z" style="fill:rgb(252,194,27);fill-rule:nonzero;"/>
    </g>
    <g transform="matrix(0.2397,0,0,0.2397,0,0)">
        <path d="M440.125,384.375C403.542,397.5 363.208,379 349.917,342.917C336.667,306.875 355.417,266.917 392,253.75C428.458,240.625 468.875,259.208 482.208,295.25C495.458,331.333 476.625,371.292 440.125,384.375Z" style="fill:rgb(252,192,28);fill-rule:nonzero;"/>
    </g>
    <g transform="matrix(0.2397,0,0,0.2397,0,0)">
        <path d="M439.125,381.583C404.125,394.125 365.5,376.417 352.75,341.875C340.042,307.333 358.042,269.125 393.042,256.5C427.958,243.958 466.667,261.75 479.417,296.25C492.083,330.833 474.042,369.083 439.125,381.583Z" style="fill:rgb(252,190,28);fill-rule:nonzero;"/>
    </g>
    <g transform="matrix(0.2397,0,0,0.2397,0,0)">
        <path d="M438.083,378.833C404.625,390.833 367.708,373.917 355.542,340.875C343.417,307.875 360.583,271.333 394.042,259.292C427.417,247.292 464.375,264.292 476.625,297.292C488.708,330.292 471.458,366.833 438.083,378.833Z" style="fill:rgb(251,187,29);fill-rule:nonzero;"/>
    </g>
    <g transform="matrix(0.2397,0,0,0.2397,0,0)">
        <path d="M437.083,376.042C405.167,387.5 369.958,371.333 358.375,339.875C346.792,308.417 363.208,273.542 395.083,262.083C426.917,250.625 462.167,266.833 473.833,298.333C485.333,329.792 468.917,364.625 437.083,376.042Z" style="fill:rgb(251,185,30);fill-rule:nonzero;"/>
    </g>
    <g transform="matrix(0.2397,0,0,0.2397,0,0)">
        <path d="M436.042,373.292C405.667,384.167 372.208,368.833 361.167,338.875C350.167,308.917 365.75,275.792 396.083,264.833C426.375,253.958 459.917,269.375 471,299.292C481.958,329.25 466.333,362.417 436.042,373.292Z" style="fill:rgb(251,183,30);fill-rule:nonzero;"/>
    </g>
    <g transform="matrix(0.2397,0,0,0.2397,0,0)">
        <path d="M435.042,370.5C406.25,380.833 374.458,366.25 364,337.833C353.542,309.417 368.333,277.958 397.125,267.583C425.833,257.25 457.667,271.875 468.208,300.292C478.625,328.75 463.75,360.208 435.042,370.5Z" style="fill:rgb(251,181,31);fill-rule:nonzero;"/>
    </g>
    <g transform="matrix(0.2397,0,0,0.2397,0,0)">
        <path d="M434,367.75C406.75,377.542 376.667,363.75 366.792,336.833C356.917,309.958 370.917,280.208 398.125,270.375C425.292,260.583 455.417,274.458 465.375,301.333C475.25,328.208 461.208,357.958 434,367.75Z" style="fill:rgb(250,178,32);fill-rule:nonzero;"/>
    </g>
    <g transform="matrix(0.2397,0,0,0.2397,0,0)">
        <path d="M432.958,364.958C407.25,374.167 378.917,361.167 369.542,335.833C360.208,310.5 373.417,282.417 399.125,273.167C424.75,263.958 453.167,277 462.542,302.375C471.875,327.708 458.625,355.75 432.958,364.958Z" style="fill:rgb(250,176,32);fill-rule:nonzero;"/>
    </g>
    <g transform="matrix(0.2397,0,0,0.2397,0,0)">
        <path d="M431.958,362.208C407.792,370.875 381.167,358.667 372.375,334.833C363.625,311 376,284.667 400.167,275.958C424.25,267.292 450.958,279.583 459.75,303.375C468.5,327.167 456.042,353.542 431.958,362.208Z" style="fill:rgb(250,174,33);fill-rule:nonzero;"/>
    </g>
    <g transform="matrix(0.2397,0,0,0.2397,0,0)">
        <path d="M430.917,359.417C408.333,367.542 383.375,356.083 375.167,333.792C366.958,311.5 378.583,286.833 401.167,278.667C423.708,270.583 448.667,282.042 456.917,304.333C465.125,326.667 453.5,351.333 430.917,359.417Z" style="fill:rgb(250,172,34);fill-rule:nonzero;"/>
    </g>
    <g transform="matrix(0.2397,0,0,0.2397,0,0)">
        <path d="M429.917,356.667C408.875,364.208 385.667,353.583 378,332.792C370.375,312.042 381.167,289.042 402.208,281.458C423.208,273.917 446.458,284.583 454.125,305.375C461.75,326.125 450.917,349.125 429.917,356.667Z" style="fill:rgb(249,169,34);fill-rule:nonzero;"/>
    </g>
    <g transform="matrix(0.2397,0,0,0.2397,0,0)">
        <path d="M428.875,353.875C409.375,360.875 387.875,351 380.792,331.75C373.708,312.542 383.75,291.25 403.208,284.208C422.667,277.208 444.208,287.125 451.292,306.333C458.375,325.625 448.333,346.875 428.875,353.875Z" style="fill:rgb(249,167,35);fill-rule:nonzero;"/>
    </g>
    <g transform="matrix(0.2397,0,0,0.2397,0,0)">
        <path d="M427.875,351.083C409.958,357.5 390.125,348.458 383.625,330.75C377.125,313.042 386.333,293.458 404.25,287C422.125,280.583 441.958,289.667 448.542,307.375C455,325.083 445.792,344.667 427.875,351.083Z" style="fill:rgb(249,165,36);fill-rule:nonzero;"/>
    </g>
    <g transform="matrix(0.2397,0,0,0.2397,0,0)">
        <path d="M426.833,348.333C410.458,354.208 392.375,345.917 386.417,329.75C380.458,313.583 388.875,295.708 405.25,289.792C421.583,283.917 439.708,292.25 445.708,308.417C451.667,324.583 443.208,342.458 426.833,348.333Z" style="fill:rgb(249,163,36);fill-rule:nonzero;"/>
    </g>
    <g transform="matrix(0.2397,0,0,0.2397,0,0)">
        <path d="M425.833,345.542C411,350.875 394.625,343.375 389.25,328.708C383.875,314.083 391.5,297.875 406.333,292.542C421.125,287.208 437.542,294.75 442.958,309.417C448.292,324.042 440.625,340.25 425.833,345.542Z" style="fill:rgb(248,160,37);fill-rule:nonzero;"/>
    </g>
    <g transform="matrix(0.2397,0,0,0.2397,0,0)">
        <path d="M424.792,342.792C411.5,347.542 396.833,340.833 392.042,327.708C387.208,314.583 394.042,300.083 407.333,295.292C420.583,290.542 435.25,297.292 440.125,310.375C444.917,323.542 438.083,338.042 424.792,342.792Z" style="fill:rgb(248,158,38);fill-rule:nonzero;"/>
    </g>
    <g transform="matrix(0.2397,0,0,0.2397,0,0)">
        <path d="M423.792,340C412.083,344.208 399.125,338.292 394.833,326.708C390.583,315.125 396.625,302.333 408.333,298.083C420.042,293.875 433,299.833 437.292,311.417C441.542,323 435.5,335.792 423.792,340Z" style="fill:rgb(248,156,38);fill-rule:nonzero;"/>
    </g>
    <g transform="matrix(0.2397,0,0,0.2397,0,0)">
        <path d="M422.75,337.25C412.583,340.917 401.333,335.75 397.625,325.708C393.917,315.667 399.167,304.542 409.333,300.875C419.5,297.208 430.75,302.417 434.458,312.458C438.167,322.5 432.917,333.583 422.75,337.25Z" style="fill:rgb(248,154,39);fill-rule:nonzero;"/>
    </g>
    <g transform="matrix(0.2397,0,0,0.2397,0,0)">
        <path d="M421.75,334.458C413.125,337.542 403.583,333.167 400.458,324.667C397.333,316.167 401.75,306.75 410.375,303.625C419,300.542 428.5,304.917 431.667,313.458C434.792,321.958 430.375,331.375 421.75,334.458Z" style="fill:rgb(247,151,40);fill-rule:nonzero;"/>
    </g>
    <g transform="matrix(0.2397,0,0,0.2397,0,0)">
        <path d="M420.708,331.708C413.625,334.25 405.833,330.667 403.25,323.667C400.667,316.667 404.333,308.958 411.375,306.417C418.458,303.875 426.25,307.458 428.833,314.458C431.417,321.458 427.792,329.167 420.708,331.708Z" style="fill:rgb(247,149,40);fill-rule:nonzero;"/>
    </g>
    <g transform="matrix(0.2397,0,0,0.2397,0,0)">
        <path d="M419.708,328.917C414.208,330.875 408.083,328.083 406.083,322.667C404.083,317.208 406.917,311.208 412.458,309.208C417.958,307.208 424.083,310.042 426.083,315.5C428.083,320.917 425.208,326.917 419.708,328.917Z" style="fill:rgb(247,147,41);fill-rule:nonzero;"/>
    </g>
    <g transform="matrix(0.2397,0,0,0.2397,0,0)">
        <path d="M135.417,384.375C97.292,398.042 55.25,378.75 41.375,341.125C27.542,303.542 47.125,261.917 85.208,248.167C123.208,234.5 165.333,253.875 179.25,291.458C193.083,329.083 173.417,370.708 135.417,384.375Z" style="fill:rgb(252,194,27);fill-rule:nonzero;"/>
        <path d="M134.375,381.583C97.792,394.708 57.458,376.208 44.167,340.083C30.917,304.042 49.667,264.125 86.25,250.917C122.708,237.833 163.125,256.375 176.458,292.458C189.708,328.583 170.875,368.5 134.375,381.583Z" style="fill:rgb(252,192,28);fill-rule:nonzero;"/>
        <path d="M133.375,378.833C98.375,391.375 59.75,373.667 47,339.125C34.292,304.625 52.292,266.375 87.292,253.75C122.208,241.208 160.917,259 173.667,293.542C186.333,328.042 168.292,366.292 133.375,378.833Z" style="fill:rgb(252,190,28);fill-rule:nonzero;"/>
        <path d="M132.333,376.042C98.875,388.042 61.958,371.125 49.792,338.083C37.667,305.083 54.833,268.583 88.292,256.5C121.667,244.5 158.625,261.5 170.875,294.5C182.958,327.5 165.708,364.083 132.333,376.042Z" style="fill:rgb(251,187,29);fill-rule:nonzero;"/>
        <path d="M131.333,373.292C99.417,384.75 64.208,368.583 52.625,337.083C41.042,305.625 57.458,270.792 89.333,259.292C121.167,247.875 156.417,264.042 168.083,295.542C179.583,327 163.167,361.833 131.333,373.292Z" style="fill:rgb(251,185,30);fill-rule:nonzero;"/>
        <path d="M130.292,370.5C99.917,381.375 66.458,366.042 55.417,336.042C44.417,306.125 60,272.958 90.333,262C120.625,251.125 154.167,266.542 165.25,296.5C176.208,326.458 160.583,359.625 130.292,370.5Z" style="fill:rgb(251,183,30);fill-rule:nonzero;"/>
        <path d="M129.292,367.75C100.5,378.083 68.708,363.5 58.25,335.083C47.792,306.667 62.583,275.25 91.375,264.833C120.083,254.5 151.917,269.125 162.458,297.542C172.875,325.958 158,357.417 129.292,367.75Z" style="fill:rgb(251,181,31);fill-rule:nonzero;"/>
        <path d="M128.25,364.958C101,374.75 70.917,360.958 61.042,334.042C51.167,307.167 65.167,277.417 92.375,267.583C119.542,257.833 149.667,271.667 159.625,298.542C169.5,325.417 155.458,355.208 128.25,364.958Z" style="fill:rgb(250,178,32);fill-rule:nonzero;"/>
        <path d="M127.25,362.208C101.542,371.417 73.208,358.417 63.833,333.042C54.5,307.708 67.708,279.625 93.417,270.375C119.042,261.167 147.458,274.208 156.833,299.583C166.125,324.917 152.875,352.958 127.25,362.208Z" style="fill:rgb(250,176,32);fill-rule:nonzero;"/>
        <path d="M126.208,359.417C102.042,368.083 75.417,355.875 66.625,332C57.875,308.208 70.25,281.833 94.417,273.125C118.5,264.458 145.208,276.708 154,300.542C162.75,324.375 150.292,350.75 126.208,359.417Z" style="fill:rgb(250,174,33);fill-rule:nonzero;"/>
        <path d="M125.208,356.667C102.625,364.75 77.667,353.333 69.458,331.042C61.25,308.75 72.875,284.083 95.458,275.958C118,267.875 142.958,279.333 151.208,301.625C159.375,323.875 147.75,348.542 125.208,356.667Z" style="fill:rgb(250,172,34);fill-rule:nonzero;"/>
        <path d="M124.167,353.875C103.125,361.417 79.917,350.75 72.25,330C64.625,309.25 75.417,286.292 96.458,278.667C117.458,271.125 140.708,281.792 148.375,302.583C156,323.333 145.167,346.333 124.167,353.875Z" style="fill:rgb(249,169,34);fill-rule:nonzero;"/>
        <path d="M123.125,351.083C103.625,358.083 82.125,348.208 75.042,328.958C67.958,309.75 78,288.458 97.458,281.417C116.917,274.417 138.458,284.333 145.542,303.542C152.625,322.833 142.583,344.125 123.125,351.083Z" style="fill:rgb(249,167,35);fill-rule:nonzero;"/>
        <path d="M122.125,348.333C104.208,354.75 84.375,345.667 77.875,327.958C71.375,310.292 80.583,290.667 98.5,284.208C116.375,277.792 136.208,286.875 142.792,304.583C149.292,322.292 140.042,341.875 122.125,348.333Z" style="fill:rgb(249,165,36);fill-rule:nonzero;"/>
        <path d="M121.083,345.542C104.708,351.417 86.625,343.125 80.667,326.958C74.708,310.792 83.125,292.917 99.5,287C115.833,281.125 133.958,289.417 139.958,305.625C145.917,321.792 137.458,339.667 121.083,345.542Z" style="fill:rgb(249,163,36);fill-rule:nonzero;"/>
        <path d="M120.083,342.792C105.25,348.083 88.875,340.583 83.5,325.958C78.125,311.333 85.75,295.125 100.583,289.792C115.375,284.458 131.792,292 137.208,306.625C142.542,321.25 134.875,337.458 120.083,342.792Z" style="fill:rgb(248,160,37);fill-rule:nonzero;"/>
        <path d="M119.042,340C105.75,344.75 91.083,338.042 86.25,324.917C81.417,311.833 88.25,297.333 101.542,292.542C114.792,287.792 129.458,294.5 134.333,307.625C139.167,320.75 132.333,335.25 119.042,340Z" style="fill:rgb(248,158,38);fill-rule:nonzero;"/>
        <path d="M118.042,337.25C106.333,341.458 93.375,335.5 89.083,323.917C84.833,312.375 90.875,299.542 102.583,295.333C114.292,291.125 127.25,297.083 131.542,308.667C135.792,320.208 129.75,333.042 118.042,337.25Z" style="fill:rgb(248,156,38);fill-rule:nonzero;"/>
        <path d="M117,334.458C106.833,338.083 95.583,332.958 91.875,322.917C88.167,312.875 93.417,301.75 103.583,298.083C113.75,294.417 125,299.583 128.708,309.625C132.417,319.708 127.167,330.792 117,334.458Z" style="fill:rgb(248,154,39);fill-rule:nonzero;"/>
        <path d="M116,331.708C107.375,334.792 97.833,330.417 94.708,321.917C91.583,313.417 96,304 104.625,300.875C113.25,297.792 122.792,302.167 125.917,310.667C129.042,319.167 124.625,328.583 116,331.708Z" style="fill:rgb(247,151,40);fill-rule:nonzero;"/>
        <path d="M114.958,328.917C107.917,331.458 100.083,327.875 97.5,320.875C94.917,313.917 98.583,306.167 105.625,303.625C112.708,301.083 120.5,304.667 123.083,311.667C125.667,318.667 122.042,326.375 114.958,328.917Z" style="fill:rgb(247,149,40);fill-rule:nonzero;"/>
        <path d="M113.958,326.167C108.458,328.125 102.333,325.333 100.333,319.875C98.333,314.458 101.167,308.375 106.708,306.417C112.208,304.458 118.333,307.208 120.333,312.667C122.333,318.125 119.458,324.167 113.958,326.167Z" style="fill:rgb(247,147,41);fill-rule:nonzero;"/>
    </g>
    <g transform="matrix(0.2397,0,0,0.2397,0,0)">
        <path d="M124.833,250.146C121.619,255.453 114.622,257.198 109.292,254.021C103.974,250.862 102.173,243.904 105.292,238.563C106.042,237.271 124.458,206.812 165.167,206.812C205.917,206.812 224.333,237.271 225.125,238.562C226.137,240.302 226.67,242.279 226.67,244.292C226.67,250.537 221.537,255.678 215.292,255.687C211.458,255.687 207.667,253.729 205.542,250.187C205,249.271 192.542,229.521 165.167,229.521C137.792,229.479 125.417,249.271 124.833,250.146ZM425,254.063C423.208,255.146 421.208,255.646 419.292,255.646C415.375,255.646 411.583,253.604 409.458,250.063C409,249.229 396.625,229.479 369.208,229.479C341.333,229.479 328.958,249.854 328.833,250.063C326.768,253.406 323.107,255.448 319.177,255.448C312.951,255.448 307.827,250.324 307.827,244.098C307.827,242.144 308.332,240.223 309.292,238.521C310.042,237.229 328.458,206.771 369.208,206.771C409.917,206.771 428.292,237.229 429.042,238.521C432.208,243.937 430.375,250.937 425,254.062L425,254.063Z" style="fill:rgb(47,47,47);fill-rule:nonzero;"/>
    </g>
    <g transform="matrix(0.2397,0,0,0.2397,0,0)">
        <path d="M304.392,422.333C306.825,424.5 309.15,421.792 309.15,421.792C309.15,421.792 348.071,378.458 350.617,376.508C354.204,373.754 361.921,369.383 369.95,377.258C373.283,380.525 378.804,387.858 369.217,400.133C367.158,402.779 306.525,469.917 302.971,473.538C302.971,473.538 274.904,502.229 257.783,513.2C253.025,516.258 247.675,519.475 241.392,521.8C235.142,524.121 228.037,525.783 220.508,525.979C212.996,526.258 205.158,524.988 197.708,522.479C190.275,519.95 183.287,516.146 176.942,511.725C175.375,510.6 173.808,509.471 172.317,508.258L168.025,504.917C165.101,502.566 162.283,500.085 159.579,497.483C154.309,492.472 149.438,487.055 145.012,481.283C140.717,475.633 137.546,469.492 134.108,463.917C128.175,454.3 125.392,441.983 124.225,432.483C121.612,411.083 130.362,389.008 130.362,389.008L134.375,381.583C148.408,360.692 182.037,324.779 182.037,324.779C192.892,312.025 204.483,312.871 209.204,316.092C222.804,325.363 219.162,337.908 209.546,349.279L177.683,384.042C176.067,387.804 180.879,391.938 183.983,389.292C193.712,380.95 214.137,358.154 214.137,358.154C223.312,348.925 274.887,293.333 278.358,289.942C285.317,283.133 294.246,279.483 301.217,284.35C308.333,289.313 310.5,297.221 303.958,306.075C302.183,308.471 250.079,366.338 250.079,366.338C247.029,369.692 250.833,374.213 254.187,370.954C254.187,370.954 319.021,299.871 321.954,296.542C328.571,288.979 339.467,287.083 346.104,292.996C352.588,298.771 352.679,308.538 345.95,316.358C343.8,318.838 298.158,369.517 279.875,390.246C278.642,391.629 277.721,393.467 279.625,395.163C279.637,395.175 281.571,397.167 283.933,394.517C288.892,388.95 338.529,334.592 341.3,331.65C347.646,324.896 356.292,321.567 363.467,327.804C370.029,333.496 371.317,343.7 364.121,351.108L304.037,417.863C304.037,417.863 302.108,420.3 304.392,422.333Z" style="fill:rgb(252,194,27);fill-rule:nonzero;stroke:rgb(47,47,47);stroke-width:16.69px;"/>
    </g>
</svg>
