<?xml version="1.0" encoding="UTF-8" standalone="no"?>
<svg
   width="128"
   height="128"
   version="1.1"
   id="svg26672"
   sodipodi:docname="emoji_u1f61e.svg"
   inkscape:version="1.2.2 (732a01da63, 2022-12-09)"
   xmlns:inkscape="http://www.inkscape.org/namespaces/inkscape"
   xmlns:sodipodi="http://sodipodi.sourceforge.net/DTD/sodipodi-0.dtd"
   xmlns="http://www.w3.org/2000/svg"
   xmlns:svg="http://www.w3.org/2000/svg">
  <defs
     id="defs26676" />
  <sodipodi:namedview
     id="namedview26674"
     pagecolor="#ffffff"
     bordercolor="#000000"
     borderopacity="0.25"
     inkscape:showpageshadow="2"
     inkscape:pageopacity="0.0"
     inkscape:pagecheckerboard="0"
     inkscape:deskcolor="#d1d1d1"
     showgrid="false"
     inkscape:zoom="2.1210938"
     inkscape:cx="67.182319"
     inkscape:cy="100.89134"
     inkscape:window-width="1366"
     inkscape:window-height="697"
     inkscape:window-x="-8"
     inkscape:window-y="-8"
     inkscape:window-maximized="1"
     inkscape:current-layer="svg26672" />
  <path
     d="M 64,9.64 C 1.69,9.64 0.21,79.5 0.21,93.33 c 0,13.83 28.56,25.03 63.79,25.03 35.24,0 63.79,-11.21 63.79,-25.03 C 127.79,79.5 126.32,9.64 64,9.64 Z"
     fill="#fcc21b"
     id="path26574" />
  <g
     id="g27173"
     transform="translate(0.44990119,-3.8145305)">
    <path
       d="m 91.804803,65.037544 c -7.67,0 -14.99,-3.84 -19.31,-10.47 -0.83,-1.27 -0.47,-2.98 0.8,-3.8 1.27,-0.83 2.98,-0.47 3.8,0.81 4.08,6.27 11.71,9.26 18.97,7.44 1.47,-0.37 2.97,0.52 3.34,2 0.37,1.47 -0.52,2.97 -2,3.34 -1.85,0.45 -3.74,0.68 -5.6,0.68 z"
       style="fill:#2f2f2f"
       id="path27001"
       sodipodi:nodetypes="sccccccs" />
    <path
       d="m 34.884803,65.037544 c -1.86,0 -3.75,-0.23 -5.61,-0.7 -1.47,-0.37 -2.37,-1.86 -2,-3.34 0.37,-1.47 1.87,-2.37 3.34,-2 7.26,1.82 14.89,-1.17 18.97,-7.44 0.83,-1.27 2.53,-1.63 3.8,-0.81 1.27,0.83 1.63,2.53 0.8,3.8 -4.3,6.65 -11.63,10.49 -19.3,10.49 z"
       style="fill:#2f2f2f"
       id="path27003"
       sodipodi:nodetypes="sccccccs" />
  </g>
  <path
     d="m 86.24,88.51948 c -0.85,0 -1.69,-0.36 -2.28,-1.05 -5.05,-5.91 -12.4,-9.3 -20.17,-9.3 -7.77,0 -15.12,3.39 -20.17,9.3 a 2.997,2.997 0 0 1 -4.23,0.33 2.997,2.997 0 0 1 -0.33,-4.23 c 6.19,-7.25 15.2,-11.4 24.73,-11.4 9.53,0 18.54,4.16 24.73,11.4 1.08,1.26 0.93,3.15 -0.33,4.23 -0.57,0.48 -1.26,0.72 -1.95,0.72 z"
     fill="#2f2f2f"
     id="path26670" />
</svg>
