<?xml version="1.0" encoding="UTF-8" standalone="no"?>
<svg
   height="128"
   width="128"
   version="1.1"
   id="svg30217"
   sodipodi:docname="emoji_u267e_fe0f.svg"
   inkscape:version="1.2.2 (732a01da63, 2022-12-09)"
   xmlns:inkscape="http://www.inkscape.org/namespaces/inkscape"
   xmlns:sodipodi="http://sodipodi.sourceforge.net/DTD/sodipodi-0.dtd"
   xmlns="http://www.w3.org/2000/svg"
   xmlns:svg="http://www.w3.org/2000/svg">
  <sodipodi:namedview
     id="namedview30219"
     pagecolor="#ffffff"
     bordercolor="#000000"
     borderopacity="0.25"
     inkscape:showpageshadow="2"
     inkscape:pageopacity="0.0"
     inkscape:pagecheckerboard="0"
     inkscape:deskcolor="#d1d1d1"
     showgrid="false"
     inkscape:zoom="2.9996795"
     inkscape:cx="51.172133"
     inkscape:cy="55.005876"
     inkscape:window-width="1366"
     inkscape:window-height="697"
     inkscape:window-x="-8"
     inkscape:window-y="-8"
     inkscape:window-maximized="1"
     inkscape:current-layer="svg30217" />
  <defs
     id="defs30205">
    <linearGradient
       id="a">
      <stop
         offset="0"
         id="stop30200" />
      <stop
         offset="1"
         stop-opacity="0"
         id="stop30202" />
    </linearGradient>
  </defs>
  <circle
     cx="64"
     cy="64"
     r="54.909"
     fill="#25b9b7"
     stroke-width="2.777"
     paint-order="stroke fill markers"
     id="circle30207" />
  <path
     id="circle30755"
     style="font-variation-settings:'opsz' 12, 'wght' 400;fill:#ffffff;stroke:none;stroke-width:6;stroke-linecap:round;stroke-linejoin:round;paint-order:stroke fill markers"
     d="m 49.816703,43.807573 c -11.151884,-0.01316 -20.192426,9.040537 -20.192426,20.192424 0,11.151888 9.040542,20.20559 20.192426,20.192425 5.318564,-0.0061 10.414565,-3.175408 14.181305,-6.930246 3.767231,3.755328 8.864044,6.92378 14.183297,6.930246 11.152664,0.01356 20.194412,-9.039752 20.194412,-20.192425 0,-11.152672 -9.041748,-20.205977 -20.194412,-20.192424 -5.319253,0.0061 -10.415806,3.174924 -14.183037,6.93025 -3.76674,-3.754837 -8.863001,-6.923967 -14.181565,-6.93025 z m -0.859147,13.862625 c 4.561554,5.5e-4 9.940723,6.329799 9.940723,6.329799 0,0 -5.379169,6.32925 -9.940723,6.329801 -4.562569,5.5e-4 -7.407592,-2.833844 -7.407592,-6.329801 0,-3.495955 2.845023,-6.33035 7.407592,-6.329799 z m 30.083487,0 c 4.562568,-5.51e-4 7.407659,2.833844 7.407659,6.329799 0,3.495957 -2.845092,6.330351 -7.407659,6.329801 -4.561554,-5.51e-4 -9.940793,-6.329801 -9.940793,-6.329801 0,0 5.379239,-6.329249 9.940793,-6.329799 z"
     sodipodi:nodetypes="ssscssscsscsssssscs" />
</svg>
