<?xml version="1.0" encoding="UTF-8" standalone="no"?>
<svg
   width="128"
   height="128"
   version="1.1"
   id="svg12"
   sodipodi:docname="emoji_u1f614.svg"
   inkscape:version="1.2.2 (732a01da63, 2022-12-09)"
   xmlns:inkscape="http://www.inkscape.org/namespaces/inkscape"
   xmlns:sodipodi="http://sodipodi.sourceforge.net/DTD/sodipodi-0.dtd"
   xmlns="http://www.w3.org/2000/svg"
   xmlns:svg="http://www.w3.org/2000/svg">
  <defs
     id="defs16" />
  <sodipodi:namedview
     id="namedview14"
     pagecolor="#ffffff"
     bordercolor="#000000"
     borderopacity="0.25"
     inkscape:showpageshadow="2"
     inkscape:pageopacity="0.0"
     inkscape:pagecheckerboard="0"
     inkscape:deskcolor="#d1d1d1"
     showgrid="false"
     inkscape:zoom="2.9996795"
     inkscape:cx="52.838977"
     inkscape:cy="84.342343"
     inkscape:window-width="1366"
     inkscape:window-height="697"
     inkscape:window-x="-8"
     inkscape:window-y="-8"
     inkscape:window-maximized="1"
     inkscape:current-layer="svg12" />
  <path
     d="M 0.21,93.320001 C 0.21,107.15 28.76,118.35 64,118.35 c 35.23,0 63.79,-11.21 63.79,-25.029999 0,-13.83 -1.48,-83.6799999 -63.79,-83.6799999 C 1.68,9.6300011 0.21,79.490001 0.21,93.320001 Z"
     fill="#fcc21b"
     id="path2" />
  <g
     fill="#2f2f2f"
     id="g6" />
  <path
     d="M 89.69,86.41631 H 38.31 c -1.66,0 -3,-1.34 -3,-3 0,-1.66 1.34,-3 3,-3 H 89.7 c 1.66,0 3,1.34 3,3 0,1.66 -1.35,3 -3.01,3 z"
     fill="#2f2f2f"
     id="path8" />
  <g
     id="g27173"
     transform="translate(0.65990119,-2.5530513)">
    <path
       d="m 91.804803,65.037544 c -7.67,0 -14.99,-3.84 -19.31,-10.47 -0.83,-1.27 -0.47,-2.98 0.8,-3.8 1.27,-0.83 2.98,-0.47 3.8,0.81 4.08,6.27 11.71,9.26 18.97,7.44 1.47,-0.37 2.97,0.52 3.34,2 0.37,1.47 -0.52,2.97 -2,3.34 -1.85,0.45 -3.74,0.68 -5.6,0.68 z"
       style="fill:#2f2f2f"
       id="path27001"
       sodipodi:nodetypes="sccccccs" />
    <path
       d="m 34.884803,65.037544 c -1.86,0 -3.75,-0.23 -5.61,-0.7 -1.47,-0.37 -2.37,-1.86 -2,-3.34 0.37,-1.47 1.87,-2.37 3.34,-2 7.26,1.82 14.89,-1.17 18.97,-7.44 0.83,-1.27 2.53,-1.63 3.8,-0.81 1.27,0.83 1.63,2.53 0.8,3.8 -4.3,6.65 -11.63,10.49 -19.3,10.49 z"
       style="fill:#2f2f2f"
       id="path27003"
       sodipodi:nodetypes="sccccccs" />
  </g>
</svg>
