<?xml version="1.0" encoding="UTF-8" standalone="no"?>
<svg
   width="128"
   height="128"
   version="1.1"
   id="svg26672"
   sodipodi:docname="emoji_u1f623.svg"
   inkscape:version="1.2.2 (732a01da63, 2022-12-09)"
   xmlns:inkscape="http://www.inkscape.org/namespaces/inkscape"
   xmlns:sodipodi="http://sodipodi.sourceforge.net/DTD/sodipodi-0.dtd"
   xmlns="http://www.w3.org/2000/svg"
   xmlns:svg="http://www.w3.org/2000/svg">
  <defs
     id="defs26676" />
  <sodipodi:namedview
     id="namedview26674"
     pagecolor="#ffffff"
     bordercolor="#000000"
     borderopacity="0.25"
     inkscape:showpageshadow="2"
     inkscape:pageopacity="0.0"
     inkscape:pagecheckerboard="0"
     inkscape:deskcolor="#d1d1d1"
     showgrid="false"
     inkscape:zoom="2.1210937"
     inkscape:cx="21.922652"
     inkscape:cy="90.047884"
     inkscape:window-width="1366"
     inkscape:window-height="697"
     inkscape:window-x="-8"
     inkscape:window-y="-8"
     inkscape:window-maximized="1"
     inkscape:current-layer="svg26672" />
  <path
     d="M 64,9.64 C 1.69,9.64 0.21,79.5 0.21,93.33 c 0,13.83 28.56,25.03 63.79,25.03 35.24,0 63.79,-11.21 63.79,-25.03 C 127.79,79.5 126.32,9.64 64,9.64 Z"
     fill="#fcc21b"
     id="path26574" />
  <g
     id="g2727"
     transform="translate(-0.11,1.1741039)">
    <g
       fill="#2f2f2f"
       id="g26668"
       transform="translate(0,4.3337963)">
      <path
         d="m 98.46,57.78 c -0.5,1.13 -1.7,1.72 -2.86,1.52 -0.21,-0.04 -0.42,-0.1 -0.61,-0.19 -7.83,-3.49 -18.47,-3.39 -18.57,-3.39 -1.21,0.02 -2.24,-0.78 -2.57,-1.92 -0.33,-1.15 0.16,-2.37 1.18,-2.98 9.01,-5.41 21.72,-7.26 22.25,-7.33 1.45,-0.2 2.78,0.8 2.98,2.24 0.2,1.44 -0.81,2.77 -2.24,2.98 -0.07,0.01 -5.28,0.76 -11.12,2.65 3.25,0.47 6.94,1.48 10.24,2.94 1.32,0.59 1.92,2.16 1.32,3.48 z m -68.7,0 c 0.5,1.13 1.7,1.72 2.86,1.52 0.21,-0.04 0.42,-0.1 0.61,-0.19 7.83,-3.49 18.47,-3.39 18.57,-3.39 1.21,0.02 2.24,-0.78 2.57,-1.92 0.33,-1.15 -0.16,-2.37 -1.18,-2.98 -9.01,-5.41 -21.72,-7.26 -22.25,-7.33 -1.45,-0.2 -2.78,0.8 -2.98,2.24 -0.2,1.44 0.81,2.77 2.24,2.98 0.07,0.01 5.28,0.76 11.12,2.65 -3.25,0.47 -6.94,1.48 -10.24,2.94 a 2.65,2.65 0 0 0 -1.32,3.48 z"
         id="path26666" />
    </g>
    <path
       d="m 86.24,90.333796 c -0.85,0 -1.69,-0.36 -2.28,-1.05 -5.05,-5.91 -12.4,-9.3 -20.17,-9.3 -7.77,0 -15.12,3.39 -20.17,9.3 a 2.997,2.997 0 0 1 -4.23,0.33 2.997,2.997 0 0 1 -0.33,-4.23 c 6.19,-7.25 15.2,-11.4 24.73,-11.4 9.53,0 18.54,4.16 24.73,11.4 1.08,1.26 0.93,3.15 -0.33,4.23 -0.57,0.48 -1.26,0.72 -1.95,0.72 z"
       fill="#2f2f2f"
       id="path26670" />
    <g
       id="g2434"
       transform="translate(-0.0891205,-3.0048376)">
      <path
         d="m 96.465611,44.712655 c 0,0 -8.4564,-2.066079 -12.908672,-8.272904"
         fill="none"
         fill-rule="evenodd"
         stroke="#7b4600"
         stroke-width="3.78"
         stroke-linecap="round"
         stroke-linejoin="round"
         id="path9211"
         style="fill:none;fill-opacity:1;stroke:#e28100;stroke-opacity:1"
         sodipodi:nodetypes="cc" />
      <path
         d="m 31.93263,44.712655 c 0,0 8.4564,-2.066079 12.908672,-8.272904"
         fill="none"
         fill-rule="evenodd"
         stroke="#7b4600"
         stroke-width="3.78"
         stroke-linecap="round"
         stroke-linejoin="round"
         id="path2430"
         style="fill:none;fill-opacity:1;stroke:#e28100;stroke-opacity:1"
         sodipodi:nodetypes="cc" />
    </g>
  </g>
</svg>
