<?xml version="1.0" encoding="UTF-8" standalone="no"?>
<svg
   width="128"
   height="128"
   version="1.1"
   id="svg12264"
   sodipodi:docname="emoji_u1f637.svg"
   inkscape:version="1.2.2 (732a01da63, 2022-12-09)"
   xmlns:inkscape="http://www.inkscape.org/namespaces/inkscape"
   xmlns:sodipodi="http://sodipodi.sourceforge.net/DTD/sodipodi-0.dtd"
   xmlns:xlink="http://www.w3.org/1999/xlink"
   xmlns="http://www.w3.org/2000/svg"
   xmlns:svg="http://www.w3.org/2000/svg">
  <sodipodi:namedview
     id="namedview12266"
     pagecolor="#ffffff"
     bordercolor="#000000"
     borderopacity="0.25"
     inkscape:showpageshadow="2"
     inkscape:pageopacity="0.0"
     inkscape:pagecheckerboard="0"
     inkscape:deskcolor="#d1d1d1"
     showgrid="false"
     inkscape:zoom="1.4998398"
     inkscape:cx="81.675391"
     inkscape:cy="119.34608"
     inkscape:window-width="1366"
     inkscape:window-height="697"
     inkscape:window-x="-8"
     inkscape:window-y="-8"
     inkscape:window-maximized="1"
     inkscape:current-layer="svg12264" />
  <path
     d="M64.11 9.64C1.79 9.64.31 79.5.31 93.33c0 13.83 28.56 25.03 63.79 25.03 35.24 0 63.79-11.21 63.79-25.03 0-13.83-1.46-83.69-63.78-83.69z"
     fill="#fcc21b"
     id="path12234" />
  <path
     d="M92.04 110.37a243.477 243.477 0 0 1-56.08 0C30.45 109.73 26 104.52 26 99V74c0-5.53 4.45-9.27 9.96-8.63 18.63 2.16 37.45 2.16 56.08 0 5.51-.64 9.96 3.1 9.96 8.63v25c0 5.52-4.45 10.73-9.96 11.37z"
     fill="#fff"
     id="path12240" />
  <defs
     id="defs12243">
    <path
       id="a"
       d="M64.1 9.64C1.79 9.64.31 79.5.31 93.33c0 13.83 28.56 25.03 63.79 25.03 35.24 0 63.79-11.21 63.79-25.03 0-13.83-1.46-83.69-63.79-83.69z" />
  </defs>
  <clipPath
     id="b">
    <use
       xlink:href="#a"
       overflow="visible"
       id="use12245" />
  </clipPath>
  <g
     clip-path="url(#b)"
     id="g12250">
    <path
       d="M97.2 80.1c-1.44 0-2.71-1.04-2.95-2.51a3 3 0 0 1 2.46-3.45c.18-.03 18.19-3.13 32.4-12.72 1.38-.93 3.24-.56 4.17.81s.57 3.24-.81 4.17C117.15 76.73 98.49 79.92 97.7 80.06c-.17.02-.33.04-.5.04z"
       fill="#fff"
       id="path12248" />
  </g>
  <g
     clip-path="url(#b)"
     id="g12254">
    <path
       d="M97.2 99.17c-1.58 0-2.91-1.24-2.99-2.84a3.005 3.005 0 0 1 2.83-3.16c.18-.01 18.44-1.05 32.69-6.4a2.997 2.997 0 0 1 2.11 5.61c-15.13 5.68-33.7 6.73-34.48 6.77-.05.02-.1.02-.16.02z"
       fill="#fff"
       id="path12252" />
  </g>
  <g
     clip-path="url(#b)"
     id="g12258">
    <path
       d="M31.01 80.1c-.16 0-.33-.01-.5-.04-.79-.13-19.45-3.32-34.77-13.67-1.37-.93-1.74-2.79-.81-4.17s2.79-1.74 4.16-.81c14.25 9.62 32.22 12.69 32.4 12.72 1.63.27 2.74 1.82 2.47 3.45a2.991 2.991 0 0 1-2.95 2.52z"
       fill="#fff"
       id="path12256" />
  </g>
  <g
     clip-path="url(#b)"
     id="g12262">
    <path
       d="M31 99.17h-.16c-.78-.04-19.35-1.09-34.48-6.77a2.989 2.989 0 0 1-1.75-3.86 2.989 2.989 0 0 1 3.86-1.75c14.28 5.36 32.51 6.39 32.69 6.4 1.65.09 2.92 1.5 2.84 3.16a3.002 3.002 0 0 1-3 2.82z"
       fill="#fff"
       id="path12260" />
  </g>
  <g
     fill="#2f2f2f"
     id="g9209"
     transform="translate(-0.09475301,-3.5361717)">
    <path
       d="m 42.005,61.282 c -4.49,0.04 -8.17,-4.27 -8.22,-9.62 -0.05,-5.37 3.55,-9.75 8.04,-9.79 4.48,-0.04 8.17,4.27 8.22,9.64 0.05,5.36 -3.55,9.73 -8.04,9.77 z m 44.11,0 c 4.48,-0.01 8.11,-4.36 8.1,-9.71 -0.01,-5.37 -3.66,-9.7 -8.14,-9.69 -4.49,0.01 -8.13,4.36 -8.12,9.73 0.02,5.35 3.67,9.68 8.16,9.67 z"
       id="path9207" />
  </g>
</svg>
