<?xml version="1.0" encoding="UTF-8" standalone="no"?>
<svg
   width="128"
   height="128"
   version="1.1"
   id="svg2233"
   sodipodi:docname="emoji_u1f625.svg"
   inkscape:version="1.2.2 (732a01da63, 2022-12-09)"
   xmlns:inkscape="http://www.inkscape.org/namespaces/inkscape"
   xmlns:sodipodi="http://sodipodi.sourceforge.net/DTD/sodipodi-0.dtd"
   xmlns="http://www.w3.org/2000/svg"
   xmlns:svg="http://www.w3.org/2000/svg">
  <defs
     id="defs2237" />
  <sodipodi:namedview
     id="namedview2235"
     pagecolor="#ffffff"
     bordercolor="#000000"
     borderopacity="0.25"
     inkscape:showpageshadow="2"
     inkscape:pageopacity="0.0"
     inkscape:pagecheckerboard="0"
     inkscape:deskcolor="#d1d1d1"
     showgrid="false"
     inkscape:zoom="2.9996795"
     inkscape:cx="51.505503"
     inkscape:cy="80.008548"
     inkscape:window-width="1366"
     inkscape:window-height="697"
     inkscape:window-x="-8"
     inkscape:window-y="-8"
     inkscape:window-maximized="1"
     inkscape:current-layer="svg2233" />
  <path
     d="M64 9.56C1.59 9.56.12 79.52.12 93.36c0 13.86 28.59 25.08 63.88 25.08 35.28 0 63.88-11.22 63.88-25.08 0-13.84-1.48-83.8-63.88-83.8z"
     fill="#fcc21b"
     id="path2223" />
  <g
     fill="#2f2f2f"
     id="g2231">
    <path
       d="M42.005 65.79c-4.49.04-8.17-4.27-8.22-9.62-.05-5.37 3.55-9.75 8.04-9.79 4.48-.04 8.17 4.27 8.22 9.64.05 5.36-3.56 9.73-8.04 9.77zM86.115 65.79c4.48-.01 8.11-4.36 8.1-9.71-.01-5.37-3.66-9.7-8.14-9.69-4.49.01-8.13 4.36-8.12 9.73.01 5.35 3.67 9.68 8.16 9.67z"
       id="path2229" />
  </g>
  <g
     id="g2434"
     transform="translate(-0.1991205)">
    <path
       d="m 96.465611,44.712655 c 0,0 -8.4564,-2.066079 -12.908672,-8.272904"
       fill="none"
       fill-rule="evenodd"
       stroke="#7b4600"
       stroke-width="3.78"
       stroke-linecap="round"
       stroke-linejoin="round"
       id="path9211"
       style="fill:none;fill-opacity:1;stroke:#e28100;stroke-opacity:1"
       sodipodi:nodetypes="cc" />
    <path
       d="m 31.93263,44.712655 c 0,0 8.4564,-2.066079 12.908672,-8.272904"
       fill="none"
       fill-rule="evenodd"
       stroke="#7b4600"
       stroke-width="3.78"
       stroke-linecap="round"
       stroke-linejoin="round"
       id="path2430"
       style="fill:none;fill-opacity:1;stroke:#e28100;stroke-opacity:1"
       sodipodi:nodetypes="cc" />
  </g>
  <path
     d="m 63.973,77.655892 c -14.130001,0 -22.18,8.14 -22.52,8.48 -0.556,0.601 -0.865,1.39 -0.865,2.209 0,1.785 1.469,3.254 3.254,3.254 0.853,0 1.673,-0.335 2.281,-0.933 0.25,-0.25 6.579999,-6.51 17.85,-6.51 11.269999,0 17.6,6.25 17.869999,6.52 1.251001,1.262 3.317,1.28 4.590001,0.04 0.626,-0.609 0.979,-1.447 0.979,-2.32 0,-0.844 -0.33,-1.656 -0.919,-2.26 -0.34,-0.34 -8.39,-8.48 -22.52,-8.48 z"
     style="clip-rule:evenodd;fill:#2f2f2f;fill-rule:nonzero;stroke-linejoin:round;stroke-miterlimit:2"
     id="path18524" />
  <path
     d="m 10.683791,89.95773 c 1.51,4.55 4.85,7.13 7.49,7.67 2.96,0.59 5.52,-0.1 7.2,-1.95 2.14,-2.33 2.57,-6.12 1.24,-10.67 -2.41,-8.17 -2.82,-22.96 -2.83,-23.1 -0.01,-0.57 -0.35,-1.06 -0.89,-1.24 -0.52,-0.21 -1.11,-0.05 -1.49,0.37 -12.9,14.41 -12.27,24.3 -10.72,28.92 z"
     style="fill:#ffffff;fill-opacity:1"
     id="path2854" />
</svg>
