<?xml version="1.0" encoding="UTF-8" standalone="no"?>
<svg
   width="128"
   height="128"
   style="enable-background:new 0 0 128 128;"
   version="1.1"
   id="svg28508"
   sodipodi:docname="emoji_u1f928_200d_1f922.svg"
   inkscape:version="1.2.2 (732a01da63, 2022-12-09)"
   xmlns:inkscape="http://www.inkscape.org/namespaces/inkscape"
   xmlns:sodipodi="http://sodipodi.sourceforge.net/DTD/sodipodi-0.dtd"
   xmlns="http://www.w3.org/2000/svg"
   xmlns:svg="http://www.w3.org/2000/svg">
  <defs
     id="defs28512" />
  <sodipodi:namedview
     id="namedview28510"
     pagecolor="#ffffff"
     bordercolor="#000000"
     borderopacity="0.25"
     inkscape:showpageshadow="2"
     inkscape:pageopacity="0.0"
     inkscape:pagecheckerboard="0"
     inkscape:deskcolor="#d1d1d1"
     showgrid="false"
     inkscape:zoom="4"
     inkscape:cx="78.5"
     inkscape:cy="54.75"
     inkscape:window-width="1366"
     inkscape:window-height="697"
     inkscape:window-x="-8"
     inkscape:window-y="-8"
     inkscape:window-maximized="1"
     inkscape:current-layer="svg28508" />
  <path
     d="M64,9.56c-62.41,0-63.88,69.96-63.88,83.8c0,13.86,28.59,25.08,63.88,25.08 c35.28,0,63.88-11.22,63.88-25.08C127.88,79.52,126.4,9.56,64,9.56z"
     style="fill:#FCC21B;"
     id="path28498" />
  <g
     id="g28504">
    <path
       d="M42.21,62.3c-4.49,0.04-8.17-4.27-8.22-9.62c-0.05-5.37,3.55-9.75,8.04-9.79 c4.48-0.04,8.17,4.27,8.22,9.64C50.3,57.88,46.7,62.25,42.21,62.3z"
       style="fill:#2F2F2F;"
       id="path28500" />
    <path
       d="M86.32,62.3c4.48-0.01,8.11-4.36,8.1-9.71c-0.01-5.37-3.66-9.7-8.14-9.69 c-4.49,0.01-8.13,4.36-8.12,9.73C78.18,57.98,81.83,62.31,86.32,62.3z"
       style="fill:#2F2F2F;"
       id="path28502" />
  </g>
  <path
     d="m 47.052249,33.985474 c -6.61701,-1.828203 -10.692501,-0.924922 -15.866902,3.63002 m 62.617175,4.701282 c 0,0 -8.3565,2.438926 -15.315685,-0.710209"
     fill="none"
     fill-rule="evenodd"
     stroke="#7b4600"
     stroke-width="3.78"
     stroke-linecap="round"
     stroke-linejoin="round"
     id="path9211"
     style="fill:none;fill-opacity:1;stroke:#e28100;stroke-opacity:1"
     sodipodi:nodetypes="cccc" />
  <ellipse
     style="font-variation-settings:'opsz' 12, 'wght' 400;fill:#fcc21b;fill-opacity:1;stroke-width:5.66929;stroke-linecap:round"
     id="path400"
     cx="86.806625"
     cy="61.053406"
     rx="13.848988"
     ry="2.5930018" />
  <path
     style="font-variation-settings:'opsz' 12, 'wght' 400;fill:#ed6c30;fill-opacity:1;stroke-width:5.66929;stroke-linecap:round"
     d="m 81.577455,81.694368 c 0,-1.314871 -7.029777,-7.311355 -22.426875,-7.311355 -19.435995,0 -28.651571,7.790544 -28.651571,14.289749 0,3.934948 2.461335,6.090807 5.338834,6.090807 7.590437,0 8.278317,-13.741377 26.034335,-13.741377 13.57477,0 19.705277,1.987047 19.705277,0.672176 z"
     id="path2500"
     sodipodi:nodetypes="zssssz" />
</svg>
