<?xml version="1.0" encoding="UTF-8" standalone="no"?>
<svg
   width="128"
   height="128"
   id="svg20"
   version="1.1"
   sodipodi:docname="emoji_u1f924.svg"
   inkscape:version="1.2.2 (732a01da63, 2022-12-09)"
   xmlns:inkscape="http://www.inkscape.org/namespaces/inkscape"
   xmlns:sodipodi="http://sodipodi.sourceforge.net/DTD/sodipodi-0.dtd"
   xmlns="http://www.w3.org/2000/svg"
   xmlns:svg="http://www.w3.org/2000/svg">
  <defs
     id="defs5352" />
  <sodipodi:namedview
     id="namedview5350"
     pagecolor="#ffffff"
     bordercolor="#000000"
     borderopacity="0.25"
     inkscape:showpageshadow="2"
     inkscape:pageopacity="0.0"
     inkscape:pagecheckerboard="0"
     inkscape:deskcolor="#d1d1d1"
     showgrid="false"
     inkscape:zoom="2.8284271"
     inkscape:cx="28.461048"
     inkscape:cy="68.589358"
     inkscape:window-width="1366"
     inkscape:window-height="697"
     inkscape:window-x="-8"
     inkscape:window-y="-8"
     inkscape:window-maximized="1"
     inkscape:current-layer="svg20" />
  <style
     id="style2" />
  <path
     d="M 64,9.6 C 1.69,9.6 0.21,79.46 0.21,93.29 c 0,13.83 28.56,25.03 63.79,25.03 35.24,0 63.79,-11.21 63.79,-25.03 C 127.79,79.46 126.32,9.6 64,9.6 Z"
     id="path2"
     fill="#fcc21b" />
  <path
     d="m 94.485,74.43409 c -2.882,-1.467214 -6.51,-0.498332 -9.719,0 -8.935,1.389078 -16.788,1.981917 -20.556,1.981917 -3.768,0 -11.621,-0.59284 -20.557,-1.981917 -3.208,-0.498332 -6.836,-1.467214 -9.718,0 -3.656,1.85876 -0.96,6.991506 4.794,11.49559 3.479,2.72173 14.235638,7.77032 25.48,7.77032 11.244362,0 22.003,-5.04859 25.482,-7.77031 5.755,-4.504094 8.44,-9.63684 4.794,-11.4956 z"
     id="path110"
     fill="#ed6c30"
     stroke-width="0.868"
     sodipodi:nodetypes="ccsccczcc" />
  <path
     id="path10651"
     style="fill:#ffffff;fill-opacity:1"
     class="st3"
     d="m 89.865234,84.77148 c -0.06416,0.001 -0.130235,0.005 -0.201172,0.0117 -1.544489,0.15668 -3.094901,1.40049 -6.216796,2.47461 -3.121895,1.07413 -4.549331,1.41724 -7.261719,2.44336 -2.767909,0.95234 -2.527344,2.54461 -2.527344,2.9043 0,0 0.414071,-0.0852 0.617188,-0.13281 l 10.554687,-3.69532 c 2.139781,-1.02571 3.827983,-2.03923 4.861328,-2.84765 0.382013,-0.29898 0.747558,-0.60092 1.101563,-0.9043 -0.177208,-0.13519 -0.46702,-0.26232 -0.927735,-0.25391 z"
     sodipodi:nodetypes="ccscsccccc" />
  <path
     class="st3"
     d="m 73.658203,92.60547 c 0,1.18646 7.687859,1.61302 7.687859,4.4736 0,2.20001 -0.3,3.24992 0,5.44991 0.4,2.4 2.1,2.9 3.3,2.7 2.9,-0.5 1.9,-5.39999 2.3,-10.8 0.3,-4.1 3.846907,-7.6898 3.846907,-9.40359 z"
     id="path10653"
     style="fill:#ffffff;fill-opacity:1"
     sodipodi:nodetypes="csccccc" />
  <g
     id="g27173"
     transform="matrix(1,0,0,-1,0.66019766,113.55939)">
    <path
       d="m 80.094803,65.037544 c 7.67,0 14.99,-3.84 19.31,-10.47 0.829997,-1.27 0.47,-2.98 -0.8,-3.8 -1.27,-0.83 -2.98,-0.47 -3.8,0.81 -4.08,6.27 -11.71,9.26 -18.97,7.44 -1.47,-0.37 -2.97,0.52 -3.34,2 -0.37,1.47 0.52,2.97 2,3.34 1.85,0.45 3.74,0.68 5.6,0.68 z"
       style="fill:#2f2f2f"
       id="path27001"
       sodipodi:nodetypes="sccccccs" />
    <path
       d="m 46.574803,65.037544 c 1.86,0 3.75,-0.23 5.61,-0.7 1.47,-0.37 2.37,-1.86 2,-3.34 -0.37,-1.47 -1.87,-2.37 -3.34,-2 -7.26,1.82 -14.89,-1.17 -18.97,-7.44 -0.83,-1.27 -2.53,-1.63 -3.8,-0.81 -1.27,0.83 -1.63,2.53 -0.8,3.8 4.3,6.65 11.63,10.49 19.3,10.49 z"
       style="fill:#2f2f2f"
       id="path27003"
       sodipodi:nodetypes="sccccccs" />
  </g>
</svg>
