<?xml version="1.0" encoding="UTF-8" standalone="no"?>
<svg
   width="128"
   height="128"
   version="1.1"
   id="svg9215"
   sodipodi:docname="emoji_u1f632.svg"
   xml:space="preserve"
   inkscape:version="1.2.2 (732a01da63, 2022-12-09)"
   xmlns:inkscape="http://www.inkscape.org/namespaces/inkscape"
   xmlns:sodipodi="http://sodipodi.sourceforge.net/DTD/sodipodi-0.dtd"
   xmlns="http://www.w3.org/2000/svg"
   xmlns:svg="http://www.w3.org/2000/svg"><defs
     id="defs9219" /><sodipodi:namedview
     id="namedview9217"
     pagecolor="#ffffff"
     bordercolor="#000000"
     borderopacity="0.25"
     inkscape:showpageshadow="2"
     inkscape:pageopacity="0.0"
     inkscape:pagecheckerboard="0"
     inkscape:deskcolor="#d1d1d1"
     showgrid="false"
     inkscape:zoom="4.2421875"
     inkscape:cx="54.688766"
     inkscape:cy="72.132597"
     inkscape:window-width="1366"
     inkscape:window-height="697"
     inkscape:window-x="-8"
     inkscape:window-y="-8"
     inkscape:window-maximized="1"
     inkscape:current-layer="svg9215" /><path
     d="M64 9.56C1.59 9.56.12 79.52.12 93.36c0 13.86 28.59 25.08 63.88 25.08 35.28 0 63.88-11.22 63.88-25.08 0-13.84-1.48-83.8-63.88-83.8z"
     fill="#fcc21b"
     id="path9205" /><g
     fill="#2f2f2f"
     id="g9209"><path
       d="M42.005 61.282c-4.49.04-8.17-4.27-8.22-9.62-.05-5.37 3.55-9.75 8.04-9.79 4.48-.04 8.17 4.27 8.22 9.64.05 5.36-3.55 9.73-8.04 9.77zM86.115 61.282c4.48-.01 8.11-4.36 8.1-9.71-.01-5.37-3.66-9.7-8.14-9.69-4.49.01-8.13 4.36-8.12 9.73.02 5.35 3.67 9.68 8.16 9.67z"
       id="path9207" /></g><path
     d="M86.09 29.984s8.703-.193 14.61 4.65M41.91 29.984s-8.703-.193-14.61 4.65"
     fill="none"
     fill-rule="evenodd"
     stroke="#7b4600"
     stroke-width="3.78"
     stroke-linecap="round"
     stroke-linejoin="round"
     id="path9211"
     style="fill:none;fill-opacity:1;stroke:#e28100;stroke-opacity:1" /><path
     d="m 74.618452,90.332 c 0,5.9755 -2.482971,12.496 -10.618455,12.496 -8.134033,0 -10.618455,-6.52 -10.618455,-12.496 0,-5.976 2.482971,-17.146 10.618455,-17.146 8.134033,0 10.618455,11.1705 10.618455,17.146 z"
     fill="#ed6c30"
     id="path9213"
     sodipodi:nodetypes="zszsz"
     style="stroke-width:0.999999" /></svg>
