<?xml version="1.0" encoding="UTF-8" standalone="no"?>
<svg
   width="128"
   height="128"
   id="svg14"
   version="1.1"
   sodipodi:docname="emoji_u1f923.svg"
   inkscape:version="1.2.2 (732a01da63, 2022-12-09)"
   xmlns:inkscape="http://www.inkscape.org/namespaces/inkscape"
   xmlns:sodipodi="http://sodipodi.sourceforge.net/DTD/sodipodi-0.dtd"
   xmlns="http://www.w3.org/2000/svg"
   xmlns:svg="http://www.w3.org/2000/svg">
  <defs
     id="defs12355" />
  <sodipodi:namedview
     id="namedview12353"
     pagecolor="#ffffff"
     bordercolor="#000000"
     borderopacity="0.25"
     inkscape:showpageshadow="2"
     inkscape:pageopacity="0.0"
     inkscape:pagecheckerboard="0"
     inkscape:deskcolor="#d1d1d1"
     showgrid="false"
     inkscape:zoom="4.2421875"
     inkscape:cx="37.127072"
     inkscape:cy="60.110497"
     inkscape:window-width="1366"
     inkscape:window-height="697"
     inkscape:window-x="-8"
     inkscape:window-y="-8"
     inkscape:window-maximized="1"
     inkscape:current-layer="svg14" />
  <style
     id="style2">.st1{fill:#2f2f2f}</style>
  <path
     d="M122.2 34.1c9.7 9.7-2.2 37.2-26.6 61.5-24.3 24.3-51.9 36.2-61.5 26.6-9.7-9.7-57.5-59.5-14.4-102.5 43-43.1 92.8 4.7 102.5 14.4"
     id="path4"
     fill="#fcc21b" />
  <g
     id="g10">
    <path
       class="st1"
       d="M32.3 75.6c.3-.3.6-.6.8-1.1 3.7-8.1 9.5-14.8 9.5-14.9.9-1 .9-2.4.2-3.6-.7-1.1-2.1-1.6-3.3-1.2-9.2 2.7-18.3 8.2-18.7 8.4-1.4.9-1.8 2.7-1 4.1.9 1.4 2.7 1.9 4.1 1 0 0 3.5-2.1 8.1-4.3-1.5 2.4-3 5.1-4.4 7.9-.7 1.5 0 3.3 1.5 4 1.1.6 2.3.4 3.2-.3z"
       id="path6" />
    <path
       class="st1"
       d="M75.4 32.1c-.3.3-.6.6-1.1.8-8 3.6-14.7 9.3-14.8 9.4-1 .9-2.4.9-3.5.2s-1.6-2.1-1.2-3.3c2.7-9.1 8.2-18.1 8.4-18.5.9-1.4 2.7-1.8 4.1-1 1.4.9 1.8 2.7 1 4.1 0 0-2.1 3.4-4.3 8 2.3-1.5 5-3 7.9-4.3 1.5-.7 3.3 0 3.9 1.5.5 1.1.3 2.3-.4 3.1z"
       id="path8" />
  </g>
  <path
     d="M94 40.6c-3.2-1.7-7.6-.2-11.1 3.4-3.7 3.8-7.6 10.6-10.7 14.6-1.6 2.1-3.4 4-5.1 5.9-1.9 1.8-3.8 3.5-5.9 5.1-4.1 3.1-10.9 7-14.7 10.6-3.6 3.4-5.2 7.8-3.5 11 2.8 5.4 12.2 8.1 21.6 6.9 8.5-1.1 15.4-3.6 21.9-8.2.8-.6 2-1.6 3.1-2.8 1.1-1.1 2.2-2.3 2.8-3.1 4.7-6.4 7.2-13.3 8.4-21.8 1.2-9.3-1.4-18.8-6.8-21.6z"
     id="path12"
     fill="#ed6c30" />
  <g
     transform="rotate(-45 52.134 68.915)"
     id="g40"
     fill="#fff"
     style="fill:#ffffff">
    <path
       d="M106.57 79.41c-1.38-2.21-2.93-6.97-3.17-8.49-.41-2.61-1.5-7.34-2.3-11.3-.22-1.07-.2-2.56 1.15-2.63 1.08-.03 2.77.61 3.76.95 2.92 1 5.98 2.69 8.51 4.4 4.62 3.17 7.76 8.25 7.14 13.99-.47 4.24-4.45 7.04-8.05 6.87-2.6-.1-5.76-1.73-7.04-3.79z"
       id="path36"
       style="fill:#ffffff;fill-opacity:1" />
    <path
       d="M21.43 79.41c1.38-2.21 2.93-6.97 3.17-8.49.41-2.61 1.5-7.34 2.3-11.3.22-1.07.2-2.56-1.15-2.63-1.08-.03-2.77.61-3.76.95-2.92 1-5.98 2.69-8.51 4.4-4.62 3.17-7.76 8.25-7.14 13.99.47 4.24 4.45 7.04 8.05 6.87 2.6-.1 5.76-1.73 7.04-3.79z"
       id="path38"
       style="fill:#ffffff;fill-opacity:1" />
  </g>
</svg>
