<?xml version="1.0" encoding="UTF-8" standalone="no"?>
<svg
   width="128"
   height="128"
   version="1.1"
   id="svg25480"
   sodipodi:docname="emoji_u1f616.svg"
   inkscape:version="1.2.2 (732a01da63, 2022-12-09)"
   xmlns:inkscape="http://www.inkscape.org/namespaces/inkscape"
   xmlns:sodipodi="http://sodipodi.sourceforge.net/DTD/sodipodi-0.dtd"
   xmlns="http://www.w3.org/2000/svg"
   xmlns:svg="http://www.w3.org/2000/svg">
  <defs
     id="defs25484" />
  <sodipodi:namedview
     id="namedview25482"
     pagecolor="#ffffff"
     bordercolor="#000000"
     borderopacity="0.25"
     inkscape:showpageshadow="2"
     inkscape:pageopacity="0.0"
     inkscape:pagecheckerboard="0"
     inkscape:deskcolor="#d1d1d1"
     showgrid="false"
     inkscape:zoom="4.2421875"
     inkscape:cx="37.362799"
     inkscape:cy="62.232044"
     inkscape:window-width="1366"
     inkscape:window-height="697"
     inkscape:window-x="-8"
     inkscape:window-y="-8"
     inkscape:window-maximized="1"
     inkscape:current-layer="svg25480" />
  <path
     d="M64 9.64C1.69 9.64.21 79.5.21 93.33c0 13.83 28.56 25.03 63.79 25.03 35.24 0 63.79-11.21 63.79-25.03 0-13.83-1.47-83.69-63.79-83.69z"
     fill="#fcc21b"
     id="path25470" />
  <g
     fill="#2f2f2f"
     id="g21297"
     transform="translate(-0.11,9.888609)">
    <path
       d="m 98.46,52 c -0.5,1.13 -1.7,1.72 -2.86,1.52 -0.21,-0.04 -0.42,-0.1 -0.61,-0.19 -7.83,-3.49 -18.47,-3.39 -18.57,-3.39 -1.21,0.02 -2.24,-0.78 -2.57,-1.92 -0.33,-1.15 0.16,-2.37 1.18,-2.98 9.01,-5.41 21.72,-7.26 22.25,-7.33 1.45,-0.2 2.78,0.8 2.98,2.24 0.2,1.44 -0.81,2.77 -2.24,2.98 -0.07,0.01 -5.28,0.76 -11.12,2.65 3.25,0.47 6.94,1.48 10.24,2.94 1.32,0.59 1.92,2.16 1.32,3.48 z m -68.7,0 c 0.5,1.13 1.7,1.72 2.86,1.52 0.21,-0.04 0.42,-0.1 0.61,-0.19 7.83,-3.49 18.47,-3.39 18.57,-3.39 1.21,0.02 2.24,-0.78 2.57,-1.92 0.33,-1.15 -0.16,-2.37 -1.18,-2.98 -9.01,-5.41 -21.72,-7.26 -22.25,-7.33 -1.45,-0.2 -2.78,0.8 -2.98,2.24 -0.2,1.44 0.81,2.77 2.24,2.98 0.07,0.01 5.28,0.76 11.12,2.65 -3.25,0.47 -6.94,1.48 -10.24,2.94 A 2.65,2.65 0 0 0 29.76,52 Z"
       id="path21295" />
  </g>
  <path
     style="font-variation-settings:'opsz' 12, 'wght' 400;fill:none;stroke:#2f2f2f;stroke-width:6;stroke-linecap:round;stroke-linejoin:round;stroke-dasharray:none;paint-order:stroke fill markers"
     d="m 36.150227,76.725601 8.601706,11.043938 9.473862,-11.043938 9.41895,11.043938 9.179419,-11.043938 9.82166,11.043938 9.203948,-11.043938"
     id="path25839"
     sodipodi:nodetypes="ccccccc" />
</svg>
