<?xml version="1.0" encoding="UTF-8" standalone="no"?>
<svg
   width="128"
   height="128"
   version="1.1"
   id="svg1453"
   sodipodi:docname="emoji_u1f62a.svg"
   inkscape:version="1.2.2 (732a01da63, 2022-12-09)"
   xmlns:inkscape="http://www.inkscape.org/namespaces/inkscape"
   xmlns:sodipodi="http://sodipodi.sourceforge.net/DTD/sodipodi-0.dtd"
   xmlns="http://www.w3.org/2000/svg"
   xmlns:svg="http://www.w3.org/2000/svg">
  <defs
     id="defs1457" />
  <sodipodi:namedview
     id="namedview1455"
     pagecolor="#ffffff"
     bordercolor="#000000"
     borderopacity="0.25"
     inkscape:showpageshadow="2"
     inkscape:pageopacity="0.0"
     inkscape:pagecheckerboard="0"
     inkscape:deskcolor="#d1d1d1"
     showgrid="false"
     inkscape:zoom="4.2421875"
     inkscape:cx="42.548803"
     inkscape:cy="64.353591"
     inkscape:window-width="1366"
     inkscape:window-height="697"
     inkscape:window-x="-8"
     inkscape:window-y="-8"
     inkscape:window-maximized="1"
     inkscape:current-layer="svg1453" />
  <path
     d="M64 9.56C1.59 9.56.12 79.52.12 93.36c0 13.86 28.59 25.08 63.88 25.08 35.28 0 63.88-11.22 63.88-25.08 0-13.84-1.48-83.8-63.88-83.8z"
     fill="#fcc21b"
     id="path1443" />
  <g
     fill="#2f2f2f"
     id="g1447"
     transform="translate(0,4)">
    <path
       d="m 96.16,45.13 c 0.78,-1.28 2.44,-1.7 3.73,-0.93 a 2.72,2.72 0 0 1 0.96,3.71 c -0.18,0.31 -4.6,7.62 -14.37,7.62 -9.78,0 -14.2,-7.31 -14.39,-7.62 a 2.735,2.735 0 0 1 2.36,-4.11 c 0.92,0 1.83,0.47 2.34,1.32 0.13,0.22 3.12,4.96 9.69,4.96 6.57,0 9.55,-4.74 9.68,-4.95 z M 28.12,44.18 c 0.43,-0.26 0.91,-0.38 1.37,-0.38 0.94,0 1.85,0.49 2.36,1.34 0.11,0.2 3.08,4.94 9.66,4.94 6.69,0 9.66,-4.89 9.69,-4.94 a 2.724,2.724 0 0 1 4.69,2.77 c -0.18,0.31 -4.6,7.62 -14.38,7.62 -9.77,0 -14.18,-7.31 -14.36,-7.62 -0.76,-1.29 -0.32,-2.97 0.97,-3.73 z"
       id="path1445" />
  </g>
  <path
     d="m 64,94.082127 c -11.32,0 -20.5,3.999694 -20.5,-1.934306 0,-5.933 6.469134,-17.530821 20.5,-17.530821 14.030866,0 20.5,11.597821 20.5,17.531321 0,5.9335 -9.18,1.933806 -20.5,1.933806 z"
     fill="#ed6c30"
     id="path1449"
     sodipodi:nodetypes="sszss" />
  <path
     d="m 100.35034,61.783065 c 9.50411,-1.254095 16.02523,4.019105 18.38338,8.911928 4.00675,8.324154 -2.61409,18.677277 -11.93111,19.095602 -3.91849,0.1871 -8.250016,-1.284983 -11.375987,-3.675795 -3.844361,-2.932693 -6.597016,-7.894355 -9.810358,-11.270086 -1.397949,-1.472965 -3.482518,-3.182453 -5.423232,-4.012927 -0.361843,-0.150032 -0.49952,-0.286826 -0.112083,-0.548942 6.596133,-4.350059 15.894615,-7.919066 20.26939,-8.498898 z"
     fill="#ffffff"
     id="path1451"
     style="stroke-width:1;fill:#ffffff;fill-opacity:1" />
</svg>
