<?xml version="1.0" encoding="UTF-8" standalone="no"?>
<svg
   width="128"
   height="128"
   version="1.1"
   id="svg27389"
   sodipodi:docname="emoji_u1f624.svg"
   inkscape:version="1.2.2 (732a01da63, 2022-12-09)"
   xmlns:inkscape="http://www.inkscape.org/namespaces/inkscape"
   xmlns:sodipodi="http://sodipodi.sourceforge.net/DTD/sodipodi-0.dtd"
   xmlns="http://www.w3.org/2000/svg"
   xmlns:svg="http://www.w3.org/2000/svg">
  <defs
     id="defs27393" />
  <sodipodi:namedview
     id="namedview27391"
     pagecolor="#ffffff"
     bordercolor="#000000"
     borderopacity="0.25"
     inkscape:showpageshadow="2"
     inkscape:pageopacity="0.0"
     inkscape:pagecheckerboard="0"
     inkscape:deskcolor="#d1d1d1"
     showgrid="false"
     inkscape:zoom="2.9996795"
     inkscape:cx="65.840366"
     inkscape:cy="82.342129"
     inkscape:window-width="1366"
     inkscape:window-height="697"
     inkscape:window-x="-8"
     inkscape:window-y="-8"
     inkscape:window-maximized="1"
     inkscape:current-layer="svg27389" />
  <path
     d="M64 9.64C1.69 9.64.21 79.5.21 93.33c0 13.83 28.56 25.03 63.79 25.03 35.24 0 63.79-11.21 63.79-25.03 0-13.83-1.47-83.69-63.79-83.69z"
     fill="#fcc21b"
     id="path27289" />
  <path
     d="M37.92 95.6c-3.29 5.74-10.63 7.77-16.45 4.53-.33-.19-.61-.43-.91-.64-3.63 2.2-8.29 2.49-12.26.29C2.5 96.54.46 89.24 3.74 83.51c.07-.13.18-.23.26-.35-1.91-3.49-2.04-7.82.09-11.53 3.28-5.74 10.66-7.76 16.45-4.53 2.38 1.33 4.08 3.35 5.09 5.64 8-2.09 21.07-10.5 27.49-16.84 0 0-9.53 15.02-19.64 23.52 5.69 3.28 7.69 10.49 4.44 16.18zM90.08 95.6c3.29 5.74 10.63 7.77 16.45 4.53.33-.19.61-.43.91-.64 3.63 2.2 8.29 2.49 12.26.29 5.8-3.24 7.84-10.54 4.56-16.27-.07-.13-.18-.23-.26-.35 1.91-3.49 2.04-7.82-.09-11.53-3.28-5.74-10.66-7.76-16.45-4.53-2.38 1.33-4.08 3.35-5.09 5.64-8-2.09-21.07-10.5-27.49-16.84 0 0 9.53 15.02 19.64 23.52-5.69 3.28-7.69 10.49-4.44 16.18z"
     fill="#fff"
     id="path27381" />
  <path
     d="m 42.87,83.817165 c -0.67,0 -1.35,-0.25 -1.88,-0.75 a 2.75,2.75 0 0 1 -0.12,-3.89 c 5.8,-6.18 14.24,-9.73 23.13,-9.73 8.9,0 17.33,3.55 23.13,9.73 a 2.76,2.76 0 0 1 -0.12,3.89 2.76,2.76 0 0 1 -3.89,-0.12 c -4.77,-5.08 -11.74,-7.99 -19.12,-7.99 -7.38,0 -14.35,2.91 -19.12,7.99 -0.55,0.58 -1.28,0.87 -2.01,0.87 z"
     fill="#2f2f2f"
     id="path27387" />
  <path
     d="m 55.521024,51.772518 c -0.17,0.26 -4.25,6.53 -13.16,6.53 -8.91,0 -12.99,-6.25 -13.16,-6.53 -0.81,-1.29 -0.44,-3 0.85,-3.81 1.28,-0.83 2.98,-0.44 3.81,0.84 0.09,0.15 2.71,3.97 8.5,3.97 5.81,0 8.47,-3.93 8.49,-3.96 0.82,-1.29 2.53,-1.68 3.81,-0.85 1.3,0.81 1.68,2.51 0.86,3.81 z m 43.699996,0.06 c -0.18,0.27 -4.329996,6.65 -13.399996,6.65 -9.09,0 -13.22,-6.4 -13.39,-6.65 -0.83,-1.32 -0.44,-3.05 0.86,-3.88 1.31,-0.83 3.05,-0.45 3.88,0.87 0.09,0.15 2.74,4.04 8.64,4.04 5.93,0 8.64,-4 8.66,-4.04 0.83,-1.32 2.569996,-1.7 3.879996,-0.87 1.31,0.84 1.7,2.56 0.87,3.88 z"
     style="fill:#2f2f2f"
     id="path28448"
     sodipodi:nodetypes="cscccsccccscccsccc" />
  <g
     id="g2434"
     transform="matrix(1,0,0,-1,-0.1991205,75.463865)">
    <path
       d="m 90.465611,44.712655 c 0,0 -8.4564,-2.066079 -12.908672,-8.272904"
       fill="none"
       fill-rule="evenodd"
       stroke="#7b4600"
       stroke-width="3.78"
       stroke-linecap="round"
       stroke-linejoin="round"
       id="path9211"
       style="fill:none;fill-opacity:1;stroke:#e28100;stroke-opacity:1"
       sodipodi:nodetypes="cc" />
    <path
       d="m 37.93263,44.712655 c 0,0 8.4564,-2.066079 12.908672,-8.272904"
       fill="none"
       fill-rule="evenodd"
       stroke="#7b4600"
       stroke-width="3.78"
       stroke-linecap="round"
       stroke-linejoin="round"
       id="path2430"
       style="fill:none;fill-opacity:1;stroke:#e28100;stroke-opacity:1"
       sodipodi:nodetypes="cc" />
  </g>
</svg>
