<?xml version="1.0" encoding="UTF-8" standalone="no"?>
<!DOCTYPE svg PUBLIC "-//W3C//DTD SVG 1.1//EN" "http://www.w3.org/Graphics/SVG/1.1/DTD/svg11.dtd">
<svg width="100%" height="100%" viewBox="0 0 534 534" version="1.1" xmlns="http://www.w3.org/2000/svg" xmlns:xlink="http://www.w3.org/1999/xlink" xml:space="preserve" xmlns:serif="http://www.serif.com/" style="fill-rule:evenodd;clip-rule:evenodd;stroke-linejoin:round;stroke-miterlimit:2;">
    <path id="path20" d="M265.792,36C6.167,36 0,327.083 0,384.708C0,442.333 119,489 265.792,489C412.625,489 531.583,442.292 531.583,384.708C531.583,327.083 525.458,36 265.792,36Z" style="fill:url(#_Linear1);fill-rule:nonzero;"/>
    <path id="path22" d="M401.917,406.083C389.042,412.217 372.833,408.167 358.5,406.083C318.583,400.279 283.5,400.042 266.667,400.042C249.833,400.042 214.75,400.279 174.833,406.083C160.5,408.167 144.292,412.217 131.417,406.083C115.083,398.312 127.125,370.45 152.833,351.621C168.375,340.242 205.375,318.154 266.667,318.154C327.958,318.154 364.958,340.237 380.5,351.621C406.208,370.45 418.208,398.312 401.917,406.083Z" style="fill:url(#_Linear2);fill-rule:nonzero;"/>
    <g id="g26">
        <path d="M410.743,274.768C409.107,279.513 404.407,282.553 399.409,282.102C398.534,282.018 397.659,281.852 396.784,281.56C362.993,269.935 318.868,274.185 318.493,274.227C313.451,274.727 308.909,271.81 307.118,267.227C305.326,262.602 306.951,257.352 310.909,254.435C346.368,228.727 398.409,216.393 400.576,215.935C406.534,214.56 412.409,218.227 413.784,224.143C415.118,230.018 411.451,235.935 405.576,237.31C405.284,237.352 383.951,242.393 360.368,252.352C374.034,253.143 389.701,255.977 403.909,260.81C409.659,262.81 412.701,269.06 410.743,274.768Z" style="fill:rgb(47,47,47);"/>
        <path d="M120.993,274.768C122.659,279.643 127.409,282.518 132.326,282.102C133.201,282.018 134.076,281.852 134.951,281.56C168.743,269.935 212.868,274.185 213.243,274.227C218.284,274.727 222.826,271.81 224.618,267.227C226.409,262.602 224.784,257.352 220.826,254.435C185.368,228.727 133.326,216.393 131.159,215.935C125.201,214.56 119.326,218.227 117.951,224.143C116.618,230.018 120.284,235.935 126.159,237.31C126.451,237.352 147.784,242.393 171.368,252.352C157.701,253.143 142.034,255.977 127.826,260.81C123.391,262.312 120.388,266.499 120.388,271.181C120.388,272.402 120.593,273.615 120.993,274.768Z" style="fill:rgb(47,47,47);"/>
    </g>
    <path d="M341.83,357.448C331.022,326.732 198.682,333.121 187.953,363.744C183.406,376.722 188.138,402.59 170.342,424.661C151.588,447.92 137.107,463.188 136.681,488.925C136.457,502.472 149.497,512.607 165.617,523.606C181.742,534.601 248.396,532.306 248.396,532.306C248.396,532.306 355.382,535.565 377.375,524.247C399.962,512.624 407.391,512.258 406.522,491.463C405.452,465.835 377.078,443.085 362.004,414.204C345.618,382.81 347.9,374.696 341.83,357.448Z" style="fill:rgb(111,160,59);"/>
    <path id="rect36" d="M251.454,459.042C252.273,457.656 251.812,455.866 250.426,455.048L246.676,452.834C245.29,452.016 243.5,452.477 242.682,453.863L240.597,457.394C239.779,458.78 240.24,460.57 241.626,461.388L245.375,463.602C246.762,464.42 248.552,463.959 249.37,462.573L251.454,459.042Z" style="fill:rgb(255,202,40);"/>
    <path id="rect38" d="M319.389,434.283C318.631,432.862 316.863,432.324 315.442,433.082L311.601,435.131C310.18,435.889 309.642,437.657 310.4,439.077L312.33,442.695C313.087,444.115 314.855,444.653 316.276,443.896L320.118,441.846C321.538,441.089 322.076,439.32 321.318,437.9L319.389,434.283Z" style="fill:rgb(252,194,27);"/>
    <path id="rect40" d="M277.431,412.205C278.266,410.829 277.826,409.034 276.45,408.199L275.709,407.749C274.333,406.914 272.538,407.353 271.703,408.73L271.342,409.325C270.507,410.701 270.946,412.496 272.322,413.331L273.063,413.781C274.439,414.616 276.235,414.176 277.07,412.8L277.431,412.205Z" style="fill:rgb(182,191,62);"/>
    <path id="rect42" d="M199.233,456.853C200.791,456.447 201.726,454.852 201.32,453.295L200.221,449.081C199.815,447.524 198.221,446.589 196.663,446.995L192.696,448.03C191.138,448.436 190.203,450.03 190.609,451.588L191.708,455.801C192.114,457.359 193.708,458.294 195.266,457.887L199.233,456.853Z" style="fill:rgb(204,215,97);"/>
    <path id="rect44" d="M215.591,408.598C217.145,408.173 218.09,406.56 217.702,404.997L217.135,402.717C216.747,401.155 215.17,400.231 213.617,400.656L211.866,401.135C210.313,401.56 209.368,403.173 209.756,404.735L210.323,407.016C210.711,408.578 212.287,409.501 213.841,409.077L215.591,408.598Z" style="fill:rgb(255,244,143);"/>
    <path id="rect46" d="M357.094,485.195C355.583,485.75 354.807,487.427 355.362,488.938L356.863,493.026C357.418,494.537 359.096,495.313 360.607,494.758L364.455,493.344C365.966,492.789 366.743,491.112 366.188,489.601L364.686,485.514C364.131,484.003 362.454,483.226 360.943,483.781L357.094,485.195Z" style="fill:rgb(78,52,46);"/>
    <path id="path48" d="M194.108,330.404L192.025,339.479C193.296,334.071 194.108,330.404 194.108,330.404ZM331.192,333.929C332.438,336.067 333.229,337.767 333.229,337.767C333.229,337.767 332.479,336.133 331.192,333.929Z" style="fill:url(#_Linear3);"/>
    <defs>
        <linearGradient id="_Linear1" x1="0" y1="0" x2="1" y2="0" gradientUnits="userSpaceOnUse" gradientTransform="matrix(2.77348e-14,452.943,-452.943,2.77348e-14,270.919,36.0382)"><stop offset="0" style="stop-color:rgb(111,161,58);stop-opacity:1"/><stop offset="0.52" style="stop-color:rgb(217,191,45);stop-opacity:1"/><stop offset="1" style="stop-color:rgb(255,202,40);stop-opacity:1"/></linearGradient>
        <linearGradient id="_Linear2" x1="0" y1="0" x2="1" y2="0" gradientUnits="userSpaceOnUse" gradientTransform="matrix(5.59077e-15,-91.3042,91.3042,5.59077e-15,259.842,409.058)"><stop offset="0" style="stop-color:rgb(237,108,48);stop-opacity:1"/><stop offset="1" style="stop-color:rgb(213,82,21);stop-opacity:1"/></linearGradient>
        <linearGradient id="_Linear3" x1="0" y1="0" x2="1" y2="0" gradientUnits="userSpaceOnUse" gradientTransform="matrix(4.90348,217.061,-217.061,4.90348,259.246,316.814)"><stop offset="0" style="stop-color:rgb(112,157,47);stop-opacity:0.06"/><stop offset="0.08" style="stop-color:rgb(108,157,47);stop-opacity:1"/><stop offset="1" style="stop-color:rgb(132,157,47);stop-opacity:1"/></linearGradient>
    </defs>
</svg>
