<?xml version="1.0" encoding="UTF-8" standalone="no"?>
<!-- Generator: Adobe Illustrator 24.1.2, SVG Export Plug-In . SVG Version: 6.00 Build 0)  -->

<svg
   version="1.1"
   id="Layer_1"
   x="0px"
   y="0px"
   viewBox="0 0 128 128"
   style="enable-background:new 0 0 128 128;"
   xml:space="preserve"
   sodipodi:docname="emoji_u1f9a7.svg"
   inkscape:version="1.2.2 (732a01da63, 2022-12-09)"
   xmlns:inkscape="http://www.inkscape.org/namespaces/inkscape"
   xmlns:sodipodi="http://sodipodi.sourceforge.net/DTD/sodipodi-0.dtd"
   xmlns="http://www.w3.org/2000/svg"
   xmlns:svg="http://www.w3.org/2000/svg"><defs
   id="defs24138" /><sodipodi:namedview
   id="namedview24136"
   pagecolor="#ffffff"
   bordercolor="#000000"
   borderopacity="0.25"
   inkscape:showpageshadow="2"
   inkscape:pageopacity="0.0"
   inkscape:pagecheckerboard="0"
   inkscape:deskcolor="#d1d1d1"
   showgrid="false"
   inkscape:zoom="2.1210938"
   inkscape:cx="45.259668"
   inkscape:cy="61.289133"
   inkscape:window-width="1366"
   inkscape:window-height="697"
   inkscape:window-x="-8"
   inkscape:window-y="-8"
   inkscape:window-maximized="1"
   inkscape:current-layer="Layer_1" />
<path
   style="fill:#6B4D42;"
   d="M19.8,92.7L7,92.8c0,0-3.4,7.4-1.6,9.2s5.8,1.2,9.5,1.1s6.1,0.2,6.9-0.8s0.1-7.9,0.1-7.9L19.8,92.7z"
   id="path24059" />
<path
   style="fill:#6B4D42;"
   d="M64.8,11.8c0,0-1.3,3.2-2.5,4.1s-6.2,4.6-4.5,7.1s6.9,2.1,6.9,2.1l11.4-9.5L64.8,11.8z"
   id="path24061" />
<path
   style="fill:#8d5e50;fill-opacity:1"
   d="M66.6,5.6c-1.8,1.04-2.82,3.04-2.6,5.1c0.2,3.6,3.2,5.9,8.4,7.7s10,5,13.5,6.3  c2.91,1.02,5.93,1.69,9,2c2.34,0.18,4.7,0.05,7-0.4c0,0-3.2,2.6-6.2,5.4c-2.05,2.02-3.86,4.27-5.4,6.7l-0.8,4.7  c0,0,12.2-0.6,12.3-1.1s11-21.5,11-21.5L66.6,5.6z"
   id="path24063" />
<path
   style="fill:#8D5E50;"
   d="M47,91.2c-0.1-0.3-2.5-4.1-1.4-8.6s4.5-9.2,5-10.2s0.3-14.2,0.3-14.2l40.7-8.9c0,0,1.9,10.3,4.3,15.8  s8.4,14.4,9.5,18.9c0.63,3.23,0.66,6.55,0.1,9.8l-18.2,8.7L77,117.2l-11.3,4.5c0,0-4.4-3.1-5.6-5.3c-0.8-1.5-0.2-4.1,0.9-4.5  s1.6,0.1,2.8,1.2c1.5,1.4,3.8,3.8,4.1,3.5s3.5-4.9,3.5-4.9c-0.72-0.69-1.53-1.3-2.4-1.8c-0.4,0-2.5,1.1-3.9,0.5s-1.5-2.6-1.5-2.6  l-11.1-1.1L47,91.2z"
   id="path24065" />
<path
   style="fill:#FF5D15;"
   d="M86.8,31.1c0,0-3-6.9-6.7-10.1c-2.78-2.32-6.28-3.59-9.9-3.6c-3.9,0.1-7.3,3-9,4.6  C59,24.2,55,31.1,55,31.1H86.8z"
   id="path24067" />
<linearGradient
   id="SVGID_1_"
   gradientUnits="userSpaceOnUse"
   x1="17.2175"
   y1="-2275.9907"
   x2="56.2577"
   y2="-2213.5105"
   gradientTransform="matrix(1 0 0 -1 0 -2176)">
	<stop
   offset="0"
   style="stop-color:#D47755"
   id="stop24069" />
	<stop
   offset="0.44"
   style="stop-color:#E66D37"
   id="stop24071" />
	<stop
   offset="0.89"
   style="stop-color:#FB6113"
   id="stop24073" />
</linearGradient>
<path
   style="fill:#ff5d15;fill-opacity:1"
   d="M52.4,35.1c-2.74,0.96-5.19,2.62-7.1,4.8c-3,3.3-5.6,11.2-5.9,12.6C38.9,54.8,35,59,27.1,67.7  c-6.6,7.2-10.9,11.4-14.2,15.4C10.5,86,6.3,90.8,7,92.8s4.3,3.4,7.9,3.6s6.2,0.1,7.3-0.8s5.3-5.1,8.2-6.8c6.1-3.7,19-11.7,22-20.7  c2.9-8.5,6.6-16.8,6.6-16.8L52.4,35.1z"
   id="path24076" />
<path
   style="fill:#FB6113;"
   d="M79.1,7.6c0,0-7-7.1-12.7-2.1S71,16,72.5,16.3s3.7,0.7,3.7,0.7s6.9,5.3,13.7,7  c6,1.5,12.7,0.2,14.9-0.4s3.7-1.3,3.9-0.2s-1.2,1.5-3.6,2.5S92.6,38.4,92.6,38.4L91.1,48c0,0,1.3,6.1,2.4,10.5  c0.71,2.88,1.75,5.66,3.1,8.3c0,0,2.1,0.5,5.3-1.9c5.3-3.9,4.3-14.8,4.3-14.8s3,1,5.1-1s7.6-19,8.3-21.7s2.4-7.2,0.8-8.6  c-3.19-2.89-6.88-5.16-10.9-6.7C105.8,10.8,96.8,9,91,8.2C86.5,7.8,79.1,7.6,79.1,7.6z"
   id="path24078" />
<radialGradient
   id="SVGID_2_"
   cx="-1961.5488"
   cy="-483.7426"
   r="24.43"
   gradientTransform="matrix(0.17 -0.99 2.42 0.41 1601.0701 -1740.2001)"
   gradientUnits="userSpaceOnUse">
	<stop
   offset="0.61"
   style="stop-color:#FB6113;stop-opacity:0"
   id="stop24080" />
	<stop
   offset="1"
   style="stop-color:#D47755"
   id="stop24082" />
</radialGradient>

<radialGradient
   id="SVGID_3_"
   cx="-1999.8588"
   cy="-466.7426"
   r="24.43"
   gradientTransform="matrix(0.17 -0.99 2.42 0.41 1527.99 -1767.91)"
   gradientUnits="userSpaceOnUse">
	<stop
   offset="0.61"
   style="stop-color:#FB6113;stop-opacity:0"
   id="stop24087" />
	<stop
   offset="1"
   style="stop-color:#D47755"
   id="stop24089" />
</radialGradient>

<linearGradient
   id="SVGID_4_"
   gradientUnits="userSpaceOnUse"
   x1="95.8597"
   y1="518.7105"
   x2="110.9297"
   y2="525.9705"
   gradientTransform="matrix(1 0 0 1 0 -482)">
	<stop
   offset="0.01"
   style="stop-color:#FB6113;stop-opacity:0"
   id="stop24094" />
	<stop
   offset="0.83"
   style="stop-color:#D47755"
   id="stop24096" />
</linearGradient>

<path
   style="fill:#50362D;"
   d="M53.7,50.8c0,0-5.7-4-4.9-10.7s5.6-9.9,8.1-11.5s7.3-3.1,9.6-4.1s3.1-2.8,4.2-2.8s3.1,2.5,6.3,3.8  s10,3.2,13.8,7.3s4.7,8.2,3.3,12.4S91,50.7,91,50.7s0.9,10-1.3,16.5C87.2,74.3,78.1,81.6,67.2,78c-3.78-1.09-7.09-3.41-9.4-6.6  c-4.1-5.4-3.8-12-4-15.1C53.62,54.47,53.59,52.63,53.7,50.8z"
   id="path24101" />
<path
   style="fill:#8D5F55;"
   d="M70.8,23.8c-2.84,1.85-5.82,3.49-8.9,4.9c-3.4,1.4-12.1,5.3-11,13.8c1,7.3,12.2,13.7,15,14.4  c2.8,0.7,13.3-1,14.8-2s11-5.2,11.7-12.4s-7.7-12.4-13.5-14.3C72.3,25.8,71.5,23.7,70.8,23.8z"
   id="path24103" />
<path
   style="fill:#BA957E;"
   d="M61.6,35.3c0.7,0.6,1.5-0.1,2.1-0.8s2-2.6,3.2-2.8c1.4-0.1,2.4,1.5,4.1,1.5s1.9-1.5,3.7-1.5  s3.1,2.5,3.4,3s0.9,1.4,1.7,0.8s0.1-1.4-0.1-1.7s-2.4-4-4.9-4.1s-2.4,1.4-3.8,1.4s-1.2-1.6-3.8-1.5s-4,2.3-4.5,3  S60.8,34.6,61.6,35.3z"
   id="path24105" />
<ellipse
   transform="matrix(0.0419 -0.9991 0.9991 0.0419 36.8194 108.8156)"
   style="fill:#010103;"
   cx="75.15"
   cy="35.21"
   rx="2.5"
   ry="1.7"
   id="ellipse24107" />
<ellipse
   transform="matrix(0.9961 -0.0882 0.0882 0.9961 -2.8415 6.0907)"
   style="fill:#010103;"
   cx="67.5"
   cy="35.2"
   rx="1.8"
   ry="2.5"
   id="ellipse24109" />
<path
   style="fill:#ff5d15;fill-opacity:1"
   d="M70.9,41c-1.6,0-6.6-0.2-8.5,3.8s-1.3,11.8-0.9,12.9c0.7,1.8,4.7,4.8,10.8,4.5s8.4-2.9,8.9-4.5  c0.5-1.4-0.5-12.5-2.5-14.5C75.7,40.1,70.9,41,70.9,41z"
   id="path24111" />
<path
   style="fill:#BA957E;"
   d="M70.6,39.2c-3.9,0-6.7,3.2-6.8,7.3c-0.1,5.3,0.4,6.8,2.8,8c2,1.1,7.6,0.9,9.7-0.5s2.3-5.7,2-8.3  S77.1,39.2,70.6,39.2z"
   id="path24113" />
<path
   style="fill:#543527;"
   d="M71,46.6c2.3,0,2.8,1.4,4.6,1.5s2.5-1.1,2.6,0.1s-1.4,1.7-2.7,1.8s-3-1.3-4.6-1.4s-2.4,1.6-4.4,1.5  s-3.2-1.3-2.6-2.1c0.6-0.8,1,0.5,2.6,0.4S68.5,46.6,71,46.6z"
   id="path24115" />
<path
   style="fill:#543527;"
   d="M67.9,42.7c0.42,0.61,1.2,0.86,1.9,0.6c0.5-0.2,0.5-1.1-0.2-1.9s-1.2-1-1.7-0.6S67,41.8,67.9,42.7z"
   id="path24117" />
<path
   style="fill:#543527;"
   d="M71.6,41.1c-0.51,0.55-0.59,1.36-0.2,2c0.3,0.4,1.2,0.3,1.8-0.6c0.5-0.7,0.7-1.4,0.2-1.8  S72.4,40,71.6,41.1z"
   id="path24119" />
<path
   style="fill:#ff5d15;fill-opacity:1"
   d="M56.7,93.1c-0.7-2.7-6.9-8-11.3-8.7c-5.1-0.8-9.4,3.5-10.3,5.2c-0.89,1.43-1.47,3.03-1.7,4.7  c-0.2,2,8.5,4.1,8.5,4.1L56.7,93.1z"
   id="path24121" />



<path
   id="path24123"
   style="fill:#ff5d15;fill-opacity:1"
   d="M 102.48828 87.695312 C 99.23635 87.687744 95.214844 89.041408 95.699219 90.300781 C 96.349989 90.472037 97.087517 90.647862 97.800781 90.814453 C 97.813555 90.850273 97.845749 90.8799 97.900391 90.900391 C 99.235716 91.472673 102.01758 91.683465 101.75195 93.089844 C 99.803583 93.162608 96.165615 92.484765 92.699219 92.099609 C 90.249221 91.88961 87.780388 92.099219 85.400391 92.699219 C 82.700393 93.599218 79.000779 96.399611 76.800781 98.099609 C 74.580783 99.829608 72.479998 101.69922 70.5 103.69922 L 74.091797 104.76953 L 76.5 108.30078 C 76.5 108.30078 74.600397 112.10039 80.900391 111.40039 C 87.200384 110.70039 89.499614 110.40078 94.099609 109.80078 C 98.989604 108.93078 103.70961 107.31 108.09961 105 C 110.49961 103.5 113.30039 101.0996 112.90039 96.599609 C 112.82056 94.03825 111.48345 91.783408 109.47266 90.445312 C 108.73011 89.58086 106.6641 87.776485 102.80078 87.699219 C 102.69766 87.696094 102.59318 87.695557 102.48828 87.695312 z " /><path
   style="fill:#ff5d15;fill-opacity:1"
   d="M33.1,96c-0.3,3.9,0.4,6.2,3.4,8.5s6.7,2.3,9.6,2.4s7.4,0.1,7.4,0.1s2.4-13.3,2.3-13.5  s-7.6-6.3-11.4-6.6S33.7,88,33.1,96z"
   id="path24129" />
<path
   style="fill:#6B4C42;"
   d="M50,101.3c-0.1,4.2,2.3,8,6.2,8.5s6.4,0,7.1-0.5c0.62-0.51,1.19-1.08,1.7-1.7  c-0.99-0.71-2.02-1.34-3.1-1.9c-1.6-0.8-3.6-0.8-3.1-1.7s2.8,0.3,3.5,0.7s3.2,2.4,3.2,2.4l0.7,0.4l2.4-2.9c0,0-3-1.9-4.2-2.6  s-4-1.8-3.5-2.5s2.9,0.7,4.2,1.4s4.8,3.4,4.8,3.4l1.8-1.8c0,0-2-2.2-3.8-3.8S62.7,96.9,63,96c0.5-1.5,4.8,0.6,5.9,1.5s4,3.9,4,3.9  s2.2-1.7,2.2-1.8s-3.1-5.6-6-6.8c-3.8-1.29-7.88-1.53-11.8-0.7C54.5,92.8,50.1,97.2,50,101.3z"
   id="path24131" />
<path
   style="fill:#6B4C42;"
   d="M79.7,119.4c-1.8,1.9-10.4,4.6-12.3,4s-6.2-4.9-6.1-5.5s3.5,2.5,6,2.1c1.94-0.35,3.76-1.17,5.3-2.4  c0.3-0.4,1.2-1.8-0.9-0.8s-4.8,2.4-5.8,1.8s-4.1-2.4-4.5-3.3s-0.6-3.7,0.7-3.5s3.3,2.2,3.3,2.2s4.3-1.7,4.4-2.8s-0.3-2.2-1.3-2.2  s-2,0.5-2.6,0c-0.43-0.37-0.83-0.77-1.2-1.2l4.4-3.7c1.5-1.19,3.54-1.46,5.3-0.7c2.7,1.1,5.8,4.1,6.4,6.8  C81.6,112.7,81.4,117.6,79.7,119.4z"
   id="path24133" />
</svg>
