<?xml version="1.0" encoding="UTF-8" standalone="no"?>
<svg
   width="100%"
   height="100%"
   viewBox="0 0 128 128"
   version="1.1"
   xml:space="preserve"
   style="fill-rule:evenodd;clip-rule:evenodd;stroke-linecap:round;stroke-linejoin:round;stroke-miterlimit:10;"
   id="svg34370"
   sodipodi:docname="face with spiral eyes.svg"
   inkscape:version="1.2.2 (732a01da63, 2022-12-09)"
   xmlns:inkscape="http://www.inkscape.org/namespaces/inkscape"
   xmlns:sodipodi="http://sodipodi.sourceforge.net/DTD/sodipodi-0.dtd"
   xmlns="http://www.w3.org/2000/svg"
   xmlns:svg="http://www.w3.org/2000/svg"><defs
   id="defs34374" /><sodipodi:namedview
   id="namedview34372"
   pagecolor="#ffffff"
   bordercolor="#000000"
   borderopacity="0.25"
   inkscape:showpageshadow="2"
   inkscape:pageopacity="0.0"
   inkscape:pagecheckerboard="0"
   inkscape:deskcolor="#d1d1d1"
   showgrid="false"
   inkscape:zoom="2.9996795"
   inkscape:cx="83.008867"
   inkscape:cy="66.34042"
   inkscape:window-width="1366"
   inkscape:window-height="697"
   inkscape:window-x="-8"
   inkscape:window-y="-8"
   inkscape:window-maximized="1"
   inkscape:current-layer="svg34370" />
    <g
   id="g4534"
   transform="matrix(1,0,0,1,0,-1.8)">
        <g
   transform="matrix(1,0,0,1,0,1.8)"
   id="g34359">
            <path
   d="M64.22,9.62C1.81,9.62 0.34,79.58 0.34,93.42C0.34,107.28 28.93,118.5 64.22,118.5C99.5,118.5 128.1,107.28 128.1,93.42C128.1,79.58 126.62,9.62 64.22,9.62Z"
   style="fill:rgb(252,194,27);fill-rule:nonzero;"
   id="path34357" />
        </g>
        <g
   transform="matrix(1,0,0,1,0,1.8)"
   id="g34363">
            <path
   d="m 82.45,53.852007 c -0.43,-2.8 1.84,-4.98 4.55,-5.48 2.71,-0.49 5.59,1.68 7.06,4.98 1.58,3.51 0.48,11.57 -7.54,13.48 -8.69,2.06 -13.93,-6.45 -14.75,-11.09 -0.84,-4.77 0.76,-13.37 10.55,-17.04 10.09,-3.79 17.41,3.42 20.2,8.24 m -61.26,2.5 c 1.55,2.37 0.39,5.3 -1.87,6.87 -2.26,1.57 -5.78,0.78 -8.49,-1.61 -2.89,-2.55 -5.23,-10.34 1.29,-15.39 7.06,-5.47 15.35,0.11 18.01,4 2.73,3.99 4.84,12.49 -2.55,19.88 -7.62,7.62 -17.27,4.1 -21.79,0.86"
   style="fill:none;fill-rule:nonzero;stroke:#2f2f2f;stroke-width:5px;fill-opacity:1"
   id="path34361" />
        </g>
        <g
   transform="matrix(1,0,0,1,0.403486,5.42264)"
   id="g34367">
            <path
   d="M22.943,81.268C24.464,80.045 26.144,78.684 28.075,78.191C31.22,77.388 34.671,79.255 37.073,81.109C41.078,84.201 45.758,88.552 51.345,87.416C57.206,86.225 60.386,78.866 66.658,78.966C69.929,79.019 72.496,81.765 74.929,83.603C77.83,85.794 81.281,87.109 84.91,86.423C87.755,85.885 90.524,84.442 92.675,82.507C94.143,81.186 94.808,79.116 96.414,77.955C100.159,75.247 103.647,77.17 104.25,79.206"
   style="fill:none;stroke:#2f2f2f;stroke-width:6px;stroke-miterlimit:1.5;stroke-opacity:1"
   id="path34365" />
        </g>
    </g>
</svg>
