<?xml version="1.0" encoding="UTF-8" standalone="no"?>
<!DOCTYPE svg PUBLIC "-//W3C//DTD SVG 1.1//EN" "http://www.w3.org/Graphics/SVG/1.1/DTD/svg11.dtd">
<svg width="100%" height="100%" viewBox="0 0 128 128" version="1.1" xmlns="http://www.w3.org/2000/svg" xmlns:xlink="http://www.w3.org/1999/xlink" xml:space="preserve" xmlns:serif="http://www.serif.com/" style="fill-rule:evenodd;clip-rule:evenodd;stroke-linecap:round;stroke-miterlimit:10;">
    <path d="M63.79,8.64C1.48,8.64 0,78.5 0,92.33C0,106.16 28.56,117.36 63.79,117.36C99.03,117.36 127.58,106.15 127.58,92.33C127.58,78.5 126.11,8.64 63.79,8.64Z" style="fill:rgb(252,194,27);fill-rule:nonzero;"/>
    <g transform="matrix(1.56339,0,0,1.56339,-49.8533,-30.6873)">
        <path d="M86.32,66.47C90.8,66.46 94.43,62.11 94.42,56.76C94.41,51.39 90.76,47.06 86.28,47.07C81.79,47.08 78.15,51.43 78.16,56.8C78.18,62.15 81.83,66.48 86.32,66.47Z" style="fill:white;"/>
    </g>
    <g transform="matrix(1,1.52656e-16,-1.52656e-16,1,0,1.29671)">
        <path d="M42.21,66.47C37.72,66.51 34.04,62.2 33.99,56.85C33.94,51.48 37.54,47.1 42.03,47.06C46.51,47.02 50.2,51.33 50.25,56.7C50.3,62.06 46.7,66.43 42.21,66.47Z" style="fill:rgb(47,47,47);"/>
    </g>
    <g transform="matrix(0.931894,0,0,0.931894,4.63855,5.16312)">
        <path d="M86.32,66.47C90.8,66.46 94.43,62.11 94.42,56.76C94.41,51.39 90.76,47.06 86.28,47.07C81.79,47.08 78.15,51.43 78.16,56.8C78.18,62.15 81.83,66.48 86.32,66.47Z" style="fill:rgb(47,47,47);"/>
    </g>
    <g transform="matrix(0.577597,0,0,0.268122,27.0338,63.9817)">
        <path d="M36.19,81.17C49.92,97.84 78.08,97.84 91.81,81.17" style="fill:none;fill-rule:nonzero;stroke:rgb(47,47,47);stroke-width:13.32px;"/>
    </g>
    <g transform="matrix(-0.0374117,-0.588119,-0.588119,0.0374117,95.8931,85.3518)">
        <g transform="matrix(0.237344,-0.92707,-0.92707,-0.237344,51.4941,66.5665)">
            <path d="M105.38,57.116C97.207,54.993 94.107,57.591 92.32,64.408C90.064,73.015 88.772,77.386 87.733,82.81C85.632,81.899 85.21,75.85 85.21,75.85C85.36,71.81 87.86,57.06 88.34,54.42C89.17,50.23 93.798,32.053 95.439,24.959C97.029,18.085 95.079,12.999 90.439,11.539C85.939,10.129 82.939,12.129 81.189,14.739C79.164,23.602 71.7,52.63 71.61,53.95C71.296,53.905 80.034,20.705 80.734,17.895C81.024,16.765 80.872,17.291 81.189,14.729C81.409,12.949 81.549,11.559 81.609,10.689C81.999,4.479 77.759,0.369 72.039,1.009C66.869,1.599 65.1,7.638 63.509,13.999C62.621,17.549 57.73,36.79 54.3,51.27C51.53,55.5 48.05,51.9 48.05,51.9C39.62,34.77 36.232,26.644 33.583,22.082C29.227,14.576 26.583,12.312 23.113,13.482C18.903,14.892 17.403,18.872 18.033,22.432C18.203,23.452 18.853,26.052 19.773,29.492C20.381,31.767 20.101,31.781 21.223,34.439C22.486,37.428 31.64,56.18 32.21,57.3C32.22,57.29 32.25,57.28 32.26,57.27C31.73,57.66 21.783,36.922 19.773,29.492C18.093,27.722 15.863,27.262 12.883,28.112C8.783,29.252 8.253,36.422 9.173,39.832C10.263,43.852 15.15,53.11 18.26,64.11C18.71,76.67 18.9,76.63 20.4,87.05C23.25,106.82 27.45,115.8 35.72,120.26C49.27,127.5 68.61,131.93 83.75,121.41C87.2,119.02 90.46,114.94 93.49,112C93.96,111.55 98.843,105.469 100.937,97.278C103.857,85.856 111.813,58.788 105.38,57.116Z" style="fill:rgb(252,194,27);fill-rule:nonzero;stroke:rgb(47,47,47);stroke-width:7.09px;stroke-linecap:butt;stroke-linejoin:round;stroke-miterlimit:2;"/>
        </g>
        <g transform="matrix(0.0906192,-0.451039,-0.451039,-0.0906192,171.993,253.113)">
            <path d="M304.392,422.333C306.825,424.5 309.15,421.792 309.15,421.792C309.15,421.792 348.071,378.458 350.617,376.508C354.204,373.754 361.921,369.383 369.95,377.258C373.283,380.525 378.804,387.858 369.217,400.133C367.158,402.779 306.525,469.917 302.971,473.537C302.971,473.537 274.904,502.229 257.783,513.2C253.025,516.258 247.675,519.475 241.392,521.8C235.142,524.121 228.037,525.783 220.508,525.979C212.996,526.258 205.158,524.988 197.708,522.479C190.275,519.95 183.287,516.146 176.942,511.725C175.375,510.6 173.808,509.471 172.317,508.258L168.025,504.917C165.1,502.567 162.283,500.083 159.579,497.483C154.308,492.471 149.437,487.054 145.012,481.283C140.717,475.633 137.546,469.492 134.108,463.917C128.175,454.3 125.392,441.983 124.225,432.483C121.612,411.083 130.362,389.008 130.362,389.008L134.375,381.583C148.408,360.692 182.037,324.779 182.037,324.779C192.892,312.025 204.483,312.871 209.204,316.092C222.804,325.363 219.162,337.908 209.546,349.279L177.683,384.042C176.067,387.804 180.879,391.938 183.983,389.292C193.712,380.95 214.137,358.154 214.137,358.154C223.312,348.925 274.887,293.333 278.358,289.942C285.317,283.133 294.246,279.483 301.217,284.35C308.333,289.313 310.5,297.221 303.958,306.075C302.183,308.471 250.079,366.337 250.079,366.337C247.029,369.692 250.833,374.212 254.187,370.954C254.187,370.954 319.021,299.871 321.954,296.542C328.571,288.979 339.467,287.083 346.104,292.996C352.587,298.771 352.679,308.537 345.95,316.358C343.8,318.837 298.158,369.517 279.875,390.246C278.642,391.629 277.721,393.467 279.625,395.162C279.637,395.175 281.571,397.167 283.933,394.517C288.892,388.95 338.529,334.592 341.3,331.65C347.646,324.896 356.292,321.567 363.467,327.804C370.029,333.496 371.317,343.7 364.121,351.108L304.037,417.863C304.037,417.863 302.108,420.3 304.392,422.333Z" style="fill:rgb(252,194,27);fill-rule:nonzero;stroke:rgb(47,47,47);stroke-width:14.75px;stroke-linecap:butt;stroke-miterlimit:4;"/>
        </g>
    </g>
</svg>
