<?xml version="1.0" encoding="UTF-8" standalone="no"?><!DOCTYPE svg PUBLIC "-//W3C//DTD SVG 1.1//EN" "http://www.w3.org/Graphics/SVG/1.1/DTD/svg11.dtd"><svg width="100%" height="100%" viewBox="0 0 534 534" version="1.1" xmlns="http://www.w3.org/2000/svg" xmlns:xlink="http://www.w3.org/1999/xlink" xml:space="preserve" xmlns:serif="http://www.serif.com/" style="fill-rule:evenodd;clip-rule:evenodd;stroke-linejoin:round;stroke-miterlimit:2;"><g><path d="M533.333,535.542l-266.666,0.083l-0,-167.292c-0,-51.166 38.25,-82.208 87.75,-90.75c32.125,-5.541 63.416,-3.5 92,3.25c46.791,11.125 86.916,40.125 86.916,87.5l0,167.209Z" style="fill:#e65619;fill-rule:nonzero;"/></g><g><path d="M0,535.542l266.667,0.083l-0,-167.292c-0,-51.166 -40.084,-82.208 -89.584,-90.75c-32.125,-5.541 -61.583,-3.5 -90.166,3.25c-46.792,11.125 -86.917,40.167 -86.917,87.5l-0,167.209Z" style="fill:#e7662b;fill-rule:nonzero;"/></g><path d="M139.417,308.833c-16.125,0 -29.167,-13.041 -29.167,-29.166l0,-26.75l58.333,-0l0,26.75c0,16.125 -13.083,29.166 -29.166,29.166Z" style="fill:#e59900;fill-rule:nonzero;"/><g><path d="M227.167,155.083c-0,0 16.083,2.792 16.083,20.125c0,15.292 -11.75,21.334 -23.5,21.334l0,-41.459l7.417,0Zm-175.542,0c0,0 -16.083,2.792 -16.083,20.125c-0,15.292 11.75,21.334 23.5,21.334l-0,-41.459l-7.417,0Z" style="fill:#e59600;fill-rule:nonzero;"/></g><path d="M139.417,41.583c-69.375,0 -87.5,53.75 -87.5,129.292c-0,78.333 50.333,98.583 87.5,98.583c36.625,0 87.5,-19.666 87.5,-98.583c-0,-75.5 -18.167,-129.292 -87.5,-129.292Z" style="fill:#fcc21b;fill-rule:nonzero;"/><path d="M110.583,177.917c0,7.791 -5.208,14.125 -11.666,14.125c-6.459,-0 -11.709,-6.334 -11.709,-14.125c0,-7.834 5.25,-14.125 11.709,-14.125c6.458,-0.042 11.666,6.291 11.666,14.125m57.625,-0c0,7.791 5.209,14.125 11.709,14.125c6.458,-0 11.708,-6.334 11.708,-14.125c0,-7.834 -5.25,-14.125 -11.708,-14.125c-6.5,-0.042 -11.709,6.291 -11.709,14.125" style="fill:#444;fill-rule:nonzero;"/><path d="M164.75,225.625l-50.667,0c-2.916,0 -4.166,1.958 -2.25,4.875c2.709,4.083 12.667,11.958 27.542,11.958c14.875,0 24.875,-7.875 27.542,-11.958c1.958,-2.917 0.708,-4.875 -2.167,-4.875Z" style="fill:#513f35;fill-rule:nonzero;"/><path d="M151.625,204.083c-4.292,1.209 -8.792,1.834 -12.25,1.834c-3.458,-0 -7.917,-0.584 -12.25,-1.834c-1.833,-0.541 -2.583,1.209 -1.917,2.375c1.375,2.417 6.875,7.25 14.125,7.25c7.25,0 12.792,-4.833 14.125,-7.25c0.75,-1.166 0.042,-2.916 -1.833,-2.375Z" style="fill:#e59600;fill-rule:nonzero;"/><path d="M0,404.667l34.125,-0l0,130.875l-34.125,-0l0,-130.875Zm500.583,-0l33.334,-0l-0,130.875l-33.334,-0l0,-130.875Z" style="fill:#fcc21b;fill-rule:nonzero;"/><path d="M394.5,308.833c-16.125,0 -29.167,-13.041 -29.167,-29.166l0,-24.917l58.334,0l-0,24.917c-0,16.125 -13.084,29.166 -29.167,29.166Z" style="fill:#e59900;fill-rule:nonzero;"/><g><ellipse cx="394.5" cy="139.104" rx="107.5" ry="108.562" style="fill:#6d4c41;"/></g><path d="M394.5,53.792c-66.083,-0 -83.375,51.25 -83.375,123.208c0,71.958 51.25,93.917 83.375,93.917c32.125,-0 83.375,-21.959 83.375,-93.917c0,-71.958 -17.292,-123.208 -83.375,-123.208Z" style="fill:#fcc21b;fill-rule:nonzero;"/><path d="M365.958,179.958c0,7.709 -5.166,13.959 -11.583,13.959c-6.375,-0 -11.583,-6.25 -11.583,-13.959c-0,-7.75 5.208,-14 11.583,-14c6.417,0 11.583,6.292 11.583,14m57.042,0c0,7.709 5.167,13.959 11.583,13.959c6.375,-0 11.584,-6.25 11.584,-13.959c-0,-7.75 -5.209,-14 -11.584,-14c-6.416,0 -11.583,6.292 -11.583,14" style="fill:#444;fill-rule:nonzero;"/><path d="M419.708,110.292c-8.791,8.458 -52.416,47.791 -112.583,58.041l0,-80.666c0,-0 25.958,-51.5 88.25,-51.5c62.292,-0 88.25,52.833 88.25,52.833l0,79.333c0,0 -40.833,-15.666 -61.333,-57.541c-0.246,-0.588 -0.825,-0.967 -1.459,-0.967c-0.421,0 -0.829,0.167 -1.125,0.467Z" style="fill:#6d4c41;fill-rule:nonzero;"/><path d="M419.542,227.208l-50.167,0c-2.875,0 -4.125,1.917 -2.208,4.834c2.666,4.041 12.541,11.833 27.25,11.833c14.708,0 24.625,-7.792 27.25,-11.833c2,-2.917 0.75,-4.834 -2.125,-4.834Z" style="fill:#4c3734;fill-rule:nonzero;"/><path d="M406.583,207.458c-4.25,1.209 -8.708,1.792 -12.125,1.792c-3.416,0 -7.833,-0.583 -12.125,-1.792c-1.833,-0.5 -2.541,1.209 -1.875,2.375c1.334,2.375 6.792,7.167 14,7.167c7.209,0 12.625,-4.792 14,-7.167c0.667,-1.166 -0.041,-2.916 -1.875,-2.375Z" style="fill:#e48c15;fill-rule:nonzero;"/><g><g><path d="M266.093,538l-179.667,0c-1.292,0 -0,-29.75 -0,-29.75c-0,-41 52.208,-54.75 70.333,-54.75l39.042,0c18.125,0 70.292,13.75 70.292,54.75l-0,1.167c-0,1.458 1.291,28.583 -0,28.583Z" style="fill:#f28d5e;fill-rule:nonzero;"/><path d="M176.218,484.583c-10.721,0 -19.542,-8.82 -19.542,-19.541l-0,-15l39.125,-0l-0,15c-0,10.791 -8.75,19.541 -19.583,19.541Z" style="fill:#e59900;fill-rule:nonzero;"/><g><ellipse cx="176.259" cy="365.105" rx="86.25" ry="88.396" style="fill:#6d4c41;"/></g><g><path d="M246.884,378c0,0 13.125,2.292 13.125,16.417c0,12.5 -9.583,17.416 -19.166,17.416l-0,-33.833l6.041,0Zm-141.25,0c0,0 -13.125,2.292 -13.125,16.417c0,12.5 9.584,17.416 19.167,17.416l-0,-33.833l-6.042,0Z" style="fill:#e59600;fill-rule:nonzero;"/></g><path d="M226.259,335.542c-11.958,-14.875 -32.541,-21.292 -50,-21.292c-17.416,0 -38.041,6.375 -50,21.292c-11.708,14.583 -17.833,33.375 -17.75,58.625c0.084,20.375 5.334,36 20.084,48.333c13.666,11.417 29.5,17.583 46.625,17.583c16.833,0 35.416,-5.875 48.583,-17.458c14.458,-12.708 20.042,-28.083 20.125,-48.417c0.167,-25.291 -6,-44.083 -17.667,-58.666Z" style="fill:#fcc21b;fill-rule:nonzero;"/><path d="M186.134,409.458c-3.5,1 -7.083,1.459 -9.875,1.459c-2.791,-0 -6.416,-0.5 -9.875,-1.459c-1.5,-0.416 -2.083,1 -1.541,1.917c1.125,1.958 5.541,5.875 11.416,5.875c5.875,0 10.334,-3.917 11.417,-5.875c0.542,-0.917 -0.042,-2.333 -1.542,-1.917Z" style="fill:#e59600;fill-rule:nonzero;"/><path d="M196.718,425.542l-40.917,-0c-2.333,-0 -3.375,1.583 -1.792,3.958c2.167,3.292 10.25,9.667 22.25,9.667c12.042,-0 20.084,-6.375 22.292,-9.667c1.542,-2.375 0.542,-3.958 -1.833,-3.958Z" style="fill:#513f35;fill-rule:nonzero;"/><g><path d="M149.176,394.75c-0,6.042 -4.042,10.917 -9.042,10.917c-5,-0 -9.041,-4.875 -9.041,-10.917c-0,-6.042 4.083,-10.958 9.041,-10.958c5,0.041 9.042,4.916 9.042,10.958m72.292,0c-0,6.042 -4.042,10.917 -9.042,10.917c-5,-0 -9.042,-4.875 -9.042,-10.917c0,-6.042 4.084,-10.958 9.042,-10.958c5,0.041 9.042,4.916 9.042,10.958" style="fill:#444;fill-rule:nonzero;"/></g><g><path d="M104.801,377.5c-0,-0 19.667,-17.916 26.875,-23.936c0.458,-0.399 1.208,-0.072 1.125,0.508c-0.292,2.502 -0.5,5.222 -0.625,6.854c-0.042,0.762 0.75,1.378 1.625,1.233c14.125,-2.321 27.708,-7.434 31.333,-8.885c0.459,-0.181 0.917,0.145 0.917,0.544c-0.083,2.285 -0.042,4.461 -0,5.766c-0,0.726 0.75,1.27 1.583,1.161c12.959,-1.741 23.75,-6.347 27.334,-8.015c0.833,-0.399 1.75,-0.471 2.666,-0.181c6.709,2.103 14.875,6.238 17.834,7.761c0.666,0.326 1.5,0.145 1.875,-0.435c1.125,-1.777 2.708,-4.497 3.416,-5.803c0.209,-0.363 0.75,-0.435 1.042,-0.181c10.542,9.066 25.958,23.573 25.958,23.573l10.875,-30.391c0,-0 -17.625,-54.073 -78.833,-54.073c-61.208,-0 -84.417,57.736 -84.417,57.736l9.417,26.764Z" style="fill:#6d4c41;fill-rule:nonzero;"/></g></g><g><path d="M446.907,538l-179.666,0c-1.292,0 -0,-29.75 -0,-29.75c-0,-41 52.208,-54.75 70.333,-54.75l39.042,0c18.125,0 70.291,13.75 70.291,54.75l0,1.167c0,1.458 1.292,28.583 0,28.583Z" style="fill:#ff9365;fill-rule:nonzero;"/><path d="M357.032,484.583c-10.72,0 -19.541,-8.82 -19.541,-19.541l-0,-15l39.125,-0l-0,15c-0,10.791 -8.75,19.541 -19.584,19.541Z" style="fill:#e59900;fill-rule:nonzero;"/><g><ellipse cx="357.074" cy="365.105" rx="86.25" ry="88.396" style="fill:#6d4c41;"/></g><g><path d="M427.699,378c0,0 13.125,2.292 13.125,16.417c0,12.5 -9.583,17.416 -19.167,17.416l0,-33.833l6.042,0Zm-141.25,0c0,0 -13.125,2.292 -13.125,16.417c0,12.5 9.583,17.416 19.167,17.416l-0,-33.833l-6.042,0Z" style="fill:#e59600;fill-rule:nonzero;"/></g><path d="M407.074,335.542c-11.958,-14.875 -32.542,-21.292 -50,-21.292c-17.417,0 -38.042,6.375 -50,21.292c-11.708,14.583 -17.833,33.375 -17.75,58.625c0.083,20.375 5.333,36 20.083,48.333c13.667,11.417 29.5,17.583 46.625,17.583c16.834,0 35.417,-5.875 48.584,-17.458c14.458,-12.708 20.041,-28.083 20.125,-48.417c0.166,-25.291 -6,-44.083 -17.667,-58.666Z" style="fill:#fcc21b;fill-rule:nonzero;"/><path d="M366.949,409.458c-3.5,1 -7.083,1.459 -9.875,1.459c-2.792,-0 -6.417,-0.5 -9.875,-1.459c-1.5,-0.416 -2.083,1 -1.542,1.917c1.125,1.958 5.542,5.875 11.417,5.875c5.875,0 10.333,-3.917 11.417,-5.875c0.541,-0.917 -0.042,-2.333 -1.542,-1.917Z" style="fill:#e59600;fill-rule:nonzero;"/><path d="M377.532,425.542l-40.916,-0c-2.334,-0 -3.375,1.583 -1.792,3.958c2.167,3.292 10.25,9.667 22.25,9.667c12.042,-0 20.083,-6.375 22.292,-9.667c1.541,-2.375 0.541,-3.958 -1.834,-3.958Z" style="fill:#513f35;fill-rule:nonzero;"/><g><path d="M329.991,394.75c-0,6.042 -4.042,10.917 -9.042,10.917c-5,-0 -9.042,-4.875 -9.042,-10.917c0,-6.042 4.084,-10.958 9.042,-10.958c5,0.041 9.042,4.916 9.042,10.958m72.291,0c0,6.042 -4.041,10.917 -9.041,10.917c-5,-0 -9.042,-4.875 -9.042,-10.917c0,-6.042 4.083,-10.958 9.042,-10.958c5,0.041 9.041,4.916 9.041,10.958" style="fill:#444;fill-rule:nonzero;"/></g><g><path d="M285.616,377.5c-0,-0 19.666,-17.916 26.875,-23.936c0.458,-0.399 1.208,-0.072 1.125,0.508c-0.292,2.502 -0.5,5.222 -0.625,6.854c-0.042,0.762 0.75,1.378 1.625,1.233c14.125,-2.321 27.708,-7.434 31.333,-8.885c0.458,-0.181 0.917,0.145 0.917,0.544c-0.084,2.285 -0.042,4.461 -0,5.766c-0,0.726 0.75,1.27 1.583,1.161c12.958,-1.741 23.75,-6.347 27.333,-8.015c0.834,-0.399 1.75,-0.471 2.667,-0.181c6.708,2.103 14.875,6.238 17.833,7.761c0.667,0.326 1.5,0.145 1.875,-0.435c1.125,-1.777 2.709,-4.497 3.417,-5.803c0.208,-0.363 0.75,-0.435 1.042,-0.181c10.541,9.066 25.958,23.573 25.958,23.573l10.875,-30.391c0,-0 -17.625,-54.073 -78.833,-54.073c-61.209,-0 -84.417,57.736 -84.417,57.736l9.417,26.764Z" style="fill:#6d4c41;fill-rule:nonzero;"/></g></g></g><g><path d="M76.158,54.992c14.011,-11.12 33.629,-20.494 61.266,-21.042c-0,-0 1.317,-0.053 1.924,-0.053c0.547,-0 1.915,0.053 1.915,0.053c19.975,0.562 36.362,5.687 49.46,12.8c4.369,1.379 8.562,3.174 12.193,5.252c2.208,1.261 4.21,2.662 6.195,4.246c0.41,0.328 1.918,1.16 2.053,1.66c0.155,0.558 -1.154,-0.085 -1.735,-0.135c-0.832,-0.071 -1.674,-0.129 -2.508,-0.236l-0.273,-0.031c3.238,2.673 6.159,5.434 8.762,8.192c1.455,0.876 2.896,1.836 4.317,2.912c1.763,1.331 3.207,2.968 4.591,4.67c0.478,0.59 0.972,1.166 1.388,1.806c0.261,0.401 1.238,1.154 0.766,1.207c-0.882,0.102 -1.943,-0.365 -2.901,-0.671c2.632,3.704 4.673,7.218 6.15,10.287c5.199,10.82 8.237,21.301 9.897,30.886c3.134,4.193 5.684,8.762 6.153,13.252c0.073,0.694 -1.081,-0.882 -1.643,-1.283c-1.047,-0.753 -2.154,-1.407 -3.232,-2.109c0.578,6.714 0.525,12.794 0.171,17.992c1.985,2.416 4.934,5.572 5.282,8.757c0.028,0.289 -0.53,-0.242 -0.789,-0.371c-0.724,-0.359 -1.384,-0.696 -2.044,-1.177c-1,-0.724 -1.972,-1.508 -2.884,-2.35c-0.978,8.731 -2.637,13.949 -2.637,13.949c-0,-0 -1.149,-1.202 -3.339,-2.904c-2.359,-1.809 -4.935,-2.851 -4.935,-2.851c3.441,15.539 6.367,40.395 0,51.145c-10.362,-8.694 -24.468,-38.457 -28.318,-89.441c-3.522,3.083 -7.105,5.852 -10.197,7.164c0.224,0.935 0.446,1.867 0.741,2.743c0.337,1.003 0.736,1.991 1.224,2.927c0.262,0.494 1.413,1.524 0.86,1.437c-1.343,-0.202 -3.384,-2.263 -4.575,-2.999c-2.407,-1.494 -4.937,-2.735 -7.61,-3.572c-2.64,-0.166 -5.277,-0.418 -7.872,-0.865c0.972,3.255 1.761,6.574 2.047,9.955c0.101,1.202 0.225,4.699 -0.699,5.541c-0,0 -0.879,-1.179 -0.949,-1.283c-0.601,-0.859 -1.214,-1.713 -1.826,-2.561c-1.758,-2.427 -3.507,-4.836 -5.532,-7.055c-3.758,-4.122 -7.644,-8.017 -11.958,-11.345c-4.162,-1.89 -8.326,-3.769 -12.73,-5.123c-5.852,-1.805 -11.873,-2.052 -17.849,-3.142c-1.042,-0.194 -2.079,-0.435 -3.104,-0.713c-0.601,0.022 -1.202,0.047 -1.797,0.081c3.409,8.248 4.552,17.386 1.921,25.923c-1.171,3.792 -2.893,7.406 -5.148,10.664c-0.168,0.241 -1.783,2.603 -2.213,2.426c-1.23,-0.514 -3.083,-4.499 -3.855,-5.622c-2.896,-4.213 -5.971,-8.552 -9.622,-12.166c-6.717,-6.664 -14.813,-11.039 -23.126,-15.078c0.508,30.934 -8.953,72.724 -28.566,92.104c-5.058,-11.343 -4.28,-37.19 -0,-51.145c-0,0 -2.631,1.042 -4.929,2.851c-2.137,1.702 -3.347,2.904 -3.347,2.904c-0,-0 -3.715,-13.907 -3.769,-31.481c-0.988,0.87 -2.769,3.1 -3.892,3.277c-0.329,0.053 0.059,-0.666 0.095,-1c0.093,-0.8 0.222,-1.601 0.351,-2.395c0.301,-1.851 0.697,-3.688 1.219,-5.493c0.697,-2.427 1.691,-4.699 2.856,-6.884c1.185,-11.098 4.258,-22.668 10.75,-32.576c-1.322,-0.101 -2.606,-0.236 -3.819,-0.382c-1.556,-0.193 -3.114,-0.519 -4.586,-1.061c-0.191,-0.07 -1.207,-0.301 -1.272,-0.506c0,0 2.808,-1.359 3.238,-1.589c3.55,-1.885 7.052,-4.016 10.497,-6.094c1.801,-1.09 3.632,-2.309 5.44,-3.615c3.173,-4.032 6.937,-8.354 11.41,-12.617c-1.224,-0.972 -2.314,-2.165 -3.227,-3.651c-1.03,-1.688 -1.996,-3.631 -2.232,-5.622c-0.082,-0.677 0.385,-2.407 1.533,-2.185c3.047,0.584 4.42,4.987 7.723,5.734c0.837,0.189 2.019,-0.028 3.151,-0.323Z" style="fill:#6d4c41;fill-rule:nonzero;"/></g></svg>