<?xml version="1.0" encoding="UTF-8" standalone="no"?>
<!DOCTYPE svg PUBLIC "-//W3C//DTD SVG 1.1//EN" "http://www.w3.org/Graphics/SVG/1.1/DTD/svg11.dtd">
<svg width="100%" height="100%" viewBox="0 0 128 128" version="1.1" xmlns="http://www.w3.org/2000/svg" xmlns:xlink="http://www.w3.org/1999/xlink" xml:space="preserve" xmlns:serif="http://www.serif.com/" style="fill-rule:evenodd;clip-rule:evenodd;stroke-linejoin:round;stroke-miterlimit:2;">
    <g id="g39548">
        <path id="path39540" d="M30.13,73.39C33.37,85.87 27.05,89.95 23.76,91.88C20.47,93.81 18.33,94.45 14.24,95.87C12.14,96.6 10.15,97.81 8.45,99.51C2.68,105.28 2.5,114.43 8.03,119.96C13.56,125.49 22.71,125.31 28.48,119.54C30.18,117.84 31.39,115.86 32.12,113.75C33.54,109.65 34.19,107.52 36.11,104.23C38.04,100.94 42.12,94.62 54.6,97.86C66.44,100.93 72.3,99.44 77.45,94.29L81.09,90.65L81.07,90.63L123.36,46.41C123.99,45.78 124.27,44.61 123.57,43.92C122.87,43.22 121.62,43.67 121.06,44.16L78.1,85.27C77.42,85.92 76.35,85.91 75.69,85.24C75.03,84.58 75.02,83.51 75.66,82.83L116.78,39.84C117.39,39.22 117.69,38.04 116.99,37.34C116.29,36.64 115.05,37.06 114.48,37.57L71.51,78.68C70.83,79.33 69.76,79.32 69.1,78.65C68.44,77.99 68.43,76.92 69.07,76.24L110.19,33.25C110.78,32.64 111.11,31.45 110.41,30.75C109.71,30.05 108.49,30.44 107.91,30.98L64.93,72.1C64.25,72.75 63.18,72.74 62.52,72.07C61.86,71.41 61.85,70.34 62.49,69.66L103.61,26.67C104.17,26.08 104.53,24.87 103.83,24.17C103.13,23.47 101.92,23.83 101.33,24.39L58.34,65.51C57.66,66.16 56.59,66.15 55.93,65.48C55.27,64.82 55.26,63.75 55.9,63.07L97.01,20.08C97.55,19.5 97.94,18.27 97.24,17.58C96.54,16.88 95.35,17.21 94.74,17.8L51.75,58.92C51.07,59.57 50,59.56 49.34,58.89C48.68,58.23 48.67,57.16 49.31,56.48L90.42,13.5C90.93,12.93 91.35,11.69 90.65,10.99C89.95,10.29 88.77,10.6 88.15,11.2L45.17,52.34C44.49,52.99 43.42,52.98 42.76,52.31C42.1,51.65 42.09,50.58 42.73,49.9L83.83,6.92C84.32,6.36 84.76,5.11 84.07,4.41C83.37,3.71 82.21,3.99 81.58,4.62L37.36,46.91L37.34,46.89L33.7,50.53C28.55,55.7 27.05,61.55 30.13,73.39ZM21.75,106.25C23.51,108.01 23.51,110.87 21.75,112.64C19.99,114.4 17.13,114.4 15.36,112.64C13.6,110.88 13.6,108.02 15.36,106.25C17.12,104.49 19.98,104.49 21.75,106.25Z" style="fill:rgb(101,147,162);fill-rule:nonzero;"/>
    </g>
</svg>
