<?xml version="1.0" encoding="UTF-8" standalone="no"?>
<!DOCTYPE svg PUBLIC "-//W3C//DTD SVG 1.1//EN" "http://www.w3.org/Graphics/SVG/1.1/DTD/svg11.dtd">
<svg width="100%" height="100%" viewBox="0 0 128 128" version="1.1" xmlns="http://www.w3.org/2000/svg" xmlns:xlink="http://www.w3.org/1999/xlink" xml:space="preserve" xmlns:serif="http://www.serif.com/" style="fill-rule:evenodd;clip-rule:evenodd;stroke-linecap:round;stroke-linejoin:round;stroke-miterlimit:1.5;">
    <path d="M64,14.394C-5.279,14.394 0.12,79.52 0.12,93.36C0.12,107.22 28.71,118.44 64,118.44C99.28,118.44 127.88,107.22 127.88,93.36C127.88,79.52 133.279,14.394 64,14.394Z" style="fill:rgb(252,194,27);fill-rule:nonzero;"/>
    <g transform="matrix(1,0,0,1,0.00279806,4.8453)">
        <g>
            <g transform="matrix(1,0,0,0.839361,0,6.46804)">
                <path d="M96.16,52.36C96.93,51.097 98.618,50.671 99.89,51.43C101.152,52.179 101.59,53.873 100.85,55.14C98,60.048 91.99,62.76 86.48,62.76C80.873,62.76 75.079,60.017 72.09,55.14C71.848,54.724 71.719,54.246 71.719,53.765C71.719,52.283 72.968,51.032 74.45,51.03C75.397,51.03 76.302,51.537 76.79,52.35C78.711,55.601 82.845,57.31 86.48,57.31C90.169,57.316 94.163,55.587 96.16,52.36ZM28.12,51.42C28.531,51.171 29.01,51.04 29.49,51.04C30.448,51.04 31.358,51.559 31.85,52.38C32.288,53.176 33.019,53.881 33.699,54.472C35.863,56.352 38.657,57.32 41.51,57.32C45.157,57.32 49.256,55.62 51.2,52.38C51.691,51.584 52.582,51.088 53.517,51.088C54.995,51.088 56.241,52.334 56.241,53.812C56.241,54.279 56.119,54.743 55.89,55.15C53.038,60.061 47.022,62.77 41.51,62.77C35.999,62.77 30,60.058 27.15,55.15C26.402,53.871 26.843,52.173 28.12,51.42Z" style="fill:rgb(47,47,47);fill-rule:nonzero;"/>
            </g>
            <g transform="matrix(1.81558,0,0,1.85302,-48.2666,-82.8919)">
                <path d="M54.618,87.103C59.447,89.022 64.323,88.869 69.049,86.725" style="fill:none;stroke:rgb(47,47,47);stroke-width:2.73px;"/>
            </g>
        </g>
    </g>
    <g transform="matrix(1.14035,-0.199503,0.23568,1.34713,-3.75515,0.203258)">
        <path d="M34.9,12.819C30.159,14.885 27.451,17.756 25.516,22.661" style="fill:none;stroke:rgb(134,168,180);stroke-opacity:0.6;stroke-width:4.74px;"/>
    </g>
    <g transform="matrix(1.14035,-0.199503,0.23568,1.34713,-26.3989,2.82397)">
        <path d="M41.407,15.375C36.568,18.257 33.689,23.677 32.017,28.917" style="fill:none;stroke:rgb(134,168,180);stroke-opacity:0.6;stroke-width:4.74px;"/>
    </g>
</svg>
