<?xml version="1.0" encoding="UTF-8" standalone="no"?>
<svg
   width="100%"
   height="100%"
   viewBox="0 0 128 128"
   version="1.1"
   xml:space="preserve"
   style="fill-rule:evenodd;clip-rule:evenodd;stroke-linejoin:round;stroke-miterlimit:2;"
   id="svg1951"
   sodipodi:docname="headstone.svg"
   inkscape:version="1.2.2 (732a01da63, 2022-12-09)"
   xmlns:inkscape="http://www.inkscape.org/namespaces/inkscape"
   xmlns:sodipodi="http://sodipodi.sourceforge.net/DTD/sodipodi-0.dtd"
   xmlns="http://www.w3.org/2000/svg"
   xmlns:svg="http://www.w3.org/2000/svg"><defs
   id="defs1955" /><sodipodi:namedview
   id="namedview1953"
   pagecolor="#ffffff"
   bordercolor="#000000"
   borderopacity="0.25"
   inkscape:showpageshadow="2"
   inkscape:pageopacity="0.0"
   inkscape:pagecheckerboard="0"
   inkscape:deskcolor="#d1d1d1"
   showgrid="false"
   inkscape:zoom="2.9996795"
   inkscape:cx="13.334758"
   inkscape:cy="88.009402"
   inkscape:window-width="1366"
   inkscape:window-height="697"
   inkscape:window-x="-8"
   inkscape:window-y="-8"
   inkscape:window-maximized="1"
   inkscape:current-layer="svg1951" />
    <g
   id="g4534"
   transform="matrix(0.96837577,0,0,0.96837577,2.0234449,3.6672411)"
   style="stroke-width:1.03266">
        <path
   d="M 19.078,44.562551 C 19.069402,25.378055 31.02254,1.595 64,1.595 c 32.97746,0 44.84809,23.680352 44.857,42.967551 L 108.89,115.963 H 19.11 Z"
   style="fill:#86a8b4;stroke-width:1.03266"
   id="path1936"
   sodipodi:nodetypes="szsccs" />
    </g>
    <g
   transform="matrix(0.437556,0,0,0.437556,35.9964,20.693424)"
   id="g1941">
        <path
   d="m 64,6.11 c 31.15,0 60,20.52 60,57.89 0,18.907 -7.469,33.561 -18.906,43.392 4.972,0.657 7.646,2.562 7.646,3.578 0,0.55 -0.99,1.71 -3.73,2.64 -0.51,0.17 -0.93,0.56 -1.16,1.04 -0.23,0.49 -0.25,1.05 -0.06,1.56 0.08,0.22 0.12,0.39 0.12,0.52 0,2.29 -6.04,5.6 -15.49,5.6 -5.311,0 -9.541,-1.046 -12.23,-2.368 -5.229,1.278 -10.673,1.928 -16.19,1.928 -5.47,0 -10.869,-0.623 -16.058,-1.856 -2.697,1.292 -6.864,2.306 -12.062,2.306 -9.46,0 -15.49,-3.31 -15.49,-5.59 0,-0.14 0.04,-0.31 0.12,-0.53 0.19,-0.51 0.17,-1.07 -0.06,-1.56 -0.23,-0.49 -0.65,-0.86 -1.16,-1.04 -2.73,-0.93 -3.73,-2.09 -3.73,-2.65 0,-0.987 2.525,-2.793 7.229,-3.486 C 11.416,97.717 4,83.104 4,64 4,26.11 32.85,6.11 64,6.11 Z m 20.799,95.039 c -2.521,0.742 -5.321,0.516 -7.799,-0.819 -3.91,-2.1 -8.32,-3.29 -13,-3.29 -4.68,0 -9.09,1.19 -13,3.29 -2.376,1.283 -5.052,1.544 -7.496,0.905 l 0.376,9.255 c 0.03,0.85 0.6,1.63 1.42,1.87 4.149,1.254 6.051,3.131 6.07,4.332 4.071,0.791 8.301,1.198 12.63,1.198 4.431,0 8.766,-0.436 12.937,-1.284 0.124,-1.201 2.034,-2.979 6.063,-4.206 0.81,-0.25 1.38,-1.07 1.42,-1.92 z m 15.632,4.891 c 0.89,-0.688 1.757,-1.405 2.599,-2.15 C 114.13,94.07 120,80.27 120,64 120,47.65 114.13,33.83 103.03,24.04 92.86,15.06 78.99,10.11 64,10.11 48.93,10.11 35.07,14.99 24.96,23.85 13.86,33.58 8,47.46 8,64 c 0,16.46 5.86,30.32 16.96,40.07 0.888,0.781 1.805,1.53 2.75,2.249 0.22,-0.324 0.355,-0.712 0.37,-1.119 l 2.235,-57.932 c -0.456,0.416 -0.841,0.809 -1.115,1.122 -0.36,0.41 -0.57,0.64 -0.57,0.64 l -0.3,0.34 c -1.22,1.37 -3.32,1.5 -4.69,0.28 -1.04,-0.92 -1.36,-2.36 -0.93,-3.6 0,0 0.04,-0.11 0.11,-0.32 0.08,-0.21 0.17,-0.53 0.35,-0.91 0.33,-0.78 0.89,-1.87 1.82,-3.08 0.91,-1.21 2.25,-2.51 4.03,-3.54 0.9,-0.49 1.89,-0.96 2.97,-1.25 0.56,-0.13 1.04,-0.26 1.74,-0.34 0.3,-0.04 0.74,-0.09 0.87,-0.09 l 0.76,-0.04 c 1.14,0.02 2.28,0.18 3.37,0.47 1.08,0.28 2.07,0.75 2.97,1.25 1.78,1.03 3.12,2.33 4.03,3.54 0.47,0.6 0.84,1.18 1.13,1.7 0.29,0.5 0.53,1.01 0.72,1.44 0.11,0.22 0.16,0.38 0.2,0.5 l 0.2,0.6 c 0.57,1.77 -0.4,3.67 -2.17,4.24 -1.36,0.43 -2.81,-0.06 -3.66,-1.11 0,0 -0.06,-0.08 -0.18,-0.22 -0.06,-0.07 -0.13,-0.16 -0.21,-0.27 -0.09,-0.11 -0.18,-0.23 -0.26,-0.29 l -0.15,-0.15 1.24,30.534 C 48.194,72.732 55.72,69.07 64,69.07 c 8.423,0 16.066,3.79 21.697,9.954 L 86.96,47.925 c -0.166,0.167 -0.313,0.324 -0.44,0.465 -0.36,0.41 -0.57,0.64 -0.57,0.64 l -0.3,0.34 c -1.22,1.37 -3.32,1.5 -4.69,0.28 -1.04,-0.92 -1.36,-2.36 -0.93,-3.6 0,0 0.04,-0.11 0.11,-0.32 0.08,-0.21 0.17,-0.53 0.35,-0.91 0.33,-0.78 0.89,-1.87 1.82,-3.08 0.91,-1.21 2.25,-2.51 4.03,-3.54 0.9,-0.49 1.89,-0.96 2.97,-1.25 0.56,-0.13 1.04,-0.26 1.74,-0.34 0.3,-0.04 0.73,-0.09 0.87,-0.09 l 0.76,-0.04 c 1.14,0.02 2.28,0.18 3.37,0.47 1.08,0.28 2.07,0.75 2.97,1.25 1.78,1.03 3.12,2.33 4.03,3.54 0.47,0.6 0.84,1.18 1.13,1.7 0.29,0.5 0.53,1.01 0.72,1.44 0.11,0.22 0.16,0.38 0.2,0.5 l 0.2,0.6 c 0.57,1.77 -0.4,3.67 -2.17,4.24 -1.35,0.43 -2.8,-0.06 -3.65,-1.11 0,0 -0.06,-0.08 -0.18,-0.22 C 99.24,48.82 99.17,48.73 99.09,48.62 99,48.51 98.91,48.39 98.83,48.33 L 98.21,47.71 C 98.141,47.641 98.069,47.571 97.994,47.5 l 2.226,57.71 c 0.011,0.296 0.086,0.577 0.211,0.83 z M 48.37,22.74 c -5.96,0.93 -11.36,3.96 -15.12,8.09 -1.45,1.65 -4.24,0 -3,-2.1 2.54,-4.17 6.99,-7.64 12.38,-9.04 1.96,-0.51 3.93,-0.72 5.84,-0.63 2.44,0.15 2.22,3.36 0.04,3.66 -0.05,0.01 -0.09,0.01 -0.14,0.02 z m 31.26,0 c -0.05,-0.01 -0.09,-0.01 -0.14,-0.02 -2.18,-0.3 -2.4,-3.51 0.04,-3.66 1.91,-0.09 3.88,0.12 5.84,0.63 5.39,1.4 9.84,4.87 12.38,9.04 1.24,2.1 -1.55,3.75 -3,2.1 -3.76,-4.13 -9.16,-7.16 -15.12,-8.09 z"
   style="fill-opacity:0.5;fill-rule:nonzero"
   id="path1939" />
    </g>
    <g
   transform="matrix(1.23278,0,0,1.23278,-10.6194,-19.704867)"
   id="g1947"
   style="fill:#43545a;fill-opacity:1">
        <text
   x="34.952999"
   y="88.596115"
   style="font-weight:700;font-size:12px;font-family:ComicNeue-Bold, 'Comic Neue';fill:#43545a;fill-opacity:1"
   id="text1945">2017<tspan
   x="56.949001"
   y="88.596115"
   id="tspan1943"
   style="fill:#43545a;fill-opacity:1">-</tspan>2020</text>
    </g>
    <path
   d="m 18.322,124.82818 c -7.13,0 -12.918,-4.32564 -12.918,-12.09178 0,-7.76614 5.788,-12.09179 12.918,-12.09179 1.947,0 3.797091,0.39529 5.45,1.127 0.859158,0.38033 1.859959,0.3031 2.646,-0.19844 2.12605,-1.35656 4.704,-2.131368 7.469,-2.131368 3.095,0 5.955833,0.972258 8.218,2.634018 0.734948,0.53989 1.707226,0.68614 2.582,0.38191 1.332321,-0.46336 2.777,-0.70671 4.28,-0.70671 1.55,0 3.035748,0.26105 4.4,0.75819 1.029791,0.37526 2.195411,0.11321 2.929,-0.66085 2.684425,-2.832518 6.603,-4.61936 10.96,-4.61936 3.831,0 7.329343,1.375019 9.924,3.64682 0.64044,0.56074 1.523997,0.79819 2.383,0.62902 0.738106,-0.14536 1.506,-0.21529 2.291,-0.21529 1.721,0 3.354043,0.36869 4.797,1.04556 0.74811,0.35093 1.622328,0.35251 2.374,0.008 1.620415,-0.74177 3.447,-1.14571 5.371,-1.14571 0.775,0 1.534377,0.0655 2.27,0.19563 0.714382,0.12635 1.44764,-0.0301 2.041,-0.42309 2.25968,-1.496847 5.025,-2.362571 8.002,-2.362571 7.73,0 14.006,4.628271 14.006,13.110191 0,8.48192 -6.268,13.1102 -13.992,13.1102 z"
   style="fill:#bdcf46;stroke-width:1"
   id="path1949"
   sodipodi:nodetypes="szssssssssssssssssssszss" />
</svg>
