<?xml version="1.0" encoding="UTF-8" standalone="no"?>
<!DOCTYPE svg PUBLIC "-//W3C//DTD SVG 1.1//EN" "http://www.w3.org/Graphics/SVG/1.1/DTD/svg11.dtd">
<svg width="100%" height="100%" viewBox="0 0 128 128" version="1.1" xmlns="http://www.w3.org/2000/svg" xmlns:xlink="http://www.w3.org/1999/xlink" xml:space="preserve" xmlns:serif="http://www.serif.com/" style="fill-rule:evenodd;clip-rule:evenodd;stroke-linejoin:round;stroke-miterlimit:2;">
    <path id="a" d="M5.71,68.44C7.7,44.1 22.11,22.09 45.26,13.38C52.24,10.75 59.42,8.44 66.88,7.67C74.94,6.83 82.71,8.33 90.72,8.83C95.98,9.16 102.34,9.24 107.57,8.97C117.88,8.43 130.06,22.4 126.7,33.16C123.68,42.81 124.56,48.32 123.17,60.32C120.35,84.66 99.43,110.61 72.17,117.25C64.3,119.17 58.07,120.84 49.97,120.54C42.42,120.25 33.47,118.13 26,117.26C22.71,116.87 19.39,117.43 16.1,116.93C11.74,116.27 8.36,113.72 5.62,110.23C2.77,106.59 0.77,101.91 0.76,97.18C0.76,92.58 2.78,88.3 3.42,83.79C4.23,78 5.23,74.27 5.71,68.44Z" style="fill:rgb(189,207,70);fill-rule:nonzero;"/>
    <clipPath id="_clip1">
        <path d="M5.71,68.44C7.7,44.1 22.11,22.09 45.26,13.38C52.24,10.75 59.42,8.44 66.88,7.67C74.94,6.83 82.71,8.33 90.72,8.83C95.98,9.16 102.34,9.24 107.57,8.97C117.88,8.43 130.06,22.4 126.7,33.16C123.68,42.81 124.56,48.32 123.17,60.32C120.35,84.66 99.43,110.61 72.17,117.25C64.3,119.17 58.07,120.84 49.97,120.54C42.42,120.25 33.47,118.13 26,117.26C22.71,116.87 19.39,117.43 16.1,116.93C11.74,116.27 8.36,113.72 5.62,110.23C2.77,106.59 0.77,101.91 0.76,97.18C0.76,92.58 2.78,88.3 3.42,83.79C4.23,78 5.23,74.27 5.71,68.44Z"/>
    </clipPath>
    <g clip-path="url(#_clip1)">
        <path d="M123.97,50.91C123.97,50.91 120.4,78.36 88.57,97.02C56.53,115.81 38.82,108.46 27.88,109.52C16.95,110.58 14.43,113.22 4.66,108.91C4.66,108.91 8.19,119.69 17.01,121.45C25.83,123.21 64.98,129.21 78.74,124.62C92.5,120.03 119.3,106.98 124.6,78.41C128.96,54.83 123.97,50.91 123.97,50.91Z" style="fill:rgb(165,169,54);fill-rule:nonzero;"/>
    </g>
    <path d="M35.47,36.33C32.82,38.47 30.41,41.33 29.29,42.66C25.81,46.83 23.44,51.69 21.84,56.88C20.21,62.22 16.53,76.02 23.96,78.9C30.25,81.34 32.72,74.38 34.18,69.75C36.8,61.3 37.56,52.77 41.79,44.85C43.12,42.34 47.06,34.37 41.68,33.65C39.44,33.34 37.11,35 35.47,36.33Z" style="fill:white;fill-rule:nonzero;"/>
</svg>
