<?xml version="1.0" encoding="UTF-8" standalone="no"?><!DOCTYPE svg PUBLIC "-//W3C//DTD SVG 1.1//EN" "http://www.w3.org/Graphics/SVG/1.1/DTD/svg11.dtd"><svg width="100%" height="100%" viewBox="0 0 534 534" version="1.1" xmlns="http://www.w3.org/2000/svg" xmlns:xlink="http://www.w3.org/1999/xlink" xml:space="preserve" xmlns:serif="http://www.serif.com/" style="fill-rule:evenodd;clip-rule:evenodd;stroke-linejoin:round;stroke-miterlimit:2;"><g><g><path d="M309.89,301.331c-0.723,-1.251 -0.297,-2.847 0.948,-3.566l4.511,-2.604c1.245,-0.718 2.84,-0.29 3.562,0.961l111.25,192.69c0.722,1.251 0.296,2.847 -0.949,3.566l-4.511,2.604c-1.245,0.719 -2.839,0.29 -3.562,-0.961l-111.249,-192.69Z" style="fill:#e0e0e0;"/></g><g><path d="M397.388,452.883c-0.718,-1.245 -0.293,-2.841 0.952,-3.56l4.511,-2.604c1.245,-0.719 2.84,-0.289 3.558,0.955l23.754,41.143c0.718,1.244 0.293,2.84 -0.952,3.559l-4.511,2.604c-1.245,0.719 -2.84,0.289 -3.558,-0.955l-23.754,-41.142Z" style="fill:#ea7c71;"/></g><path d="M422.068,485.213c-4.672,2.697 -6.275,8.68 -3.578,13.353c2.698,4.672 8.681,6.275 13.353,3.578c4.672,-2.698 6.276,-8.681 3.578,-13.353c-2.697,-4.673 -8.681,-6.276 -13.353,-3.578Z" style="fill:#e0e0e0;"/><path d="M273.345,248.45c-1.435,-2.486 -0.583,-5.677 1.906,-7.115l9.021,-5.208c2.49,-1.437 5.68,-0.58 7.115,1.906l37.819,65.504c1.435,2.487 0.583,5.678 -1.906,7.115l-9.022,5.208c-2.489,1.438 -5.679,0.58 -7.114,-1.906l-37.819,-65.504Z" style="fill:#4c4c4c;"/></g><g><g><path d="M181.001,503.627l40.492,0.284c5.103,0.036 9.849,-2.685 12.401,-7.105c1.232,-2.133 1.888,-4.545 1.905,-7.008l0.024,-0.708c0.035,-5.103 -2.685,-9.849 -7.105,-12.401c-2.133,-1.231 -4.545,-1.888 -7.008,-1.905l-40.491,-0.284c-5.103,-0.035 -9.85,2.685 -12.402,7.106c-1.231,2.132 -1.887,4.544 -1.904,7.007l-0.024,0.708c-0.044,7.793 6.321,14.244 14.112,14.306Z" style="fill:#4568ad;fill-rule:nonzero;"/></g><g><path d="M235.808,487.908l-68.911,-0.459l-0.131,19.709l68.912,0.459l0.13,-19.709Z" style="fill:#4568ad;fill-rule:nonzero;"/></g><g><path d="M190.773,474.46l-23.83,-0.157l-0.106,15.999l23.831,0.157l0.105,-15.999Z" style="fill:#4568ad;fill-rule:nonzero;"/></g></g><g><path d="M166.932,474.912l46.44,0.398l1.757,-159.96l-51.658,0.39l3.461,159.172Z" style="fill:#818c9b;fill-rule:nonzero;"/></g><g><path d="M163.472,129.967l0.533,43.684l33.353,3.572l10.761,-86.05l-44.647,38.794Z" style="fill:#fadcbc;fill-rule:nonzero;"/></g><g><path d="M164.033,79.139l0.625,72.823l47.531,-0.05c22.088,-0.004 39.669,-18.507 38.575,-40.584l-1.345,-26.749c-1.215,-24.708 -23.542,-42.984 -47.985,-39.325l-9.726,1.474c-16.03,2.433 -27.82,16.219 -27.675,32.411Z" style="fill:#fadcbc;fill-rule:nonzero;"/></g><g><path d="M162.726,128.562l22.158,-4.128l1.024,-15.582c0.34,-5.246 3.56,-9.896 8.354,-12.052l5.427,17.123c5.126,-0.98 9.424,-4.543 11.286,-9.438l3.689,-9.745c1.6,-4.215 5.147,-7.403 9.51,-8.543l24.642,-6.414c0,-0 -0.497,-34.373 -34.495,-38.248c-5.877,-0.648 -11.67,-0.97 -17.226,-1.069c-25.831,-0.367 -45.951,22.319 -42.648,47.94c1.817,13.563 4.582,26.981 8.279,40.156Z" style="fill:#212121;fill-rule:nonzero;"/></g><g><path d="M231.982,101.551c0.069,3.225 2.324,5.797 5.001,5.713c2.677,-0.084 4.779,-2.742 4.668,-5.962c-0.069,-3.225 -2.324,-5.797 -5.001,-5.712c-2.682,0.043 -4.737,2.736 -4.668,5.961" style="fill:#c07b47;fill-rule:nonzero;"/></g><g><path d="M161.784,321.039l53.249,-1.543c10.182,-0.312 18.176,-8.795 17.914,-18.948l-12.455,-95.748c-2.394,-15.534 -8.005,-41.466 -29.27,-40.815l-18.406,0.532c-18.315,0.551 -25.315,22.399 -25.59,41.496l-4.431,97.122c0.3,10.118 8.871,18.2 18.989,17.904Z" style="fill:#00bfa5;fill-rule:nonzero;"/></g><g><path d="M224.478,282.067l24.159,-17.929l-36.275,-48.888l-24.159,17.925l36.275,48.892Z" style="fill:#fadcbc;fill-rule:nonzero;"/></g><g><path d="M239.624,258.069c-8.255,-1.641 -16.29,3.728 -17.931,11.983c-1.642,8.255 3.728,16.29 11.983,17.931c8.255,1.642 16.29,-3.728 17.931,-11.983c1.642,-8.255 -3.728,-16.29 -11.983,-17.931Z" style="fill:#fadcbc;"/></g><g><path d="M285.587,293.342l3.066,-29.925l-51.275,-5.25l-3.066,29.925l51.275,5.25Z" style="fill:#fadcbc;fill-rule:nonzero;"/></g><g><path d="M321.574,281.042l-0.083,0.958c-0.954,9.721 -9.225,17.217 -18.992,17.217c-0.629,-0 -1.258,-0.029 -1.883,-0.092l-10.75,-1.083c-9.721,-0.954 -17.217,-9.225 -17.217,-18.992c0,-0.629 0.029,-1.258 0.092,-1.883l0.083,-0.959c0.954,-9.721 9.225,-17.216 18.992,-17.216c0.629,-0 1.258,0.029 1.883,0.091l10.75,1.084c9.717,0.941 17.221,9.204 17.221,18.97c0,0.634 -0.033,1.271 -0.096,1.905Z" style="fill:#fadcbc;fill-rule:nonzero;"/></g><g><path d="M231.401,227.282l-36.599,29.839l-30.879,-37.869c-7.966,-9.793 -6.485,-24.404 3.286,-32.398l0.914,-0.726c9.794,-7.966 24.405,-6.485 32.398,3.286l30.88,37.868Z" style="fill:#04a287;fill-rule:nonzero;"/></g></svg>