<?xml version="1.0" encoding="UTF-8" standalone="no"?><!DOCTYPE svg PUBLIC "-//W3C//DTD SVG 1.1//EN" "http://www.w3.org/Graphics/SVG/1.1/DTD/svg11.dtd"><svg width="100%" height="100%" viewBox="0 0 534 534" version="1.1" xmlns="http://www.w3.org/2000/svg" xmlns:xlink="http://www.w3.org/1999/xlink" xml:space="preserve" xmlns:serif="http://www.serif.com/" style="fill-rule:evenodd;clip-rule:evenodd;stroke-linejoin:round;stroke-miterlimit:2;"><g><g><path d="M223.444,301.331c0.722,-1.251 0.296,-2.847 -0.949,-3.566l-4.511,-2.604c-1.244,-0.718 -2.839,-0.29 -3.561,0.961l-111.25,192.69c-0.722,1.251 -0.296,2.847 0.948,3.566l4.511,2.604c1.245,0.719 2.84,0.29 3.562,-0.961l111.25,-192.69Z" style="fill:#e0e0e0;"/></g><g><path d="M135.945,452.883c0.719,-1.245 0.293,-2.841 -0.952,-3.56l-4.511,-2.604c-1.245,-0.719 -2.839,-0.289 -3.558,0.955l-23.754,41.143c-0.718,1.244 -0.292,2.84 0.953,3.559l4.51,2.604c1.245,0.719 2.84,0.289 3.559,-0.955l23.753,-41.142Z" style="fill:#ea7c71;"/></g><path d="M111.265,485.213c4.672,2.697 6.276,8.68 3.578,13.353c-2.697,4.672 -8.681,6.275 -13.353,3.578c-4.672,-2.698 -6.275,-8.681 -3.578,-13.353c2.698,-4.673 8.681,-6.276 13.353,-3.578Z" style="fill:#e0e0e0;"/><path d="M259.988,248.45c1.436,-2.486 0.584,-5.677 -1.906,-7.115l-9.021,-5.208c-2.49,-1.437 -5.679,-0.58 -7.115,1.906l-37.819,65.504c-1.435,2.487 -0.583,5.678 1.907,7.115l9.021,5.208c2.49,1.438 5.679,0.58 7.115,-1.906l37.818,-65.504Z" style="fill:#4c4c4c;"/></g><g><g><path d="M352.332,503.627l-40.491,0.284c-5.104,0.036 -9.85,-2.685 -12.402,-7.105c-1.231,-2.133 -1.887,-4.545 -1.905,-7.008l-0.023,-0.708c-0.036,-5.103 2.684,-9.849 7.105,-12.401c2.132,-1.231 4.544,-1.888 7.007,-1.905l40.491,-0.284c5.104,-0.035 9.85,2.685 12.402,7.106c1.231,2.132 1.888,4.544 1.905,7.007l0.024,0.708c0.044,7.793 -6.321,14.244 -14.113,14.306Z" style="fill:#4568ad;fill-rule:nonzero;"/></g><g><path d="M297.525,487.908l68.912,-0.459l0.13,19.709l-68.911,0.459l-0.131,-19.709Z" style="fill:#4568ad;fill-rule:nonzero;"/></g><g><path d="M342.56,474.46l23.831,-0.157l0.105,15.999l-23.831,0.157l-0.105,-15.999Z" style="fill:#4568ad;fill-rule:nonzero;"/></g></g><g><path d="M366.401,474.912l-46.439,0.398l-1.757,-159.96l51.657,0.39l-3.461,159.172Z" style="fill:#42ade7;fill-rule:nonzero;"/></g><g><path d="M369.861,129.967l-0.532,43.684l-33.353,3.572l-10.762,-86.05l44.647,38.794Z" style="fill:#e0bb95;fill-rule:nonzero;"/></g><g><g><path d="M369.301,79.139l-0.625,72.823l-47.531,-0.05c-22.089,-0.004 -39.669,-18.507 -38.575,-40.584l1.345,-26.749c1.214,-24.708 23.542,-42.984 47.985,-39.325l9.725,1.473c16.03,2.434 27.82,16.22 27.676,32.412Z" style="fill:#e0bb95;fill-rule:nonzero;"/></g><g><path d="M301.352,101.551c-0.07,3.225 -2.324,5.798 -5.002,5.713c-2.677,-0.084 -4.778,-2.742 -4.668,-5.962c0.069,-3.224 2.324,-5.797 5.001,-5.712c2.683,0.043 4.738,2.736 4.669,5.961" style="fill:#c07b47;fill-rule:nonzero;"/></g><g><path d="M374.631,142.664c-10.295,9.854 -14.357,-7.185 -20.954,-19.241c-3.664,-6.697 -11.33,-12.731 -11.472,-18.882c-0.247,-10.815 -2.466,-10.339 -7.051,-13.064c-0,-0 -5.84,12.09 -8.79,13.064c-2.951,0.973 -7.575,-2.098 -8.903,-7.225l-2.639,-10.208c-1.142,-4.421 -4.351,-8.033 -8.608,-9.69c0,-0 -31.838,-6.891 -26.595,-31.661c3.854,-18.207 8.223,3.305 41.519,-12.203c5.412,-2.522 15.443,-2.889 21.067,-2.327c26.041,2.552 43.383,24.947 35.77,49.958c-6.03,19.808 20.374,38.76 -3.344,61.479Z" style="fill:#bfa055;fill-rule:nonzero;"/></g></g><g><path d="M371.549,321.039l-53.248,-1.543c-10.183,-0.312 -18.177,-8.795 -17.915,-18.948l12.456,-95.748c2.394,-15.534 8.005,-41.466 29.269,-40.815l18.406,0.532c18.315,0.551 25.316,22.399 25.591,41.496l4.43,97.122c-0.299,10.118 -8.871,18.2 -18.989,17.904Z" style="fill:#da4105;fill-rule:nonzero;"/></g><g><path d="M308.855,282.067l-24.158,-17.929l36.275,-48.888l24.158,17.925l-36.275,48.892Z" style="fill:#e0bb95;fill-rule:nonzero;"/></g><g><path d="M293.709,258.069c8.255,-1.641 16.29,3.728 17.932,11.983c1.641,8.255 -3.728,16.29 -11.984,17.931c-8.255,1.642 -16.289,-3.728 -17.931,-11.983c-1.641,-8.255 3.728,-16.29 11.983,-17.931Z" style="fill:#e0bb95;"/></g><g><path d="M247.747,293.342l-3.067,-29.925l51.275,-5.25l3.067,29.925l-51.275,5.25Z" style="fill:#e0bb95;fill-rule:nonzero;"/></g><g><path d="M211.759,281.042l0.083,0.958c0.955,9.721 9.225,17.217 18.992,17.217c0.629,-0 1.258,-0.029 1.884,-0.092l10.75,-1.083c9.72,-0.954 17.216,-9.225 17.216,-18.992c0,-0.629 -0.029,-1.258 -0.091,-1.883l-0.084,-0.959c-0.954,-9.721 -9.225,-17.216 -18.991,-17.216c-0.63,-0 -1.259,0.029 -1.884,0.091l-10.75,1.084c-9.716,0.941 -17.221,9.204 -17.221,18.97c0,0.634 0.034,1.271 0.096,1.905Z" style="fill:#e0bb95;fill-rule:nonzero;"/></g><g><path d="M301.932,227.282l36.599,29.839l30.879,-37.869c7.967,-9.793 6.486,-24.404 -3.286,-32.398l-0.914,-0.726c-9.794,-7.966 -24.404,-6.485 -32.398,3.286l-30.88,37.868Z" style="fill:#a23004;fill-rule:nonzero;"/></g></svg>