<?xml version="1.0" encoding="UTF-8" standalone="no"?><!DOCTYPE svg PUBLIC "-//W3C//DTD SVG 1.1//EN" "http://www.w3.org/Graphics/SVG/1.1/DTD/svg11.dtd"><svg width="100%" height="100%" viewBox="0 0 534 534" version="1.1" xmlns="http://www.w3.org/2000/svg" xmlns:xlink="http://www.w3.org/1999/xlink" xml:space="preserve" xmlns:serif="http://www.serif.com/" style="fill-rule:evenodd;clip-rule:evenodd;stroke-linejoin:round;stroke-miterlimit:2;"><g><path d="M328.304,476.893l47.677,-41.532l-75.558,-109.263l-65.102,46.006l92.983,104.789Z" style="fill:#1d8cc8;fill-rule:nonzero;"/></g><g><g><path d="M375.281,433.581c-10.455,-14.06 -30.359,-16.986 -44.418,-6.531c-14.06,10.455 -16.987,30.358 -6.532,44.418c10.455,14.06 30.358,16.986 44.418,6.531c14.06,-10.455 16.987,-30.358 6.532,-44.418Z" style="fill:#42ade7;"/></g><g><path d="M201.614,406.723l-7.294,54.361l154.64,23.54l3.984,-63.685l-151.33,-14.216Z" style="fill:#42ade7;fill-rule:nonzero;"/></g></g><g><path d="M164.76,419.314l-6.3,47.097c-1.142,8.461 4.101,16.583 12.285,19.015c0.871,0.259 1.761,0.447 2.658,0.567c9.548,1.268 18.314,-5.394 19.582,-14.943l6.3,-47.096c1.267,-9.549 -5.394,-18.314 -14.943,-19.582c-9.467,-1.269 -18.302,5.473 -19.582,14.942Z" style="fill:#4568ad;fill-rule:nonzero;"/><path d="M175.12,486.265l10.927,-81.65l-23.334,-3.121l-10.927,81.65l23.334,3.121Z" style="fill:#4568ad;fill-rule:nonzero;"/><path d="M197.844,434.92l3.771,-28.195l-18.956,-2.535l-3.771,28.195l18.956,2.535Z" style="fill:#4568ad;fill-rule:nonzero;"/></g><g><path d="M245.565,144.053l-0.631,49.61l37.765,5.048l14.708,-97.471l-51.842,42.813Z" style="fill:#fadcbc;fill-rule:nonzero;"/></g><g><path d="M236.779,95.998l9.902,82.18l53.638,-6.068c24.951,-2.815 42.474,-25.921 38.445,-50.677l-4.903,-30.047c-4.514,-27.765 -31.988,-45.58 -59.171,-38.347l-10.776,2.864c-17.718,4.757 -29.319,21.843 -27.135,40.095Z" style="fill:#fadcbc;fill-rule:nonzero;"/></g><g><path d="M228.331,165.342c11.553,11.058 16.111,-8.063 23.514,-21.591c4.111,-7.514 12.713,-14.286 12.873,-21.188c0.276,-12.136 2.767,-11.602 7.912,-14.66c0,0 6.553,13.568 9.864,14.66c3.31,1.092 8.499,-2.355 9.989,-8.107l2.961,-11.455c1.282,-4.961 4.884,-9.015 9.66,-10.874c0,0 35.726,-7.732 29.843,-35.527c-4.325,-20.431 -9.227,3.709 -46.59,-13.693c-6.072,-2.83 -17.329,-3.243 -23.639,-2.612c-29.222,2.864 -48.682,27.994 -40.139,56.06c6.767,22.227 -22.863,43.493 3.752,68.987Z" style="fill:#212121;fill-rule:nonzero;"/></g><g><path d="M316.387,112.744c0.534,3.641 3.349,6.262 6.359,5.825c3.009,-0.437 5.048,-3.689 4.514,-7.329c-0.534,-3.641 -3.349,-6.262 -6.359,-5.825c-3.01,0.388 -5,3.689 -4.514,7.329" style="fill:#444;fill-rule:nonzero;"/></g><g><path d="M235.323,372.1l64.317,0c12.223,0 22.28,-10.057 22.28,-22.28l-11.65,-115.965c-2.33,-18.834 -8.203,-50.289 -33.881,-50.289l-22.232,0c-22.135,0 -31.358,26.164 -32.329,49.221l-8.737,117.081c-0.049,12.233 9.902,22.232 22.232,22.232Z" style="fill:#da4105;fill-rule:nonzero;"/></g><g><path d="M231.818,326.583l35.503,5.781l11.689,-71.812l-35.503,-5.776l-11.689,71.807Z" style="fill:#fadcbc;fill-rule:nonzero;"/></g><g><path d="M264.985,319.551c-5.462,-8.431 -16.742,-10.842 -25.174,-5.38c-8.432,5.462 -10.843,16.743 -5.381,25.174c5.463,8.432 16.743,10.843 25.175,5.381c8.432,-5.463 10.843,-16.743 5.38,-25.175Z" style="fill:#fadcbc;"/></g><g><path d="M283.815,286.279l-55.482,-10.048l10.291,-56.744c2.63,-13.121 14.261,-22.65 27.644,-22.65c15.47,0 28.197,12.728 28.197,28.198c0,1.505 -0.116,3.009 -0.359,4.5l-10.291,56.744Z" style="fill:#a23004;fill-rule:nonzero;"/></g><g><path d="M258.263,394.424l32.97,-14.382l-24.625,-56.464l-32.97,14.383l24.625,56.463Z" style="fill:#fadcbc;fill-rule:nonzero;"/></g><g><path d="M291.679,424.865c-2.971,1.31 -6.184,1.985 -9.427,1.985c-9.256,-0 -17.678,-5.5 -21.397,-13.975l-4.708,-10.728c-1.311,-2.97 -1.985,-6.184 -1.985,-9.426c-0,-9.257 5.499,-17.679 13.975,-21.397c2.97,-1.311 6.184,-1.986 9.426,-1.986c9.257,0 17.679,5.5 21.397,13.975l4.709,10.728c1.306,2.966 1.98,6.174 1.98,9.417c0,9.257 -5.495,17.679 -13.97,21.407Z" style="fill:#fadcbc;fill-rule:nonzero;"/></g></svg>