<?xml version="1.0" encoding="UTF-8" standalone="no"?><!DOCTYPE svg PUBLIC "-//W3C//DTD SVG 1.1//EN" "http://www.w3.org/Graphics/SVG/1.1/DTD/svg11.dtd"><svg width="100%" height="100%" viewBox="0 0 534 534" version="1.1" xmlns="http://www.w3.org/2000/svg" xmlns:xlink="http://www.w3.org/1999/xlink" xml:space="preserve" xmlns:serif="http://www.serif.com/" style="fill-rule:evenodd;clip-rule:evenodd;stroke-linecap:round;stroke-linejoin:round;stroke-miterlimit:1.5;"><g><g><path d="M204.352,326.734l-2.104,-52.168l108.428,-16.601l9.299,65.164l-115.623,3.605Z" style="fill:#42ade7;fill-rule:nonzero;"/></g><g><path d="M340.406,295.433c2.034,13.291 -7.105,25.733 -20.396,27.767c-13.291,2.035 -25.733,-7.105 -27.767,-20.396c-2.034,-13.29 7.105,-25.733 20.396,-27.767c13.291,-2.034 25.733,7.105 27.767,20.396Z" style="fill:#42ade7;"/></g><g><path d="M340.406,295.433l-6.283,-41.055l-48.168,7.372l6.284,41.055l48.167,-7.372Z" style="fill:#42ade7;"/></g></g><g><path d="M324.434,276.081l-50.476,-4.8c-9.592,-0.912 -16.734,-9.556 -15.822,-19.148l17.796,-90.139c3.234,-14.607 10.191,-38.854 30.343,-36.937l17.447,1.659c17.371,1.651 22.657,22.873 21.698,41.04l-1.88,92.537c-0.874,9.603 -9.43,16.708 -19.106,15.788Z" style="fill:#da4105;fill-rule:nonzero;"/></g><g><g><g><path d="M224.685,288.924c4.831,11.798 -0.825,25.3 -12.623,30.131c-11.798,4.832 -25.299,-0.824 -30.131,-12.622c-4.831,-11.798 0.825,-25.299 12.623,-30.131c11.798,-4.832 25.299,0.824 30.131,12.622Z" style="fill:#42ade7;"/></g><g><path d="M176.157,407.227l-36.613,-15.883l43.445,-105.202l41.179,21.451l-48.011,99.634Z" style="fill:#42ade7;fill-rule:nonzero;"/></g></g><g><path d="M154.463,425.459l-31.712,-13.773c-5.702,-2.468 -8.792,-8.787 -7.232,-14.801c0.166,-0.639 0.383,-1.265 0.646,-1.869c2.798,-6.426 10.243,-9.384 16.669,-6.586l31.713,13.774c6.426,2.798 9.384,10.243 6.586,16.669c-2.767,6.376 -10.289,9.347 -16.67,6.586Z" style="fill:#4568ad;fill-rule:nonzero;"/><path d="M116.64,393.844l54.982,23.875l-6.824,15.712l-54.981,-23.875l6.823,-15.712Z" style="fill:#4568ad;fill-rule:nonzero;"/><path d="M157.173,398.981l18.984,8.245l-5.544,12.764l-18.985,-8.246l5.545,-12.763Z" style="fill:#4568ad;fill-rule:nonzero;"/></g></g><g><g><path d="M396.741,374.858c0,-7.861 -6.374,-14.235 -14.235,-14.235l-158.516,-0c-7.862,-0 -14.236,6.374 -14.236,14.235l0,68.403c0,7.862 6.374,14.24 14.236,14.24l158.516,0c7.861,0 14.235,-6.378 14.235,-14.24l0,-68.403Z" style="fill:#78a3ad;"/></g><g><circle cx="183.71" cy="495.046" r="26.042" style="fill:#848484;stroke:#343434;stroke-width:16.65px;"/></g><g><circle cx="303.247" cy="467.381" r="53.706" style="fill:#848484;stroke:#343434;stroke-width:20.87px;"/></g><g><circle cx="303.248" cy="467.382" r="9.882" style="fill:#343434;"/></g><g><circle cx="422.786" cy="495.046" r="26.042" style="fill:#848484;stroke:#343434;stroke-width:16.65px;"/></g><g><path d="M364.899,332.442c-0,-3.777 -1.5,-7.399 -4.171,-10.069c-2.666,-2.671 -6.292,-4.17 -10.067,-4.17l-114.136,0c-3.775,0 -7.396,1.499 -10.067,4.17c-2.671,2.67 -4.171,6.292 -4.171,10.069l-0,5.492c-0,3.777 1.5,7.396 4.171,10.069c2.671,2.67 6.292,4.169 10.067,4.169l114.136,0c3.775,0 7.401,-1.499 10.067,-4.169c2.671,-2.673 4.171,-6.292 4.171,-10.069l-0,-5.492Z" style="fill:#016ca2;"/></g><g><path d="M381.394,179.26c-3.744,-0.499 -7.532,0.509 -10.532,2.804c-2.999,2.29 -4.964,5.686 -5.462,9.428l-15.077,113.136c-0.499,3.742 0.509,7.53 2.803,10.53c2.294,3 5.686,4.965 9.43,5.464l5.444,0.726c3.744,0.499 7.529,-0.51 10.531,-2.804c3,-2.295 4.964,-5.687 5.463,-9.429l15.077,-113.136c0.498,-3.742 -0.509,-7.534 -2.803,-10.53c-2.297,-3 -5.686,-4.965 -9.43,-5.464l-5.444,-0.725Z" style="fill:#016ca2;"/></g><g><path d="M391.136,114.912c-7.78,-1.143 -15.013,4.239 -16.155,12.018l-4.397,29.948c-1.142,7.781 4.239,15.014 12.019,16.156l5.434,0.798c7.781,1.142 15.014,-4.239 16.156,-12.02l4.397,-29.948c1.142,-7.779 -4.239,-15.012 -12.02,-16.154l-5.434,-0.798Z" style="fill:#40c0e7;"/></g><g><path d="M387.618,267.148l-115.658,0" style="fill:none;stroke:#282828;stroke-width:20.85px;"/></g><g><path d="M138.982,441.216c-0,0 6.285,3.81 12.781,7.745c3.627,2.196 8.006,2.77 12.076,1.586c4.066,-1.189 7.451,-4.024 9.331,-7.825c11.083,-22.409 31.781,-64.262 40.612,-82.125c2.551,-5.157 7.811,-8.426 13.565,-8.426l135.92,0c7.6,0 14.026,-5.642 15.005,-13.182c6.141,-47.215 26.666,-205.065 26.666,-205.065" style="fill:none;stroke:#ed6c30;stroke-width:20.84px;"/></g><path d="M271.96,267.148l0,-31.93" style="fill:none;stroke:#282828;stroke-width:12.5px;"/><g><path d="M183.707,495.045c3.581,-6.593 7.591,-13.098 9.722,-20.348c2.35,-8.011 2.574,-16.423 4.397,-24.545c1.824,-8.137 5.167,-14.646 8.92,-21.985c3.665,-7.167 8.17,-14.958 15.635,-18.81c4.285,-2.215 9.558,-2.732 14.244,-3.436" style="fill:none;stroke:#ed6c30;stroke-width:12.5px;"/></g><g><path d="M422.788,494.907c-3.581,-6.593 -7.591,-13.098 -9.722,-20.348c-2.35,-8.011 -2.574,-16.423 -4.397,-24.545c-1.823,-8.137 -5.167,-14.646 -8.92,-21.985c-3.665,-7.167 -8.169,-14.958 -15.634,-18.81c-4.286,-2.215 -9.559,-2.732 -14.245,-3.436" style="fill:none;stroke:#ed6c30;stroke-width:12.5px;"/></g></g><g><g><path d="M333.413,96.347l-3.207,38.98l-30.014,1.144l-4.269,-77.592l37.49,37.468Z" style="fill:#e0bb95;fill-rule:nonzero;"/></g><g><g><path d="M339.126,56.998l-7.821,64.783l-42.283,-4.793c-19.669,-2.224 -33.479,-20.442 -30.298,-39.957l3.87,-23.686c3.564,-21.888 25.226,-35.926 46.654,-30.22l8.495,2.26c13.966,3.753 23.109,17.225 21.383,31.613Z" style="fill:#e0bb95;fill-rule:nonzero;"/></g><path d="M276.366,70.185c-0.421,2.87 -2.641,4.936 -5.014,4.591c-2.372,-0.345 -3.979,-2.909 -3.557,-5.779c0.421,-2.87 2.641,-4.936 5.014,-4.591c2.372,0.307 3.94,2.91 3.557,5.779" style="fill:#444;fill-rule:nonzero;"/></g><g><path d="M334.456,116.705c-10.096,7.326 -11.6,-7.932 -15.892,-19.168c-2.384,-6.241 -8.317,-12.382 -7.712,-17.734c1.067,-9.407 -0.914,-9.257 -4.567,-12.164c-0,0 -6.497,9.793 -9.17,10.288c-2.674,0.495 -6.32,-2.717 -6.865,-7.319l-1.079,-9.166c-0.467,-3.969 -2.822,-7.482 -6.317,-9.423c-0,0 -26.794,-9.747 -19.313,-30.606c5.499,-15.333 6.74,3.84 37.451,-5.664c4.991,-1.546 13.734,-0.677 18.544,0.477c22.281,5.298 34.667,26.773 25.102,47.561c-7.576,16.463 13.078,36.026 -10.182,52.918Z" style="fill:#bfa055;fill-rule:nonzero;"/></g></g><g><g><path d="M330.581,240.621l-28.294,1.887l-3.815,-57.229l28.294,-1.884l3.815,57.226Z" style="fill:#e0bb95;fill-rule:nonzero;"/></g><g><path d="M305.076,232.628c4.916,-6.21 13.948,-7.26 20.158,-2.344c6.209,4.916 7.259,13.948 2.344,20.158c-4.916,6.209 -13.949,7.26 -20.159,2.344c-6.209,-4.916 -7.259,-13.949 -2.343,-20.158Z" style="fill:#e0bb95;"/></g><g><path d="M292.781,205.111l44.292,-3.746l-3.841,-45.3c-1.086,-10.494 -9.503,-18.84 -20.005,-19.838c-12.141,-1.155 -23.079,7.884 -24.234,20.025c-0.112,1.181 -0.133,2.37 -0.053,3.558l3.841,45.301Z" style="fill:#a23004;fill-rule:nonzero;"/></g><g><path d="M304.764,291.888l-24.801,-13.747l23.539,-42.474l24.801,13.747l-23.539,42.474Z" style="fill:#e0bb95;fill-rule:nonzero;"/></g><g><path d="M276.268,313.284c2.234,1.25 4.705,2.02 7.25,2.262c7.265,0.69 14.284,-2.997 17.835,-9.371l4.496,-8.068c1.25,-2.233 2.019,-4.705 2.261,-7.25c0.691,-7.264 -2.997,-14.284 -9.371,-17.835c-2.233,-1.25 -4.705,-2.019 -7.249,-2.261c-7.265,-0.691 -14.285,2.997 -17.835,9.371l-4.496,8.067c-1.246,2.23 -2.015,4.698 -2.257,7.243c-0.691,7.264 2.993,14.284 9.366,17.842Z" style="fill:#e0bb95;fill-rule:nonzero;"/></g></g></svg>