<?xml version="1.0" encoding="UTF-8" standalone="no"?><!DOCTYPE svg PUBLIC "-//W3C//DTD SVG 1.1//EN" "http://www.w3.org/Graphics/SVG/1.1/DTD/svg11.dtd"><svg width="100%" height="100%" viewBox="0 0 2225 2225" version="1.1" xmlns="http://www.w3.org/2000/svg" xmlns:xlink="http://www.w3.org/1999/xlink" xml:space="preserve" xmlns:serif="http://www.serif.com/" style="fill-rule:evenodd;clip-rule:evenodd;stroke-linecap:round;stroke-linejoin:round;stroke-miterlimit:1.5;"><g><g><path d="M1685.21,1310.64l8.767,-217.367l-451.788,-69.175l-38.745,271.517l481.766,15.024Z" style="fill:#42ade7;fill-rule:nonzero;"/></g><g><path d="M1118.32,1180.21c-8.48,55.379 29.604,107.22 84.983,115.7c55.375,8.475 107.221,-29.605 115.696,-84.984c8.475,-55.379 -29.604,-107.221 -84.984,-115.696c-55.379,-8.479 -107.22,29.6 -115.695,84.979Z" style="fill:#42ade7;"/></g><g><path d="M1118.31,1180.22l26.184,-171.067l200.696,30.717l-26.18,171.066l-200.7,-30.716Z" style="fill:#42ade7;"/></g></g><g><path d="M1190.16,1089.46l211.263,0c40.15,0 73.183,-33.037 73.183,-73.183l-38.267,-380.912c-7.65,-61.863 -26.945,-165.184 -111.291,-165.184l-73.025,0c-72.704,0 -103,85.942 -106.188,161.675l-28.7,384.579c-0.158,40.18 32.525,73.025 73.025,73.025Z" style="fill:#da4105;fill-rule:nonzero;"/></g><g><g><g><path d="M772.096,694.75c-0,-15.146 12.304,-27.45 27.45,-27.45l142.279,0c15.125,0 27.429,12.304 27.429,27.45c0,15.15 -12.304,27.429 -27.429,27.429l-142.279,0c-15.146,0 -27.45,-12.279 -27.45,-27.429Z" style="fill:#454545;"/></g><g><path d="M923.762,1684.42c4.796,23.045 43.771,25.041 45.696,-3.121l0,-223.025c0,-13.496 10.95,-24.442 24.446,-24.442l603.338,0c6.495,0 12.716,2.567 17.283,7.159c4.592,4.591 7.162,10.787 7.162,17.283l0,486.971c3.167,46.454 44.388,22.175 45.905,-0l-0,-562.367c-1.171,-17.812 -10.146,-22.104 -22.955,-22.954l-650.758,-0c-13.496,-0 -24.421,-10.925 -24.421,-24.421c-0.046,-121 -0.204,-650.433 -0.204,-650.433c-4.704,-22.588 -61.304,-25.8 -63.279,3.12l-0,993.109c-0.025,-0.092 17.717,2.087 17.787,3.121Z" style="fill:#e27338;fill-rule:nonzero;"/></g><g><g><path d="M1644.64,1841.96c-57,0 -103.283,46.284 -103.283,103.284c0,57 46.283,103.287 103.283,103.287c57,0 103.284,-46.287 103.284,-103.287c-0,-57 -46.284,-103.284 -103.284,-103.284Zm0,12.667c-50.016,0 -90.62,40.604 -90.62,90.617c-0,50.016 40.604,90.621 90.62,90.621c50.017,-0 90.617,-40.605 90.617,-90.621c0,-50.013 -40.6,-90.617 -90.617,-90.617Z" style="fill:#414141;"/></g><g><path d="M1644.64,1854.63l0,181.225" style="fill:none;stroke:#4c4c4c;stroke-width:13.04px;"/></g><g><path d="M1599.33,1866.77l90.613,156.946" style="fill:none;stroke:#4c4c4c;stroke-width:13.04px;"/></g><g><path d="M1566.16,1899.94l156.946,90.608" style="fill:none;stroke:#4c4c4c;stroke-width:13.04px;"/></g><g><path d="M1554.03,1945.24l181.225,-0" style="fill:none;stroke:#4c4c4c;stroke-width:13.04px;"/></g><g><path d="M1566.16,1990.55l156.946,-90.608" style="fill:none;stroke:#4c4c4c;stroke-width:13.04px;"/></g><g><path d="M1599.33,2023.72l90.613,-156.942" style="fill:none;stroke:#4c4c4c;stroke-width:13.04px;"/></g></g><g><path d="M969.437,1269.31l606.85,0c25.638,0 46.409,20.771 46.409,46.409l-0,29.033c-0,8.379 -6.792,15.171 -15.171,15.171l-622.458,-0c-4.13,-0 -8.125,-1.65 -11.063,-4.588c-2.917,-2.941 -4.567,-6.908 -4.567,-11.066l0,-74.959Z" style="fill:#4d8fd9;"/></g><g><path d="M969.254,736.571c0,-7.942 6.45,-14.392 14.392,-14.392l44.891,0c13.13,0 23.755,10.65 23.755,23.779l-0,523.35l-83.038,0l0,-532.737Z" style="fill:#4d8fd9;"/></g><g><path d="M967.717,1068.57c-6.959,1.271 -11.934,4.558 -12.513,14.125l0,277.217c0.938,14.883 27.092,21.966 28.467,-0.001l-0,-262.983l544.525,0c3.741,0 7.312,1.496 9.966,4.133c2.634,2.642 4.117,6.217 4.117,9.95l0,248.9c1.808,28.68 27.542,14.871 28.479,0l0,-277.216c-0.466,-7.659 -6.408,-13.763 -14.241,-14.238l-587.088,0c-0.558,0.038 -1.137,0.075 -1.712,0.113Z" style="fill:#e27338;fill-rule:nonzero;"/></g><g><path d="M1065.22,1082.7c-0,-18.733 15.2,-33.937 33.925,-33.937l389.404,-0c18.729,-0 33.946,15.204 33.946,33.937c-0,18.729 -15.217,33.934 -33.946,33.934l-389.404,-0c-18.725,-0 -33.925,-15.205 -33.925,-33.934Z" style="fill:#205999;"/></g><g><g><path d="M946.512,1230.4c-248.833,0 -450.887,202.05 -450.887,450.884c-0,248.829 202.054,450.883 450.887,450.883c248.83,-0 450.884,-202.054 450.884,-450.883c-0,-248.834 -202.054,-450.884 -450.884,-450.884Zm0,82.963c-203.066,-0 -367.925,164.854 -367.925,367.921c0,203.066 164.859,367.92 367.925,367.92c203.067,0 367.921,-164.854 367.921,-367.92c0,-203.067 -164.854,-367.921 -367.921,-367.921Z" style="fill:#414141;"/></g><path d="M946.512,1285.72l0,791.133" style="fill:none;stroke:#4c4c4c;stroke-width:12.96px;"/><g><path d="M748.729,1338.72l395.563,685.137" style="fill:none;stroke:#4c4c4c;stroke-width:12.96px;"/></g><g><path d="M603.946,1483.5l685.141,395.567" style="fill:none;stroke:#4c4c4c;stroke-width:12.96px;"/></g><g><path d="M550.946,1681.29l791.129,-0" style="fill:none;stroke:#4c4c4c;stroke-width:12.96px;"/></g><g><path d="M603.946,1879.07l685.141,-395.567" style="fill:none;stroke:#4c4c4c;stroke-width:12.96px;"/></g><g><path d="M748.717,2023.85l395.566,-685.142" style="fill:none;stroke:#4c4c4c;stroke-width:12.96px;"/></g></g></g><g><path d="M1647.23,1376.64l185.896,445.129l92.442,-33.092" style="fill:none;stroke:#e27338;stroke-width:39.71px;"/></g></g><g><g><g><path d="M1600.5,1153.1c-20.129,49.158 3.433,105.412 52.592,125.542c49.158,20.133 105.416,-3.434 125.545,-52.592c20.134,-49.158 -3.433,-105.413 -52.591,-125.546c-49.159,-20.129 -105.413,3.438 -125.546,52.596Z" style="fill:#42ade7;"/></g><g><path d="M1802.7,1646.03l152.554,-66.183l-181.021,-438.338l-171.579,89.375l200.046,415.146Z" style="fill:#42ade7;fill-rule:nonzero;"/></g></g><g><path d="M1893.09,1721.99l132.138,-57.388c23.758,-10.283 36.629,-36.613 30.129,-61.671c-0.692,-2.662 -1.596,-5.271 -2.687,-7.783c-11.659,-26.775 -42.68,-39.104 -69.455,-27.442l-132.137,57.388c-26.775,11.658 -39.1,42.679 -27.442,69.454c11.529,26.566 42.867,38.946 69.454,27.441Z" style="fill:#4568ad;fill-rule:nonzero;"/><path d="M2050.68,1590.26l-229.087,99.475l28.429,65.466l229.092,-99.475l-28.434,-65.466Z" style="fill:#4568ad;fill-rule:nonzero;"/><path d="M1881.8,1611.66l-79.104,34.358l23.104,53.179l79.1,-34.358l-23.1,-53.179Z" style="fill:#4568ad;fill-rule:nonzero;"/></g></g><g><path d="M1223.8,340.392l-2.071,162.95l124.046,16.583l48.312,-320.162l-170.287,140.629Z" style="fill:#bf8f68;fill-rule:nonzero;"/></g><g><g><path d="M1208.78,176.95l13.788,271.542l177.141,-7.7c82.396,-3.559 145.067,-75.296 137.488,-157.33l-9.242,-99.575c-8.487,-92.008 -94.471,-156.625 -185.187,-139.095l-35.963,6.937c-59.137,11.563 -101.037,64.917 -98.025,125.221Z" style="fill:#bf8f68;fill-rule:nonzero;"/></g><path d="M1465.84,249.908c0.92,12.05 9.55,21.28 19.512,20.529c9.963,-0.745 17.379,-10.941 16.458,-22.991c-0.925,-12.05 -9.554,-21.279 -19.516,-20.534c-9.95,0.592 -17.221,10.955 -16.454,22.996" style="fill:#444;fill-rule:nonzero;"/><g><path d="M1189.08,407.371c37.558,35.946 52.375,-26.213 76.442,-70.196c13.366,-24.429 41.333,-46.442 41.854,-68.883c0.896,-39.454 8.991,-37.717 25.721,-47.659c-0,0 21.304,44.109 32.066,47.659c10.763,3.55 27.634,-7.654 32.479,-26.354l9.625,-37.246c4.167,-16.125 15.875,-29.304 31.405,-35.35c-0,-0 116.15,-25.138 97.02,-115.5c-14.058,-66.421 -30,12.058 -151.466,-44.517c-19.742,-9.2 -56.338,-10.542 -76.85,-8.492c-95.004,9.313 -158.271,91.009 -130.496,182.255c22,72.262 -74.329,141.4 12.2,224.283Z" style="fill:#6d4c41;fill-rule:nonzero;"/></g></g><g><path d="M1011.37,828.55l90.179,76.337l154.392,-182.42l-90.188,-76.325l-154.383,182.408Z" style="fill:#bf8f68;fill-rule:nonzero;"/></g><g><path d="M1116.65,864.858c-1.117,-32.979 -28.8,-58.85 -61.779,-57.733c-32.983,1.113 -58.854,28.796 -57.738,61.779c1.117,32.979 28.8,58.85 61.78,57.734c32.983,-1.117 58.85,-28.796 57.737,-61.78Z" style="fill:#bf8f68;"/></g><g><path d="M1225.95,803.033l-139.221,-122.15l124.967,-142.362c29.604,-32.492 78.471,-39.646 116.15,-17.009c43.558,26.171 57.862,83.538 31.696,127.096c-2.546,4.238 -5.421,8.275 -8.625,12.063l-124.967,142.362Z" style="fill:#a23004;fill-rule:nonzero;"/></g><g><path d="M971.062,1064.3l117.159,15.275l26.183,-200.633l-117.158,-15.279l-26.184,200.637Z" style="fill:#bf8f68;fill-rule:nonzero;"/></g><g><path d="M1013.65,1206.53c-10.579,-1.333 -20.771,-4.87 -29.9,-10.354c-26.062,-15.662 -40.471,-45.392 -36.604,-75.546l4.892,-38.17c1.333,-10.58 4.87,-20.771 10.354,-29.9c15.662,-26.063 45.391,-40.471 75.546,-36.605c10.583,1.334 20.77,4.871 29.9,10.359c26.062,15.658 40.47,45.391 36.604,75.541l-4.892,38.171c-1.337,10.559 -4.867,20.738 -10.354,29.867c-15.658,26.062 -45.375,40.479 -75.546,36.637Z" style="fill:#bf8f68;fill-rule:nonzero;"/></g></svg>