<?xml version="1.0" encoding="UTF-8" standalone="no"?><!DOCTYPE svg PUBLIC "-//W3C//DTD SVG 1.1//EN" "http://www.w3.org/Graphics/SVG/1.1/DTD/svg11.dtd"><svg width="100%" height="100%" viewBox="0 0 534 534" version="1.1" xmlns="http://www.w3.org/2000/svg" xmlns:xlink="http://www.w3.org/1999/xlink" xml:space="preserve" xmlns:serif="http://www.serif.com/" style="fill-rule:evenodd;clip-rule:evenodd;stroke-linejoin:round;stroke-miterlimit:2;"><g><g><path d="M247.106,388.43c-10.538,-10.175 -27.355,-9.88 -37.53,0.659c-10.174,10.538 -9.879,27.355 0.659,37.529c10.538,10.175 27.355,9.88 37.53,-0.658c10.175,-10.538 9.88,-27.355 -0.659,-37.53Z" style="fill:#1d8cc8;"/></g><path d="M202.854,401.417l50.459,16.041l45.208,-101.583l-62.5,-22.542l-33.167,108.084Z" style="fill:#1d8cc8;fill-rule:nonzero;"/><path d="M123.854,417.583l13.292,44.5l99.458,-29.208l-15.583,-49.25l-97.167,33.958Z" style="fill:#1d8cc8;fill-rule:nonzero;"/></g><g><path d="M100.063,439.625l11.666,38.75c1.788,5.983 7.329,10.117 13.575,10.117c1.4,-0 2.792,-0.209 4.134,-0.617l0.666,-0.208c5.984,-1.788 10.117,-7.329 10.117,-13.575c-0,-1.4 -0.208,-2.792 -0.617,-4.134l-11.666,-38.75c-1.788,-5.983 -7.33,-10.116 -13.575,-10.116c-1.4,-0 -2.792,0.208 -4.134,0.616l-0.666,0.209c-7.542,2.25 -11.792,10.166 -9.5,17.708Z" style="fill:#4568ad;fill-rule:nonzero;"/><path d="M131.158,487.35l-19.883,-65.988l-18.871,5.684l19.884,65.987l18.87,-5.683Z" style="fill:#4568ad;fill-rule:nonzero;"/><path d="M130.721,440.333l-6.875,-22.82l-15.321,4.616l6.875,22.821l15.321,-4.617Z" style="fill:#4568ad;fill-rule:nonzero;"/></g><g><g><path d="M355.936,395.518c-3.81,-14.144 -18.387,-22.534 -32.532,-18.724c-14.144,3.81 -22.535,18.387 -18.724,32.531c3.81,14.145 18.387,22.535 32.531,18.725c14.145,-3.81 22.535,-18.387 18.725,-32.532Z" style="fill:#42ade7;"/></g><path d="M312.188,421.458l39.666,-35.041l-63.875,-90.959l-51.5,42.042l75.709,83.958Z" style="fill:#42ade7;fill-rule:nonzero;"/><path d="M364.688,505.292l40.458,-22.875l-51.375,-92.5l-44.542,26.166l55.459,89.209Z" style="fill:#42ade7;fill-rule:nonzero;"/></g><g><path d="M391.604,523.125l35.209,-20c4.437,-2.521 7.187,-7.25 7.187,-12.354c0,-2.463 -0.637,-4.879 -1.854,-7.021l-0.333,-0.625c-2.521,-4.437 -7.25,-7.188 -12.355,-7.188c-2.462,0 -4.879,0.638 -7.02,1.855l-35.209,20c-4.437,2.521 -7.187,7.25 -7.187,12.354c-0,2.462 0.637,4.879 1.854,7.021l0.333,0.625c3.859,6.77 12.596,9.175 19.375,5.333Z" style="fill:#4568ad;fill-rule:nonzero;"/><path d="M431.208,482.108l-59.908,34.059l9.742,17.133l59.908,-34.058l-9.742,-17.134Z" style="fill:#4568ad;fill-rule:nonzero;"/><path d="M385.483,492.979l-20.716,11.779l7.908,13.909l20.717,-11.779l-7.909,-13.909Z" style="fill:#4568ad;fill-rule:nonzero;"/></g><circle cx="262.188" cy="316.5" r="33.208" style="fill:#42ade7;"/><path d="M338.05,282.067l24.158,-17.929l-36.275,-48.888l-24.158,17.925l36.275,48.892Z" style="fill:#9b643c;fill-rule:nonzero;"/><g><path d="M353.196,258.069c-8.255,-1.641 -16.29,3.728 -17.932,11.983c-1.641,8.255 3.728,16.29 11.984,17.931c8.255,1.642 16.289,-3.728 17.931,-11.983c1.641,-8.255 -3.728,-16.29 -11.983,-17.931Z" style="fill:#9b643c;"/></g><path d="M344.146,227.375l-38.417,27.458l-28.416,-39.75c-7.33,-10.279 -4.925,-24.766 5.333,-32.125l0.958,-0.666c10.279,-7.329 24.767,-4.925 32.125,5.333l28.417,39.75Z" style="fill:#bf3f0c;fill-rule:nonzero;"/><path d="M399.158,293.342l3.067,-29.925l-51.275,-5.25l-3.067,29.925l51.275,5.25Z" style="fill:#9b643c;fill-rule:nonzero;"/><path d="M435.146,281.042l-0.083,0.958c-0.955,9.721 -9.225,17.217 -18.992,17.217c-0.629,-0 -1.258,-0.029 -1.883,-0.092l-10.75,-1.083c-9.721,-0.954 -17.217,-9.225 -17.217,-18.992c-0,-0.629 0.029,-1.258 0.092,-1.883l0.083,-0.959c0.954,-9.721 9.225,-17.216 18.992,-17.216c0.629,-0 1.258,0.029 1.883,0.091l10.75,1.084c9.717,0.941 17.221,9.204 17.221,18.97c-0,0.634 -0.034,1.271 -0.096,1.905Z" style="fill:#9b643c;fill-rule:nonzero;"/><g><path d="M292.604,128.833l-10.791,42.334l31.291,12.083l32.667,-80.333l-53.167,25.916Z" style="fill:#9b643c;fill-rule:nonzero;"/><path d="M295.021,85.917l-8.458,72.333l47.166,5.875c21.917,2.75 41.667,-13.417 43.334,-35.458l2,-26.709c1.875,-24.666 -18,-45.583 -42.709,-45l-9.833,0.25c-16.208,0.417 -29.625,12.625 -31.5,28.709Z" style="fill:#9b643c;fill-rule:nonzero;"/><path d="M359.646,116.625c-0.333,3.208 1.583,6.042 4.25,6.292c2.667,0.25 5.083,-2.125 5.375,-5.334c0.333,-3.208 -1.583,-6.041 -4.25,-6.291c-2.667,-0.292 -5.042,2.125 -5.375,5.333" style="fill:#444;fill-rule:nonzero;"/></g><path d="M241.521,312.958l51.833,12.292c9.917,2.333 19.834,-3.792 22.209,-13.667l12.75,-95.708c1.708,-15.625 3,-42.125 -17.709,-47l-17.916,-4.25c-17.834,-4.208 -30.25,15.083 -35.459,33.458l-29.416,92.667c-2.33,9.85 3.858,19.875 13.708,22.208Z" style="fill:#e65100;fill-rule:nonzero;"/><g><path d="M201.258,233.017l15.013,26.075l52.762,-30.375l-15.008,-26.071l-52.767,30.371Z" style="fill:#9b643c;fill-rule:nonzero;"/><g><path d="M213.495,231.625c-8.01,-2.584 -16.611,1.821 -19.195,9.831c-2.585,8.011 1.821,16.612 9.831,19.196c8.01,2.584 16.611,-1.821 19.195,-9.831c2.585,-8.011 -1.821,-16.612 -9.831,-19.196Z" style="fill:#9b643c;"/></g><path d="M254.896,245.417l-22.792,-41.334l42.75,-23.625c11.067,-6.083 25.175,-2.004 31.292,9.042l0.541,1c6.084,11.067 2.005,25.175 -9.041,31.292l-42.75,23.625Z" style="fill:#bf3f0c;fill-rule:nonzero;"/><path d="M171.258,286.021l26.746,13.779l23.604,-45.821l-26.745,-13.779l-23.605,45.821Z" style="fill:#9b643c;fill-rule:nonzero;"/><path d="M169.604,324l-0.833,-0.417c-6.375,-3.254 -10.4,-9.833 -10.4,-16.991c-0,-3.029 0.725,-6.021 2.108,-8.717l4.917,-9.583c3.254,-6.375 9.833,-10.4 16.992,-10.4c3.029,-0 6.02,0.725 8.716,2.108l0.834,0.417c6.375,3.254 10.4,9.833 10.4,16.991c-0,3.03 -0.725,6.021 -2.109,8.717l-4.916,9.583c-4.792,9.309 -16.38,13.046 -25.709,8.292Z" style="fill:#9b643c;fill-rule:nonzero;"/></g><g><path d="M279.519,148.53c8.668,11.943 15.957,-4.667 24.907,-15.731c4.972,-6.146 13.897,-10.877 15.18,-17.118c2.251,-10.973 4.424,-10.078 9.6,-12.007c-0,-0 3.715,13.398 6.541,14.936c2.826,1.537 8.105,-0.738 10.406,-5.715l4.576,-9.914c1.981,-4.293 5.919,-7.38 10.562,-8.281c0,-0 33.714,-1.135 32.951,-27.342c-0.561,-19.264 -8.989,1.847 -40.047,-20.11c-5.048,-3.57 -15.201,-5.799 -21.035,-6.266c-27.005,-2.214 -48.815,17.397 -45.682,44.289c2.482,21.297 -27.925,35.725 -7.959,63.259Z" style="fill:#47352d;fill-rule:nonzero;"/></g></svg>