<?xml version="1.0" encoding="UTF-8" standalone="no"?><!DOCTYPE svg PUBLIC "-//W3C//DTD SVG 1.1//EN" "http://www.w3.org/Graphics/SVG/1.1/DTD/svg11.dtd"><svg width="100%" height="100%" viewBox="0 0 534 534" version="1.1" xmlns="http://www.w3.org/2000/svg" xmlns:xlink="http://www.w3.org/1999/xlink" xml:space="preserve" xmlns:serif="http://www.serif.com/" style="fill-rule:evenodd;clip-rule:evenodd;stroke-linecap:round;stroke-linejoin:round;stroke-miterlimit:1.5;"><g><g><path d="M213.488,314.553l-2.104,-52.168l108.429,-16.602l9.299,65.164l-115.624,3.606Z" style="fill:#42ade7;fill-rule:nonzero;"/></g><g><path d="M349.542,283.251c2.035,13.291 -7.105,25.733 -20.396,27.768c-13.29,2.034 -25.733,-7.105 -27.767,-20.396c-2.034,-13.291 7.105,-25.733 20.396,-27.767c13.291,-2.035 25.733,7.104 27.767,20.395Z" style="fill:#42ade7;"/></g><g><path d="M349.543,283.252l-6.284,-41.056l-48.167,7.372l6.283,41.056l48.168,-7.372Z" style="fill:#42ade7;"/></g></g><g><path d="M332.3,261.47l-50.703,0c-9.636,0 -17.564,-7.929 -17.564,-17.564l9.184,-91.419c1.836,-14.847 6.467,-39.644 26.71,-39.644l17.526,-0c17.449,-0 24.72,20.626 25.485,38.802l6.888,92.299c0.038,9.643 -7.806,17.526 -17.526,17.526Z" style="fill:#da4105;fill-rule:nonzero;"/></g><g><g><g><path d="M432.635,166.74c-0,-3.635 -2.953,-6.588 -6.588,-6.588l-34.147,0c-3.63,0 -6.583,2.953 -6.583,6.588c0,3.636 2.953,6.583 6.583,6.583l34.147,-0c3.635,-0 6.588,-2.947 6.588,-6.583Z" style="fill:#454545;"/></g><g><path d="M396.235,404.26c-1.151,5.531 -10.505,6.01 -10.967,-0.749l-0,-53.526c-0,-3.239 -2.628,-5.866 -5.867,-5.866l-144.801,-0c-1.559,-0 -3.052,0.616 -4.148,1.718c-1.102,1.102 -1.719,2.589 -1.719,4.148l0,116.873c-0.76,11.149 -10.653,5.322 -11.017,0l0,-134.968c0.281,-4.275 2.435,-5.305 5.509,-5.509l156.182,0c3.239,0 5.861,-2.622 5.861,-5.861c0.011,-29.04 0.049,-156.104 0.049,-156.104c1.129,-5.421 14.713,-6.192 15.187,0.749l0,238.346c0.006,-0.022 -4.252,0.501 -4.269,0.749Z" style="fill:#e27338;fill-rule:nonzero;"/></g><g><g><path d="M223.225,442.07c13.68,0 24.788,11.108 24.788,24.788c0,13.68 -11.108,24.789 -24.788,24.789c-13.68,-0 -24.788,-11.109 -24.788,-24.789c-0,-13.68 11.108,-24.788 24.788,-24.788Zm0,3.04c12.004,-0 21.749,9.745 21.749,21.748c-0,12.004 -9.745,21.749 -21.749,21.749c-12.004,-0 -21.748,-9.745 -21.748,-21.749c-0,-12.003 9.744,-21.748 21.748,-21.748Z" style="fill:#414141;"/></g><g><path d="M223.225,445.111l0,43.494" style="fill:none;stroke:#4c4c4c;stroke-width:3.13px;"/></g><g><path d="M234.099,448.025l-21.747,37.667" style="fill:none;stroke:#4c4c4c;stroke-width:3.13px;"/></g><g><path d="M242.059,455.985l-37.667,21.746" style="fill:none;stroke:#4c4c4c;stroke-width:3.13px;"/></g><g><path d="M244.972,466.858l-43.494,0" style="fill:none;stroke:#4c4c4c;stroke-width:3.13px;"/></g><g><path d="M242.059,477.731l-37.667,-21.746" style="fill:none;stroke:#4c4c4c;stroke-width:3.13px;"/></g><g><path d="M234.098,485.692l-21.747,-37.666" style="fill:none;stroke:#4c4c4c;stroke-width:3.13px;"/></g></g><g><path d="M385.273,304.634l-145.644,-0c-6.153,-0 -11.138,4.985 -11.138,11.138l-0,6.968c-0,2.011 1.63,3.641 3.641,3.641l149.39,0c0.991,0 1.95,-0.396 2.655,-1.101c0.7,-0.706 1.096,-1.658 1.096,-2.656l0,-17.99Z" style="fill:#4d8fd9;"/></g><g><path d="M385.317,176.777c0,-1.906 -1.548,-3.454 -3.454,-3.454l-10.774,-0c-3.151,-0 -5.701,2.556 -5.701,5.707l-0,125.604l19.929,-0l0,-127.857Z" style="fill:#4d8fd9;"/></g><g><path d="M385.686,256.457c1.67,0.305 2.864,1.094 3.003,3.39l-0,66.532c-0.225,3.572 -6.502,5.272 -6.832,-0l0,-63.116l-130.686,0c-0.898,0 -1.755,0.359 -2.392,0.992c-0.632,0.634 -0.988,1.492 -0.988,2.388l0,59.736c-0.434,6.883 -6.61,3.569 -6.835,-0l-0,-66.532c0.112,-1.838 1.538,-3.303 3.418,-3.417l140.901,0c0.134,0.009 0.273,0.018 0.411,0.027Z" style="fill:#e27338;fill-rule:nonzero;"/></g><g><path d="M362.285,259.849c0,-4.496 -3.648,-8.145 -8.142,-8.145l-93.457,0c-4.495,0 -8.147,3.649 -8.147,8.145c0,4.495 3.652,8.144 8.147,8.144l93.457,0c4.494,0 8.142,-3.649 8.142,-8.144Z" style="fill:#205999;"/></g><g><g><path d="M390.775,295.297c59.72,-0 108.213,48.492 108.213,108.212c-0,59.719 -48.493,108.212 -108.213,108.212c-59.719,-0 -108.212,-48.493 -108.212,-108.212c0,-59.72 48.493,-108.212 108.212,-108.212Zm0,19.911c48.736,-0 88.302,39.565 88.302,88.301c-0,48.736 -39.566,88.301 -88.302,88.301c-48.736,-0 -88.301,-39.565 -88.301,-88.301c0,-48.736 39.565,-88.301 88.301,-88.301Z" style="fill:#414141;"/></g><path d="M390.775,308.573l0,189.872" style="fill:none;stroke:#4c4c4c;stroke-width:3.11px;"/><g><path d="M438.243,321.292l-94.935,164.433" style="fill:none;stroke:#4c4c4c;stroke-width:3.11px;"/></g><g><path d="M472.991,356.041l-164.434,94.936" style="fill:none;stroke:#4c4c4c;stroke-width:3.11px;"/></g><g><path d="M485.711,403.509l-189.871,-0" style="fill:none;stroke:#4c4c4c;stroke-width:3.11px;"/></g><g><path d="M472.991,450.977l-164.434,-94.936" style="fill:none;stroke:#4c4c4c;stroke-width:3.11px;"/></g><g><path d="M438.246,485.724l-94.936,-164.434" style="fill:none;stroke:#4c4c4c;stroke-width:3.11px;"/></g></g></g><g><path d="M222.603,330.394l-44.615,106.831l-22.186,-7.942" style="fill:none;stroke:#e27338;stroke-width:9.53px;"/></g></g><g><g><g><path d="M233.818,276.743c4.831,11.798 -0.824,25.299 -12.622,30.13c-11.798,4.832 -25.3,-0.824 -30.131,-12.622c-4.832,-11.798 0.824,-25.299 12.622,-30.131c11.798,-4.831 25.299,0.825 30.131,12.623Z" style="fill:#42ade7;"/></g><g><path d="M185.29,395.046l-36.613,-15.884l43.445,-105.201l41.179,21.45l-48.011,99.635Z" style="fill:#42ade7;fill-rule:nonzero;"/></g></g><g><path d="M163.597,413.277l-31.713,-13.773c-5.702,-2.468 -8.791,-8.787 -7.231,-14.801c0.166,-0.639 0.383,-1.265 0.645,-1.868c2.798,-6.426 10.243,-9.385 16.669,-6.586l31.713,13.773c6.426,2.798 9.384,10.243 6.586,16.669c-2.767,6.376 -10.288,9.347 -16.669,6.586Z" style="fill:#4568ad;fill-rule:nonzero;"/><path d="M125.774,381.663l54.981,23.874l-6.823,15.712l-54.982,-23.874l6.824,-15.712Z" style="fill:#4568ad;fill-rule:nonzero;"/><path d="M166.306,386.799l18.985,8.246l-5.545,12.763l-18.984,-8.246l5.544,-12.763Z" style="fill:#4568ad;fill-rule:nonzero;"/></g></g><g><path d="M324.226,81.694l0.497,39.108l-29.771,3.98l-11.595,-76.839l40.869,33.751Z" style="fill:#fadcbc;fill-rule:nonzero;"/></g><g><g><path d="M327.831,42.468l-3.309,65.17l-42.514,-1.848c-19.775,-0.854 -34.816,-18.071 -32.997,-37.759l2.218,-23.898c2.037,-22.082 22.673,-37.59 44.445,-33.383l8.631,1.665c14.193,2.775 24.249,15.58 23.526,30.053Z" style="fill:#fadcbc;fill-rule:nonzero;"/></g><path d="M266.136,59.978c-0.221,2.892 -2.292,5.107 -4.683,4.927c-2.391,-0.179 -4.171,-2.626 -3.95,-5.518c0.222,-2.892 2.293,-5.107 4.684,-4.928c2.388,0.142 4.133,2.629 3.949,5.519" style="fill:#444;fill-rule:nonzero;"/><g><path d="M332.56,97.769c-9.014,8.627 -12.57,-6.291 -18.346,-16.847c-3.208,-5.863 -9.92,-11.146 -10.045,-16.532c-0.215,-9.469 -2.158,-9.052 -6.173,-11.438c-0,-0 -5.113,10.586 -7.696,11.438c-2.583,0.852 -6.632,-1.837 -7.795,-6.325l-2.31,-8.939c-1,-3.87 -3.81,-7.033 -7.537,-8.484c-0,0 -27.876,-6.033 -23.285,-27.72c3.374,-15.941 7.2,2.894 36.352,-10.684c4.738,-2.208 13.521,-2.53 18.444,-2.038c22.801,2.235 37.985,21.842 31.319,43.741c-5.28,17.343 17.839,33.936 -2.928,53.828Z" style="fill:#212121;fill-rule:nonzero;"/></g></g><g><path d="M375.209,198.852l-21.643,18.321l-37.054,-43.781l21.645,-18.318l37.052,43.778Z" style="fill:#fadcbc;fill-rule:nonzero;"/></g><g><path d="M349.941,207.566c0.268,-7.915 6.912,-14.124 14.827,-13.856c7.916,0.267 14.125,6.911 13.857,14.827c-0.268,7.915 -6.912,14.124 -14.827,13.856c-7.916,-0.268 -14.124,-6.911 -13.857,-14.827Z" style="fill:#fadcbc;"/></g><g><path d="M323.709,192.728l33.413,-29.316l-29.992,-34.167c-7.105,-7.798 -18.833,-9.515 -27.876,-4.082c-10.454,6.281 -13.887,20.049 -7.607,30.503c0.611,1.017 1.301,1.986 2.07,2.895l29.992,34.167Z" style="fill:#a23004;fill-rule:nonzero;"/></g><g><path d="M384.883,255.432l-28.118,3.666l-6.284,-48.152l28.118,-3.667l6.284,48.153Z" style="fill:#fadcbc;fill-rule:nonzero;"/></g><g><path d="M374.661,289.568c2.539,-0.32 4.985,-1.169 7.176,-2.485c6.255,-3.759 9.713,-10.894 8.785,-18.131l-1.174,-9.161c-0.32,-2.539 -1.169,-4.985 -2.485,-7.176c-3.759,-6.255 -10.894,-9.713 -18.131,-8.785c-2.54,0.32 -4.985,1.169 -7.176,2.486c-6.255,3.758 -9.713,10.894 -8.785,18.13l1.174,9.161c0.321,2.534 1.168,4.977 2.485,7.168c3.758,6.255 10.89,9.715 18.131,8.793Z" style="fill:#fadcbc;fill-rule:nonzero;"/></g></svg>