<?xml version="1.0" encoding="UTF-8" standalone="no"?><!DOCTYPE svg PUBLIC "-//W3C//DTD SVG 1.1//EN" "http://www.w3.org/Graphics/SVG/1.1/DTD/svg11.dtd"><svg width="100%" height="100%" viewBox="0 0 534 534" version="1.1" xmlns="http://www.w3.org/2000/svg" xmlns:xlink="http://www.w3.org/1999/xlink" xml:space="preserve" xmlns:serif="http://www.serif.com/" style="fill-rule:evenodd;clip-rule:evenodd;stroke-linejoin:round;stroke-miterlimit:2;"><g><g><path d="M267.887,374.483c-12.965,-7.623 -29.679,-3.286 -37.302,9.679c-7.622,12.965 -3.285,29.679 9.68,37.302c12.965,7.623 29.679,3.285 37.302,-9.68c7.622,-12.964 3.285,-29.679 -9.68,-37.301Z" style="fill:#1d8cc8;"/></g><path d="M226.863,398.083l54.125,3.834l20.708,-112.125l-67.75,-7.459l-7.083,115.75Z" style="fill:#1d8cc8;fill-rule:nonzero;"/><path d="M165.571,460.125l34.375,33l73.958,-76.417l-38.833,-36l-69.5,79.417Z" style="fill:#1d8cc8;fill-rule:nonzero;"/></g><g><path d="M155.738,492.125l29.5,28.167c2.783,2.658 6.487,4.141 10.333,4.141c4.092,0 8.012,-1.679 10.833,-4.641c2.659,-2.784 4.142,-6.488 4.142,-10.334c-0,-4.091 -1.679,-8.012 -4.642,-10.833l-29.5,-28.167c-2.783,-2.658 -6.487,-4.141 -10.333,-4.141c-4.092,-0 -8.013,1.679 -10.833,4.641c-2.659,2.784 -4.142,6.488 -4.142,10.334c-0,4.091 1.679,8.012 4.642,10.833Z" style="fill:#4568ad;fill-rule:nonzero;"/><path d="M207.413,518.667l-51.15,-48.821l-13.955,14.621l51.155,48.816l13.95,-14.616Z" style="fill:#4568ad;fill-rule:nonzero;"/><path d="M183.258,476.971l-17.666,-16.858l-11.334,11.875l17.667,16.858l11.333,-11.875Z" style="fill:#4568ad;fill-rule:nonzero;"/></g><g><g><path d="M347.508,388.575c-0.689,-15.024 -13.445,-26.662 -28.469,-25.973c-15.024,0.689 -26.662,13.445 -25.974,28.469c0.689,15.024 13.446,26.662 28.47,25.974c15.024,-0.689 26.662,-13.446 25.973,-28.47Z" style="fill:#42ade7;"/></g><path d="M297.571,404.792l47.458,-26.334l-43.875,-105.25l-60.833,30.709l57.25,100.875Z" style="fill:#42ade7;fill-rule:nonzero;"/><path d="M315.946,500.625l47.125,-7.292l-15.792,-107.416l-52.208,9l20.875,105.708Z" style="fill:#42ade7;fill-rule:nonzero;"/></g><g><path d="M335.321,527.292l40.292,-6.334c7.241,-1.129 12.641,-7.429 12.641,-14.758c0,-0.779 -0.062,-1.558 -0.183,-2.325c-1.292,-8.167 -8.917,-13.75 -17.084,-12.458l-40.291,6.333c-8.167,1.292 -13.75,8.917 -12.459,17.083c1.271,8.1 8.98,13.721 17.084,12.459Z" style="fill:#4568ad;fill-rule:nonzero;"/><path d="M387.875,502.396l-69.854,10.975l3.137,19.962l69.855,-10.975l-3.138,-19.962Z" style="fill:#4568ad;fill-rule:nonzero;"/><path d="M340.071,496.254l-24.121,3.792l2.55,16.217l24.121,-3.792l-2.55,-16.217Z" style="fill:#4568ad;fill-rule:nonzero;"/></g><path d="M254.571,108.875l-0.542,42.583l32.417,4.334l12.625,-83.667l-44.5,36.75Z" style="fill:#fcc21b;fill-rule:nonzero;"/><path d="M247.029,67.625l8.5,70.542l46.042,-5.209c21.417,-2.416 36.458,-22.25 33,-43.5l-4.208,-25.791c-3.875,-23.834 -27.459,-39.125 -50.792,-32.917l-9.25,2.458c-15.208,4.084 -25.167,18.75 -23.292,34.417Z" style="fill:#fcc21b;fill-rule:nonzero;"/><path d="M315.363,82c0.458,3.125 2.875,5.375 5.458,5c2.583,-0.375 4.333,-3.167 3.875,-6.292c-0.458,-3.125 -2.875,-5.375 -5.458,-5c-2.584,0.334 -4.292,3.167 -3.875,6.292" style="fill:#444;fill-rule:nonzero;"/><path d="M245.779,304.625l55.209,0c10.491,0 19.125,-8.633 19.125,-19.125l-10,-99.542c-2,-16.166 -7.042,-43.166 -29.084,-43.166l-19.083,-0c-19,-0 -26.917,22.458 -27.75,42.25l-7.5,100.5c-0.042,10.5 8.5,19.083 19.083,19.083Z" style="fill:#e65100;fill-rule:nonzero;"/><g><path d="M242.771,265.554l30.475,4.963l10.033,-61.642l-30.475,-4.958l-10.033,61.637Z" style="fill:#fcc21b;fill-rule:nonzero;"/><g><path d="M271.241,259.519c-4.688,-7.238 -14.371,-9.308 -21.609,-4.619c-7.237,4.689 -9.307,14.372 -4.618,21.609c4.689,7.238 14.371,9.307 21.609,4.619c7.238,-4.689 9.307,-14.372 4.618,-21.609Z" style="fill:#fcc21b;"/></g><path d="M287.404,230.958l-47.625,-8.625l8.834,-48.708c2.258,-11.262 12.241,-19.442 23.729,-19.442c13.279,0 24.204,10.925 24.204,24.205c-0,1.291 -0.1,2.583 -0.308,3.862l-8.834,48.708Z" style="fill:#bf3f0c;fill-rule:nonzero;"/><path d="M265.471,323.788l28.3,-12.346l-21.138,-48.467l-28.3,12.346l21.138,48.466Z" style="fill:#fcc21b;fill-rule:nonzero;"/><path d="M294.154,349.917c-2.55,1.125 -5.308,1.704 -8.091,1.704c-7.946,-0 -15.175,-4.721 -18.367,-11.996l-4.042,-9.208c-1.125,-2.55 -1.704,-5.309 -1.704,-8.092c0,-7.946 4.721,-15.175 11.996,-18.367c2.55,-1.125 5.308,-1.704 8.092,-1.704c7.945,0 15.175,4.721 18.366,11.996l4.042,9.208c1.121,2.546 1.7,5.3 1.7,8.084c-0,7.946 -4.717,15.175 -11.992,18.375Z" style="fill:#fcc21b;fill-rule:nonzero;"/></g><g><path d="M247.576,135.869c10.901,8.617 13.274,-8.296 18.567,-20.606c2.939,-6.837 9.824,-13.401 9.396,-19.385c-0.757,-10.519 1.441,-10.262 5.641,-13.33c-0,0 6.782,11.198 9.735,11.871c2.953,0.673 7.159,-2.734 7.976,-7.832l1.621,-10.152c0.701,-4.396 3.484,-8.198 7.463,-10.198c-0,-0 30.269,-9.622 22.898,-33.181c-5.418,-17.318 -7.677,3.965 -41.424,-8.021c-5.485,-1.949 -15.256,-1.382 -20.663,-0.318c-25.042,4.875 -39.812,28.21 -30.118,51.787c7.677,18.671 -16.207,39.498 8.908,59.365Z" style="fill:#6d4c41;fill-rule:nonzero;"/></g></svg>