<?xml version="1.0" encoding="UTF-8" standalone="no"?>
<!DOCTYPE svg PUBLIC "-//W3C//DTD SVG 1.1//EN" "http://www.w3.org/Graphics/SVG/1.1/DTD/svg11.dtd">
<svg width="100%" height="100%" viewBox="0 0 128 128" version="1.1" xmlns="http://www.w3.org/2000/svg" xmlns:xlink="http://www.w3.org/1999/xlink" xml:space="preserve" xmlns:serif="http://www.serif.com/" style="fill-rule:evenodd;clip-rule:evenodd;stroke-linejoin:round;stroke-miterlimit:2;">
    <path id="path39677" d="M32.09,3.96C32.09,3.96 19.77,7.32 13.85,25.08C7.67,43.61 16.24,53.44 16.24,53.44L86.33,86.02L90.56,84.61L99.3,79.09L109.12,62.51L114.48,39.55L109.58,25.09L32.09,3.96Z" style="fill:rgb(203,219,224);fill-opacity:0.7;fill-rule:nonzero;"/>
    <path id="path39679" d="M39.57,11.47C33.34,9.42 23.74,18.4 21.22,29.73C18.7,41.06 20.94,50.33 26.56,52.39C32.18,54.45 40.7,45.65 43.7,35.25C46.69,24.86 46.13,13.62 39.57,11.47Z" style="fill:rgb(175,199,207);fill-rule:nonzero;"/>
    <path id="path39685" d="M109.54,25.06L106.89,27.69C106.89,27.69 111.22,27.83 112.11,35.31C112.92,42.06 111.8,49.89 109.23,57.37C106.37,65.71 101.4,74.17 95.74,79.29C91.4,83.22 88.09,82.15 88.09,82.15L86.33,86.03C86.33,86.03 91.5,88.28 98.3,82.08C105.03,75.95 109.85,66.95 112.6,58.55C115.9,48.43 116.39,40.63 115.46,34.5C114.55,28.49 112.46,26.09 109.54,25.06Z" style="fill:rgb(134,168,180);fill-rule:nonzero;"/>
    <path id="path39687" d="M23.99,51.59C23.66,52.24 24.74,52.53 30.54,55.32C35.37,57.65 50.18,64.48 63.48,70.32C74.46,75.14 85.97,80.5 86.77,81.08C88.93,82.65 89.69,84.41 89.69,90.58C89.69,98.18 89.16,115.14 89.16,117.86C89.16,121.26 88.71,126.25 92.9,126.48C97.1,126.71 96.87,121.49 96.87,118.77C96.87,116.05 96.87,95.49 94.6,83.79C94.06,81.03 93.14,77.32 87.92,74.18C85.68,72.84 82.52,71.68 78.52,70.11C62.24,63.69 40.95,54.56 32.44,51.5C29.07,50.3 25.06,49.45 23.99,51.59Z" style="fill:rgb(98,192,234);fill-rule:nonzero;"/>
    <path id="path39691" d="M83.36,49.85C79.27,59.97 78.23,71.48 80.11,78.51C81.93,85.31 86.32,86.03 86.32,86.03L88.08,82.15C88.08,82.15 85.65,82.44 84.19,78.36C82.73,74.27 82.73,59.96 86.91,50.34C92.7,37.04 99.73,31.23 102.96,29.55C106.42,27.75 108.9,28.74 108.9,28.74L109.57,25.09C109.57,25.09 104.79,22.87 98.13,27.92C91.81,32.73 86.99,40.86 83.36,49.85Z" style="fill:rgb(134,168,180);fill-rule:nonzero;"/>
</svg>
