<?xml version="1.0" encoding="UTF-8" standalone="no"?>
<svg
   width="128px"
   height="128px"
   version="1.1"
   xml:space="preserve"
   style="fill-rule:evenodd;clip-rule:evenodd;stroke-linejoin:round;stroke-miterlimit:2;"
   id="svg22433"
   sodipodi:docname="saluting face.svg"
   inkscape:version="1.2.2 (732a01da63, 2022-12-09)"
   xmlns:inkscape="http://www.inkscape.org/namespaces/inkscape"
   xmlns:sodipodi="http://sodipodi.sourceforge.net/DTD/sodipodi-0.dtd"
   xmlns="http://www.w3.org/2000/svg"
   xmlns:svg="http://www.w3.org/2000/svg"><defs
     id="defs22437"><linearGradient
       id="SVGID_1_"
       gradientUnits="userSpaceOnUse"
       x1="51.814999"
       y1="59.901798"
       x2="35.739201"
       y2="20.163799">
		<stop
   offset="0"
   style="stop-color:#FFC400"
   id="stop28267" />
		<stop
   offset="1"
   style="stop-color:#FFF176"
   id="stop28269" />
	</linearGradient></defs><sodipodi:namedview
     id="namedview22435"
     pagecolor="#ffffff"
     bordercolor="#000000"
     borderopacity="0.25"
     inkscape:showpageshadow="2"
     inkscape:pageopacity="0.0"
     inkscape:pagecheckerboard="0"
     inkscape:deskcolor="#d1d1d1"
     showgrid="false"
     inkscape:zoom="2.8726213"
     inkscape:cx="27.849129"
     inkscape:cy="74.496419"
     inkscape:window-width="1366"
     inkscape:window-height="697"
     inkscape:window-x="-8"
     inkscape:window-y="-8"
     inkscape:window-maximized="1"
     inkscape:current-layer="svg22433" /><path
     d="M 63.79,9.64 C 1.48,9.64 0,79.5 0,93.33 c 0,13.83 28.56,25.03 63.79,25.03 35.24,0 63.79,-11.21 63.79,-25.03 0,-13.83 -1.47,-83.69 -63.79,-83.69 z"
     style="fill:#fcc21b;fill-rule:nonzero"
     id="path22421" /><path
     d="m 42.21,68.47 c -4.49,0.04 -8.17,-4.27 -8.22,-9.62 -0.05,-5.37 3.55,-9.75 8.04,-9.79 4.48,-0.04 8.17,4.27 8.22,9.64 0.05,5.36 -3.55,9.73 -8.04,9.77 z m 44.11,0 c 4.48,-0.01 8.11,-4.36 8.1,-9.71 -0.01,-5.37 -3.66,-9.7 -8.14,-9.69 -4.49,0.01 -8.13,4.36 -8.12,9.73 0.02,5.35 3.67,9.68 8.16,9.67 z"
     style="fill:#2f2f2f;fill-rule:nonzero"
     id="path22423" /><g
     transform="matrix(0.680022,0,0,0.187061,20.4786,68.834999)"
     id="g22427"
     style="stroke:none;stroke-width:1.00096;stroke-dasharray:none;stroke-opacity:1"><path
       d="m 34.793,96.38 c 14.42,17.508 43.994,17.508 58.414,0 2.31,-2.803 3.558,-11.895 2.787,-20.29 -0.771,-8.395 -3.272,-12.934 -5.581,-10.13 -13.04,15.832 -39.786,15.832 -52.826,0 -2.309,-2.804 -4.81,1.735 -5.581,10.13 -0.771,8.395 0.477,17.487 2.787,20.29 z"
       style="fill:#2f2f2f;stroke:none;stroke-width:1.00096;stroke-dasharray:none;stroke-opacity:1"
       id="path22425" /></g><path
     id="path29183"
     style="fill:#fac036;fill-opacity:1;stroke:#2f2f2f;stroke-width:9.5;stroke-dasharray:none;stroke-opacity:1"
     d="m 62.473611,5.3192906 c -0.686397,-0.06727 -1.38047,0.10008 -1.886718,0.580078 -1.749998,1.339998 -4.250237,3.43094 -5.490235,4.4609384 l -0.589843,0.378906 c -1.749998,4.509991 -4.899227,5.980003 -8.699219,7.749999 -3.419994,1.669998 -6.7911,2.860162 -9.371094,5.410156 -0.31,0.37 -1.15008,0.430313 -1.580078,0.570313 -0.5,0.13 -1.028361,-0.07977 -1.318359,-0.509766 -1.649998,-2.269994 8.049222,-6.42 9.699218,-7.25 2.929994,-1.359996 6.179377,-2.570863 7.359375,-4.130859 1.439998,-1.909995 0.399842,-3.1503904 -0.410156,-3.6503904 -0.839998,-0.519998 -2.018596,-0.61914 -3.058594,-0.11914 -0.779998,0.379998 -2.249691,1.2596114 -4.429687,2.3496094 -4.259992,2.219995 -8.580243,4.120784 -13.240235,5.30078 -2.609994,0.74 -5.57032,1.589145 -9.570312,3.119141 -6.935544,2.658461 -14.8673372,7.642126 -14.5058572,21.046875 0.6168,3.126851 1.999918,5.982943 4.124998,8.113281 -1.639998,-1.649996 13.6604382,13.65075 37.4003902,-2.199218 0,-10e-7 9.421018,-6.61969 10.541016,-7.429688 2.089996,-1.519996 1.948594,-2.471094 2.058594,-2.871094 0.201001,-0.711237 -0.554586,-1.663908 -0.982422,-2.140625 -3.423201,2.141035 -13.562662,8.789011 -15.046875,8.320313 -7.249986,-2.279996 -13.209227,-0.978824 -17.449219,1.701172 -0.47,0.299998 -1.170236,0.888748 -1.490234,0.46875 -0.32,-0.42 0.659767,-1.430002 1.259765,-2 5.37999,-5.07999 14.898836,-4.520153 18.548828,-2.910157 1.639998,0.72 9.870475,-5.969455 13.230469,-7.689453 5.669988,-4.049992 14.530785,-6.729389 16.300781,-14.109375 0.63,-2.599994 -1.380859,-2.830078 -1.380859,-2.830078 -3.259994,4.399992 -7.648996,8.270475 -12.958984,10.980469 -2.999996,1.709996 -5.440081,3.589691 -6.580079,4.929687 -1.139996,1.339998 -1.391095,0.989844 -1.871093,1.089844 -1.149998,0.28 -1.639375,-1.171017 -0.859375,-2.041015 1.579996,-1.889998 4.880709,-4.009926 8.220703,-5.919922 3.729992,-2.139996 7.278443,-4.219772 9.898437,-7.009766 2.959994,-3.159994 3.590235,-4.349455 4.240235,-5.689453 1.449996,-2.9599934 0.200621,-5.2204684 -1.609375,-5.2304684 -1.669998,0.02 -3.479846,0.970471 -4.089844,2.480469 -2.059996,5.1199894 -6.920793,9.1907864 -12.050781,12.3007804 -3.879992,2.309996 -7.078596,4.368129 -8.308594,5.828125 -1.229998,1.459998 -1.941408,1.651016 -2.441406,1.791016 -1.099998,0.309998 -1.99953,-1.09094 -1.269532,-1.960938 4.399992,-5.259988 14.679696,-9.160008 18.929688,-13.5 2.359996,-2.569993 3.479687,-4.1398464 3.179687,-5.8398424 -0.187499,-1.062499 -1.309128,-1.827332 -2.453125,-1.939454 z"
     sodipodi:nodetypes="sccccccccccccccccccccccsccccccsccccccccscccss" /><path
     id="path28485"
     style="fill:#fac036;fill-opacity:1;stroke:none;stroke-width:6;stroke-dasharray:none;stroke-opacity:1"
     d="m 62.473611,5.3192906 c -0.686397,-0.06727 -1.38047,0.10008 -1.886718,0.580078 -1.749998,1.339998 -4.250237,3.43094 -5.490235,4.4609384 l -0.589843,0.378906 c -1.749998,4.509991 -4.899227,5.980003 -8.699219,7.749999 -3.419994,1.669998 -6.7911,2.860162 -9.371094,5.410156 -0.31,0.37 -1.15008,0.430313 -1.580078,0.570313 -0.5,0.13 -1.028361,-0.07977 -1.318359,-0.509766 -1.649998,-2.269994 8.049222,-6.42 9.699218,-7.25 2.929994,-1.359996 6.179377,-2.570863 7.359375,-4.130859 1.439998,-1.909995 0.399842,-3.1503904 -0.410156,-3.6503904 -0.839998,-0.519998 -2.018596,-0.61914 -3.058594,-0.11914 -0.779998,0.379998 -2.249691,1.2596114 -4.429687,2.3496094 -4.259992,2.219995 -8.580243,4.120784 -13.240235,5.30078 -2.609994,0.74 -5.57032,1.589145 -9.570312,3.119141 -6.935544,2.658461 -14.8673372,7.642126 -14.5058572,21.046875 0.6168,3.126851 1.999918,5.982943 4.124998,8.113281 -1.639998,-1.649996 13.6604382,13.65075 37.4003902,-2.199218 0,-10e-7 9.421018,-6.61969 10.541016,-7.429688 2.089996,-1.519996 1.948594,-2.471094 2.058594,-2.871094 0.201001,-0.711237 -0.554586,-1.663908 -0.982422,-2.140625 -3.423201,2.141035 -13.562662,8.789011 -15.046875,8.320313 -7.249986,-2.279996 -13.209227,-0.978824 -17.449219,1.701172 -0.47,0.299998 -1.170236,0.888748 -1.490234,0.46875 -0.32,-0.42 0.659767,-1.430002 1.259765,-2 5.37999,-5.07999 14.898836,-4.520153 18.548828,-2.910157 1.639998,0.72 9.870475,-5.969455 13.230469,-7.689453 5.669988,-4.049992 14.530785,-6.729389 16.300781,-14.109375 0.63,-2.599994 -1.380859,-2.830078 -1.380859,-2.830078 -3.259994,4.399992 -7.648996,8.270475 -12.958984,10.980469 -2.999996,1.709996 -5.440081,3.589691 -6.580079,4.929687 -1.139996,1.339998 -1.391095,0.989844 -1.871093,1.089844 -1.149998,0.28 -1.639375,-1.171017 -0.859375,-2.041015 1.579996,-1.889998 4.880709,-4.009926 8.220703,-5.919922 3.729992,-2.139996 7.278443,-4.219772 9.898437,-7.009766 2.959994,-3.159994 3.590235,-4.349455 4.240235,-5.689453 1.449996,-2.9599934 0.200621,-5.2204684 -1.609375,-5.2304684 -1.669998,0.02 -3.479846,0.970471 -4.089844,2.480469 -2.059996,5.1199894 -6.920793,9.1907864 -12.050781,12.3007804 -3.879992,2.309996 -7.078596,4.368129 -8.308594,5.828125 -1.229998,1.459998 -1.941408,1.651016 -2.441406,1.791016 -1.099998,0.309998 -1.99953,-1.09094 -1.269532,-1.960938 4.399992,-5.259988 14.679696,-9.160008 18.929688,-13.5 2.359996,-2.569993 3.479687,-4.1398464 3.179687,-5.8398424 -0.187499,-1.062499 -1.309128,-1.827332 -2.453125,-1.939454 z"
     sodipodi:nodetypes="sccccccccccccccccccccccsccccccsccccccccscccss" /></svg>
