<?xml version="1.0" encoding="UTF-8" standalone="no"?><!DOCTYPE svg PUBLIC "-//W3C//DTD SVG 1.1//EN" "http://www.w3.org/Graphics/SVG/1.1/DTD/svg11.dtd"><svg width="100%" height="100%" viewBox="0 0 534 534" version="1.1" xmlns="http://www.w3.org/2000/svg" xmlns:xlink="http://www.w3.org/1999/xlink" xml:space="preserve" xmlns:serif="http://www.serif.com/" style="fill-rule:evenodd;clip-rule:evenodd;stroke-linejoin:round;stroke-miterlimit:2;"><g><g><path d="M328.304,476.89l47.676,-41.532l-75.557,-109.262l-65.101,46.006l92.982,104.788Z" style="fill:#f1ca7e;fill-rule:nonzero;"/></g><g><g><path d="M375.28,433.58c-10.455,-14.06 -30.358,-16.986 -44.418,-6.531c-14.06,10.455 -16.987,30.358 -6.532,44.418c10.455,14.06 30.358,16.986 44.418,6.531c14.06,-10.455 16.987,-30.358 6.532,-44.418Z" style="fill:#f4d598;"/></g><g><path d="M201.613,406.722l-7.294,54.361l154.64,23.54l3.984,-63.685l-151.33,-14.216Z" style="fill:#f4d598;fill-rule:nonzero;"/></g></g><g><path d="M164.759,419.313l-6.299,47.097c-1.143,8.461 4.101,16.582 12.285,19.015c0.87,0.259 1.761,0.447 2.657,0.567c9.549,1.268 18.314,-5.394 19.582,-14.943l6.3,-47.096c1.268,-9.549 -5.394,-18.314 -14.942,-19.582c-9.468,-1.269 -18.303,5.473 -19.583,14.942Z" style="fill:#4568ad;fill-rule:nonzero;"/><path d="M175.119,486.264l10.928,-81.65l-23.334,-3.121l-10.928,81.65l23.334,3.121Z" style="fill:#4568ad;fill-rule:nonzero;"/><path d="M197.843,434.919l3.771,-28.195l-18.956,-2.534l-3.771,28.194l18.956,2.535Z" style="fill:#4568ad;fill-rule:nonzero;"/></g><path d="M245.564,144.053l-0.631,49.61l37.765,5.048l14.708,-97.471l-51.842,42.813Z" style="fill:#bf8f68;fill-rule:nonzero;"/><path d="M236.778,95.998l9.902,82.18l53.638,-6.068c24.95,-2.815 42.474,-25.921 38.445,-50.677l-4.903,-30.047c-4.514,-27.765 -31.989,-45.58 -59.172,-38.347l-10.776,2.864c-17.717,4.757 -29.319,21.843 -27.134,40.095Z" style="fill:#bf8f68;fill-rule:nonzero;"/><path d="M241.583,151.966l24.514,-7.476l-0.777,-17.766c-0.291,-5.97 2.767,-11.601 7.912,-14.659l8.301,18.64c5.679,-1.748 10.062,-6.335 11.553,-12.087l2.961,-11.456c1.281,-4.961 4.883,-9.014 9.659,-10.873l27.038,-10.388c-0,0 -4.903,-38.784 -43.785,-38.833c-6.698,0 -13.3,0.34 -19.61,0.971c-29.222,2.864 -49.075,31.018 -42.085,59.511c3.64,15.194 8.446,29.999 14.319,44.416Z" style="fill:#6d4c41;fill-rule:nonzero;"/><path d="M316.385,112.744c0.534,3.641 3.35,6.262 6.359,5.825c3.01,-0.437 5.048,-3.689 4.515,-7.329c-0.534,-3.641 -3.35,-6.262 -6.359,-5.825c-3.01,0.388 -5,3.689 -4.515,7.329" style="fill:#444;fill-rule:nonzero;"/><path d="M235.321,372.1l64.318,0c12.222,0 22.28,-10.057 22.28,-22.28l-11.65,-115.965c-2.33,-18.834 -8.203,-50.289 -33.882,-50.289l-22.232,0c-22.134,0 -31.357,26.164 -32.328,49.221l-8.737,117.081c-0.049,12.233 9.902,22.232 22.231,22.232Z" style="fill:#651fff;fill-rule:nonzero;"/><path d="M231.817,326.583l35.503,5.781l11.689,-71.812l-35.504,-5.776l-11.688,71.807Z" style="fill:#bf8f68;fill-rule:nonzero;"/><g><path d="M264.985,319.552c-5.463,-8.432 -16.743,-10.843 -25.175,-5.381c-8.432,5.463 -10.842,16.743 -5.38,25.175c5.462,8.432 16.742,10.842 25.174,5.38c8.432,-5.462 10.843,-16.742 5.381,-25.174Z" style="fill:#bf8f68;"/></g><path d="M283.814,286.279l-55.483,-10.048l10.291,-56.744c2.631,-13.121 14.262,-22.65 27.644,-22.65c15.471,0 28.198,12.728 28.198,28.198c0,1.505 -0.116,3.009 -0.359,4.5l-10.291,56.744Z" style="fill:#3615af;fill-rule:nonzero;"/><path d="M258.262,394.424l32.969,-14.382l-24.625,-56.464l-32.969,14.383l24.625,56.463Z" style="fill:#bf8f68;fill-rule:nonzero;"/><path d="M291.678,424.865c-2.971,1.31 -6.184,1.985 -9.427,1.985c-9.257,-0 -17.679,-5.5 -21.397,-13.975l-4.708,-10.728c-1.311,-2.97 -1.986,-6.184 -1.986,-9.426c0,-9.257 5.5,-17.679 13.975,-21.397c2.971,-1.311 6.184,-1.986 9.427,-1.986c9.257,0 17.679,5.5 21.397,13.975l4.708,10.728c1.306,2.966 1.981,6.174 1.981,9.417c-0,9.257 -5.495,17.679 -13.97,21.407Z" style="fill:#bf8f68;fill-rule:nonzero;"/><path d="M225.953,98.667c-0,0 -26.358,6.359 -21.892,49.464c3.543,34.367 -23.057,65.725 -23.057,65.725c-0,-0 39.415,-13.398 57.23,-49.124c17.815,-35.726 -12.281,-66.065 -12.281,-66.065Z" style="fill:#6d4c41;fill-rule:nonzero;"/></g></svg>