<?xml version="1.0" encoding="UTF-8" standalone="no"?><!DOCTYPE svg PUBLIC "-//W3C//DTD SVG 1.1//EN" "http://www.w3.org/Graphics/SVG/1.1/DTD/svg11.dtd"><svg width="100%" height="100%" viewBox="0 0 534 534" version="1.1" xmlns="http://www.w3.org/2000/svg" xmlns:xlink="http://www.w3.org/1999/xlink" xml:space="preserve" xmlns:serif="http://www.serif.com/" style="fill-rule:evenodd;clip-rule:evenodd;stroke-linejoin:round;stroke-miterlimit:2;"><g><g><path d="M133.625,535.542l266.667,0.083l-0,-167.292c-0,-51.166 -38.25,-82.208 -87.75,-90.75c-32.125,-5.541 -63.417,-3.5 -92,3.25c-46.792,11.125 -86.917,40.125 -86.917,87.5l-0,167.209Z" style="fill:#da4105;fill-rule:nonzero;"/><path d="M166.375,535.533l-33.333,0l-0,-130.875l33.333,0l0,130.875Zm200.583,-130.866l33.334,-0l-0,130.875l-33.334,-0l0,-130.875Z" style="fill:#fcc21b;fill-rule:nonzero;"/><path d="M266.75,308.833c-16.125,0 -29.167,-13.041 -29.167,-29.166l0,-26.75l58.334,-0l-0,26.75c-0,16.125 -13.084,29.166 -29.167,29.166Z" style="fill:#e59900;fill-rule:nonzero;"/><path d="M354.5,155.083c-0,0 16.083,2.792 16.083,20.125c0,15.292 -11.75,21.334 -23.5,21.334l0,-41.459l7.417,0Zm-175.542,0c0,0 -16.083,2.792 -16.083,20.125c-0,15.292 11.75,21.334 23.5,21.334l-0,-41.459l-7.417,0Z" style="fill:#e59600;fill-rule:nonzero;"/><path d="M266.75,41.583c-69.375,0 -87.5,53.75 -87.5,129.292c-0,78.333 50.333,98.583 87.5,98.583c36.625,0 87.5,-19.666 87.5,-98.583c-0,-75.5 -18.167,-129.292 -87.5,-129.292Z" style="fill:#fcc21b;fill-rule:nonzero;"/><path d="M237.917,177.917c-0,7.791 -5.209,14.125 -11.667,14.125c-6.458,-0 -11.708,-6.334 -11.708,-14.125c-0,-7.834 5.25,-14.125 11.708,-14.125c6.458,-0.042 11.667,6.291 11.667,14.125m57.625,-0c-0,7.791 5.208,14.125 11.708,14.125c6.458,-0 11.708,-6.334 11.708,-14.125c0,-7.834 -5.25,-14.125 -11.708,-14.125c-6.5,-0.042 -11.708,6.291 -11.708,14.125" style="fill:#444;fill-rule:nonzero;"/><path d="M292.083,225.625l-50.666,0c-2.917,0 -4.167,1.958 -2.25,4.875c2.708,4.083 12.666,11.958 27.541,11.958c14.875,0 24.875,-7.875 27.542,-11.958c1.958,-2.917 0.708,-4.875 -2.167,-4.875Z" style="fill:#513f35;fill-rule:nonzero;"/><path d="M278.958,204.083c-4.291,1.209 -8.791,1.834 -12.25,1.834c-3.458,-0 -7.916,-0.584 -12.25,-1.834c-1.833,-0.541 -2.583,1.209 -1.916,2.375c1.375,2.417 6.875,7.25 14.125,7.25c7.25,0 12.791,-4.833 14.125,-7.25c0.75,-1.166 0.041,-2.916 -1.834,-2.375Z" style="fill:#e59600;fill-rule:nonzero;"/><path d="M203.491,54.992c14.011,-11.12 33.63,-20.494 61.266,-21.042c0,-0 1.317,-0.053 1.924,-0.053c0.547,-0 1.915,0.053 1.915,0.053c19.976,0.562 36.362,5.687 49.46,12.8c4.37,1.379 8.562,3.174 12.194,5.252c2.207,1.261 4.209,2.662 6.195,4.246c0.41,0.328 1.918,1.16 2.052,1.66c0.155,0.558 -1.154,-0.085 -1.735,-0.135c-0.831,-0.071 -1.674,-0.129 -2.508,-0.236l-0.272,-0.031c3.238,2.673 6.158,5.434 8.762,8.192c1.454,0.876 2.895,1.836 4.316,2.912c1.764,1.331 3.207,2.968 4.592,4.67c0.477,0.59 0.971,1.166 1.387,1.806c0.261,0.401 1.238,1.154 0.767,1.207c-0.882,0.102 -1.944,-0.365 -2.901,-0.671c2.631,3.704 4.673,7.218 6.15,10.287c5.198,10.82 8.236,21.301 9.896,30.886c3.134,4.193 5.684,8.762 6.153,13.252c0.073,0.694 -1.081,-0.882 -1.643,-1.283c-1.047,-0.753 -2.154,-1.407 -3.232,-2.109c0.578,6.714 0.525,12.794 0.171,17.992c1.986,2.416 4.934,5.572 5.283,8.757c0.028,0.289 -0.531,-0.242 -0.789,-0.371c-0.725,-0.359 -1.385,-0.696 -2.045,-1.177c-1,-0.724 -1.971,-1.508 -2.884,-2.35c-0.977,8.731 -2.637,13.949 -2.637,13.949c-0,-0 -1.149,-1.202 -3.339,-2.904c-2.359,-1.809 -4.934,-2.851 -4.934,-2.851c3.44,15.539 6.366,40.395 -0,51.145c-10.363,-8.694 -24.469,-38.457 -28.319,-89.441c-3.522,3.083 -7.105,5.852 -10.197,7.164c0.225,0.935 0.446,1.867 0.741,2.743c0.337,1.003 0.736,1.991 1.225,2.927c0.261,0.494 1.412,1.524 0.859,1.437c-1.342,-0.202 -3.384,-2.263 -4.575,-2.999c-2.406,-1.494 -4.937,-2.735 -7.61,-3.572c-2.64,-0.166 -5.277,-0.418 -7.872,-0.865c0.972,3.255 1.761,6.574 2.047,9.955c0.102,1.202 0.225,4.699 -0.699,5.541c0,0 -0.879,-1.179 -0.949,-1.283c-0.601,-0.859 -1.213,-1.713 -1.825,-2.561c-1.758,-2.427 -3.508,-4.836 -5.533,-7.055c-3.757,-4.122 -7.644,-8.017 -11.958,-11.345c-4.161,-1.89 -8.326,-3.769 -12.73,-5.123c-5.852,-1.805 -11.873,-2.052 -17.849,-3.142c-1.042,-0.194 -2.078,-0.435 -3.103,-0.713c-0.601,0.022 -1.202,0.047 -1.798,0.081c3.41,8.248 4.553,17.386 1.921,25.923c-1.171,3.792 -2.892,7.406 -5.147,10.664c-0.169,0.241 -1.784,2.603 -2.213,2.426c-1.23,-0.514 -3.084,-4.499 -3.856,-5.622c-2.895,-4.213 -5.971,-8.552 -9.621,-12.166c-6.718,-6.664 -14.814,-11.039 -23.127,-15.078c0.509,30.934 -8.953,72.724 -28.566,92.104c-5.057,-11.343 -4.28,-37.19 0,-51.145c0,0 -2.631,1.042 -4.928,2.851c-2.137,1.702 -3.348,2.904 -3.348,2.904c0,-0 -3.715,-13.907 -3.768,-31.481c-0.989,0.87 -2.769,3.1 -3.893,3.277c-0.328,0.053 0.059,-0.666 0.096,-1c0.092,-0.8 0.222,-1.601 0.351,-2.395c0.3,-1.851 0.696,-3.688 1.219,-5.493c0.696,-2.427 1.69,-4.699 2.856,-6.884c1.185,-11.098 4.257,-22.668 10.75,-32.576c-1.323,-0.101 -2.606,-0.236 -3.82,-0.382c-1.555,-0.193 -3.114,-0.519 -4.586,-1.061c-0.19,-0.07 -1.207,-0.301 -1.272,-0.506c0,0 2.809,-1.359 3.238,-1.589c3.55,-1.885 7.052,-4.016 10.498,-6.094c1.8,-1.09 3.631,-2.309 5.439,-3.615c3.174,-4.032 6.937,-8.354 11.411,-12.617c-1.225,-0.972 -2.315,-2.165 -3.227,-3.651c-1.031,-1.688 -1.997,-3.631 -2.233,-5.622c-0.081,-0.677 0.385,-2.407 1.534,-2.185c3.047,0.584 4.42,4.987 7.722,5.734c0.837,0.189 2.02,-0.028 3.151,-0.323Z" style="fill:#6d4c41;fill-rule:nonzero;"/></g></g><g><g><path d="M356.5,538l-179.667,0c-1.291,0 0,-29.75 0,-29.75c0,-41 52.209,-54.75 70.334,-54.75l39.041,0c18.125,0 70.292,13.75 70.292,54.75l0,1.167c0,1.458 1.292,28.583 0,28.583Z" style="fill:#f28d5e;fill-rule:nonzero;"/><path d="M266.625,484.583c-10.721,0 -19.542,-8.82 -19.542,-19.541l0,-15l39.125,-0l0,15c0,10.791 -8.75,19.541 -19.583,19.541Z" style="fill:#e59900;fill-rule:nonzero;"/><g><ellipse cx="266.667" cy="365.105" rx="86.25" ry="88.396" style="fill:#6d4c41;"/></g><g><path d="M337.292,378c-0,0 13.125,2.292 13.125,16.417c-0,12.5 -9.584,17.416 -19.167,17.416l0,-33.833l6.042,0Zm-141.25,0c-0,0 -13.125,2.292 -13.125,16.417c-0,12.5 9.583,17.416 19.166,17.416l0,-33.833l-6.041,0Z" style="fill:#e59600;fill-rule:nonzero;"/></g><path d="M316.667,335.542c-11.959,-14.875 -32.542,-21.292 -50,-21.292c-17.417,0 -38.042,6.375 -50,21.292c-11.709,14.583 -17.834,33.375 -17.75,58.625c0.083,20.375 5.333,36 20.083,48.333c13.667,11.417 29.5,17.583 46.625,17.583c16.833,0 35.417,-5.875 48.583,-17.458c14.459,-12.708 20.042,-28.083 20.125,-48.417c0.167,-25.291 -6,-44.083 -17.666,-58.666Z" style="fill:#fcc21b;fill-rule:nonzero;"/><path d="M276.542,409.458c-3.5,1 -7.084,1.459 -9.875,1.459c-2.792,-0 -6.417,-0.5 -9.875,-1.459c-1.5,-0.416 -2.084,1 -1.542,1.917c1.125,1.958 5.542,5.875 11.417,5.875c5.875,0 10.333,-3.917 11.416,-5.875c0.542,-0.917 -0.041,-2.333 -1.541,-1.917Z" style="fill:#e59600;fill-rule:nonzero;"/><path d="M287.125,425.542l-40.917,-0c-2.333,-0 -3.375,1.583 -1.791,3.958c2.166,3.292 10.25,9.667 22.25,9.667c12.041,-0 20.083,-6.375 22.291,-9.667c1.542,-2.375 0.542,-3.958 -1.833,-3.958Z" style="fill:#513f35;fill-rule:nonzero;"/><g><path d="M239.583,394.75c0,6.042 -4.041,10.917 -9.041,10.917c-5,-0 -9.042,-4.875 -9.042,-10.917c0,-6.042 4.083,-10.958 9.042,-10.958c5,0.041 9.041,4.916 9.041,10.958m72.292,0c0,6.042 -4.042,10.917 -9.042,10.917c-5,-0 -9.041,-4.875 -9.041,-10.917c-0,-6.042 4.083,-10.958 9.041,-10.958c5,0.041 9.042,4.916 9.042,10.958" style="fill:#444;fill-rule:nonzero;"/></g><g><path d="M195.208,377.5c0,-0 19.667,-17.916 26.875,-23.936c0.459,-0.399 1.209,-0.072 1.125,0.508c-0.291,2.502 -0.5,5.222 -0.625,6.854c-0.041,0.762 0.75,1.378 1.625,1.233c14.125,-2.321 27.709,-7.434 31.334,-8.885c0.458,-0.181 0.916,0.145 0.916,0.544c-0.083,2.285 -0.041,4.461 0,5.766c0,0.726 0.75,1.27 1.584,1.161c12.958,-1.741 23.75,-6.347 27.333,-8.015c0.833,-0.399 1.75,-0.471 2.667,-0.181c6.708,2.103 14.875,6.238 17.833,7.761c0.667,0.326 1.5,0.145 1.875,-0.435c1.125,-1.777 2.708,-4.497 3.417,-5.803c0.208,-0.363 0.75,-0.435 1.041,-0.181c10.542,9.066 25.959,23.573 25.959,23.573l10.875,-30.391c-0,-0 -17.625,-54.073 -78.834,-54.073c-61.208,-0 -84.416,57.736 -84.416,57.736l9.416,26.764Z" style="fill:#6d4c41;fill-rule:nonzero;"/></g></g></g></svg>