<?xml version="1.0" encoding="UTF-8" standalone="no"?><!DOCTYPE svg PUBLIC "-//W3C//DTD SVG 1.1//EN" "http://www.w3.org/Graphics/SVG/1.1/DTD/svg11.dtd"><svg width="100%" height="100%" viewBox="0 0 534 534" version="1.1" xmlns="http://www.w3.org/2000/svg" xmlns:xlink="http://www.w3.org/1999/xlink" xml:space="preserve" xmlns:serif="http://www.serif.com/" style="fill-rule:evenodd;clip-rule:evenodd;stroke-linejoin:round;stroke-miterlimit:2;"><g><path d="M267.887,374.483c-12.965,-7.623 -29.679,-3.286 -37.302,9.679c-7.622,12.965 -3.285,29.679 9.68,37.302c12.965,7.623 29.679,3.285 37.302,-9.68c7.622,-12.964 3.285,-29.679 -9.68,-37.301Z" style="fill:#59667c;"/><path d="M226.862,398.083l54.125,3.834l20.709,-112.125l-67.75,-7.459l-7.084,115.75Z" style="fill:#59667c;fill-rule:nonzero;"/><path d="M165.571,460.125l34.375,33l73.958,-76.417l-38.833,-36l-69.5,79.417Z" style="fill:#59667c;fill-rule:nonzero;"/></g><g><path d="M155.737,492.125l29.5,28.167c2.783,2.658 6.486,4.143 10.334,4.143c4.093,-0 8.011,-1.68 10.833,-4.643c2.659,-2.783 4.143,-6.486 4.143,-10.334c0,-4.093 -1.679,-8.011 -4.643,-10.833l-29.5,-28.167c-2.782,-2.658 -6.486,-4.143 -10.334,-4.143c-4.092,0 -8.01,1.68 -10.833,4.643c-2.658,2.783 -4.143,6.486 -4.143,10.334c0,4.093 1.68,8.011 4.643,10.833Z" style="fill:#4568ad;fill-rule:nonzero;"/><path d="M207.412,518.667l-51.15,-48.821l-13.954,14.621l51.154,48.816l13.95,-14.616Z" style="fill:#4568ad;fill-rule:nonzero;"/><path d="M183.258,476.971l-17.666,-16.858l-11.334,11.874l17.667,16.859l11.333,-11.875Z" style="fill:#4568ad;fill-rule:nonzero;"/></g><g><path d="M347.509,388.577c-0.689,-15.024 -13.446,-26.662 -28.47,-25.973c-15.024,0.688 -26.662,13.445 -25.973,28.469c0.689,15.024 13.445,26.662 28.469,25.973c15.024,-0.688 26.662,-13.445 25.974,-28.469Z" style="fill:#818c9b;"/><path d="M297.571,404.792l47.458,-26.334l-43.875,-105.25l-60.833,30.709l57.25,100.875Z" style="fill:#818c9b;fill-rule:nonzero;"/><path d="M315.946,500.625l47.125,-7.292l-15.792,-107.416l-52.208,9l20.875,105.708Z" style="fill:#818c9b;fill-rule:nonzero;"/></g><g><path d="M335.321,527.292l40.291,-6.334c7.244,-1.127 12.641,-7.429 12.641,-14.759c-0,-0.779 -0.061,-1.555 -0.182,-2.324c-1.292,-8.167 -8.917,-13.75 -17.084,-12.458l-40.291,6.333c-8.167,1.292 -13.75,8.917 -12.459,17.083c1.273,8.101 8.982,13.723 17.084,12.459Z" style="fill:#4568ad;fill-rule:nonzero;"/><path d="M387.875,502.396l-69.854,10.975l3.137,19.962l69.854,-10.975l-3.137,-19.962Z" style="fill:#4568ad;fill-rule:nonzero;"/><path d="M340.071,496.254l-24.121,3.792l2.55,16.217l24.121,-3.792l-2.55,-16.217Z" style="fill:#4568ad;fill-rule:nonzero;"/></g><path d="M254.571,108.875l-0.542,42.583l32.417,4.334l12.625,-83.667l-44.5,36.75Z" style="fill:#fadcbc;fill-rule:nonzero;"/><path d="M247.029,67.625l8.5,70.542l46.042,-5.209c21.416,-2.416 36.458,-22.25 33,-43.5l-4.208,-25.791c-3.875,-23.834 -27.459,-39.125 -50.792,-32.917l-9.25,2.458c-15.208,4.084 -25.167,18.75 -23.292,34.417Z" style="fill:#fadcbc;fill-rule:nonzero;"/><path d="M251.154,115.667l21.042,-6.417l-0.667,-15.25c-0.25,-5.125 2.375,-9.958 6.792,-12.583l7.125,16c4.876,-1.502 8.636,-5.436 9.916,-10.375l2.542,-9.834c1.102,-4.259 4.192,-7.737 8.292,-9.333l23.208,-8.917c0,0 -4.208,-33.291 -37.583,-33.333c-5.75,-0 -11.417,0.292 -16.834,0.833c-25.083,2.459 -42.125,26.625 -36.125,51.084c3.125,13.041 7.25,25.75 12.292,38.125Z" style="fill:#212121;fill-rule:nonzero;"/><path d="M315.362,82c0.459,3.125 2.875,5.375 5.459,5c2.583,-0.375 4.333,-3.167 3.875,-6.292c-0.459,-3.125 -2.875,-5.375 -5.459,-5c-2.583,0.334 -4.291,3.167 -3.875,6.292" style="fill:#c17b47;fill-rule:nonzero;"/><path d="M245.779,304.625l55.208,0c10.492,0 19.125,-8.633 19.125,-19.125l-10,-99.542c-2,-16.166 -7.041,-43.166 -29.083,-43.166l-19.083,-0c-19,-0 -26.917,22.458 -27.75,42.25l-7.5,100.5c-0.042,10.5 8.5,19.083 19.083,19.083Z" style="fill:#00bfa5;fill-rule:nonzero;"/><g><path d="M242.771,265.554l30.475,4.963l10.033,-61.642l-30.475,-4.958l-10.033,61.637Z" style="fill:#fadcbc;fill-rule:nonzero;"/><path d="M271.241,259.518c-4.688,-7.237 -14.371,-9.307 -21.609,-4.618c-7.237,4.689 -9.307,14.371 -4.618,21.609c4.689,7.238 14.371,9.307 21.609,4.618c7.238,-4.688 9.307,-14.371 4.618,-21.609Z" style="fill:#fadcbc;"/><path d="M287.404,230.958l-47.625,-8.625l8.833,-48.708c2.261,-11.263 12.244,-19.442 23.732,-19.442c13.278,0 24.204,10.926 24.204,24.204c-0,1.294 -0.104,2.586 -0.311,3.863l-8.833,48.708Z" style="fill:#04a287;fill-rule:nonzero;"/><path d="M265.471,323.788l28.3,-12.346l-21.138,-48.467l-28.3,12.346l21.138,48.466Z" style="fill:#fadcbc;fill-rule:nonzero;"/><path d="M294.154,349.917c-2.55,1.124 -5.306,1.705 -8.094,1.705c-7.945,0 -15.172,-4.721 -18.364,-11.997l-4.042,-9.208c-1.125,-2.55 -1.706,-5.307 -1.706,-8.094c0,-7.945 4.722,-15.173 11.998,-18.365c2.55,-1.124 5.306,-1.705 8.094,-1.705c7.945,-0 15.172,4.721 18.364,11.997l4.042,9.208c1.121,2.548 1.7,5.302 1.7,8.085c0,7.946 -4.718,15.175 -11.992,18.374Z" style="fill:#fadcbc;fill-rule:nonzero;"/></g></svg>