<?xml version="1.0" encoding="UTF-8" standalone="no"?><!DOCTYPE svg PUBLIC "-//W3C//DTD SVG 1.1//EN" "http://www.w3.org/Graphics/SVG/1.1/DTD/svg11.dtd"><svg width="100%" height="100%" viewBox="0 0 534 534" version="1.1" xmlns="http://www.w3.org/2000/svg" xmlns:xlink="http://www.w3.org/1999/xlink" xml:space="preserve" xmlns:serif="http://www.serif.com/" style="fill-rule:evenodd;clip-rule:evenodd;stroke-linecap:round;stroke-linejoin:round;stroke-miterlimit:1.5;"><g><g><path d="M354.292,326.734l2.104,-52.168l-108.428,-16.601l-9.299,65.164l115.623,3.605Z" style="fill:#818c9b;fill-rule:nonzero;"/></g><g><path d="M218.238,295.433c-2.034,13.291 7.105,25.733 20.396,27.767c13.291,2.035 25.733,-7.105 27.767,-20.396c2.034,-13.29 -7.105,-25.733 -20.396,-27.767c-13.291,-2.034 -25.733,7.105 -27.767,20.396Z" style="fill:#818c9b;"/></g><g><path d="M218.238,295.433l6.284,-41.055l48.167,7.372l-6.284,41.055l-48.167,-7.372Z" style="fill:#818c9b;"/></g></g><g><path d="M234.21,276.081l50.476,-4.8c9.592,-0.912 16.735,-9.556 15.823,-19.148l-17.797,-90.139c-3.234,-14.607 -10.191,-38.854 -30.343,-36.937l-17.447,1.659c-17.371,1.651 -22.657,22.873 -21.698,41.04l1.88,92.537c0.875,9.603 9.43,16.708 19.106,15.788Z" style="fill:#00bfa5;fill-rule:nonzero;"/></g><g><g><g><path d="M333.96,288.924c-4.832,11.798 0.824,25.3 12.622,30.131c11.798,4.832 25.299,-0.824 30.131,-12.622c4.831,-11.798 -0.824,-25.299 -12.622,-30.131c-11.799,-4.832 -25.3,0.824 -30.131,12.622Z" style="fill:#818c9b;"/></g><g><path d="M382.487,407.227l36.613,-15.883l-43.445,-105.202l-41.179,21.451l48.011,99.634Z" style="fill:#818c9b;fill-rule:nonzero;"/></g></g><g><path d="M404.181,425.459l31.712,-13.773c5.702,-2.468 8.792,-8.787 7.232,-14.801c-0.166,-0.639 -0.383,-1.265 -0.646,-1.869c-2.798,-6.426 -10.243,-9.384 -16.669,-6.586l-31.712,13.774c-6.427,2.798 -9.385,10.243 -6.587,16.669c2.767,6.376 10.289,9.347 16.67,6.586Z" style="fill:#4568ad;fill-rule:nonzero;"/><path d="M442.004,393.844l-54.982,23.875l6.824,15.712l54.982,-23.875l-6.824,-15.712Z" style="fill:#4568ad;fill-rule:nonzero;"/><path d="M401.472,398.981l-18.985,8.245l5.544,12.764l18.985,-8.246l-5.544,-12.763Z" style="fill:#4568ad;fill-rule:nonzero;"/></g></g><g><g><path d="M161.903,374.858c-0,-7.861 6.374,-14.235 14.235,-14.235l158.517,-0c7.861,-0 14.235,6.374 14.235,14.235l0,68.403c0,7.862 -6.374,14.24 -14.235,14.24l-158.517,0c-7.861,0 -14.235,-6.378 -14.235,-14.24l-0,-68.403Z" style="fill:#78a3ad;"/></g><g><circle cx="374.935" cy="495.046" r="26.042" style="fill:#848484;stroke:#343434;stroke-width:16.65px;"/></g><g><circle cx="255.398" cy="467.381" r="53.706" style="fill:#848484;stroke:#343434;stroke-width:20.87px;"/></g><g><circle cx="255.396" cy="467.382" r="9.882" style="fill:#343434;"/></g><g><circle cx="135.858" cy="495.046" r="26.042" style="fill:#848484;stroke:#343434;stroke-width:16.65px;"/></g><g><path d="M193.745,332.442c0,-3.777 1.5,-7.399 4.171,-10.069c2.666,-2.671 6.292,-4.17 10.067,-4.17l114.136,0c3.775,0 7.397,1.499 10.067,4.17c2.671,2.67 4.171,6.292 4.171,10.069l0,5.492c0,3.777 -1.5,7.396 -4.171,10.069c-2.67,2.67 -6.292,4.169 -10.067,4.169l-114.136,0c-3.775,0 -7.401,-1.499 -10.067,-4.169c-2.671,-2.673 -4.171,-6.292 -4.171,-10.069l0,-5.492Z" style="fill:#016ca2;"/></g><g><path d="M177.25,179.26c3.744,-0.499 7.533,0.509 10.532,2.804c2.999,2.29 4.964,5.686 5.463,9.428c3.609,27.081 11.467,86.055 15.076,113.136c0.499,3.742 -0.509,7.53 -2.803,10.53c-2.293,3 -5.686,4.965 -9.429,5.464c-1.8,0.24 -3.642,0.486 -5.445,0.726c-3.743,0.499 -7.529,-0.51 -10.531,-2.804c-3,-2.295 -4.964,-5.687 -5.463,-9.429c-3.609,-27.081 -11.468,-86.055 -15.076,-113.136c-0.499,-3.742 0.508,-7.534 2.802,-10.53c2.297,-3 5.686,-4.965 9.43,-5.464c1.803,-0.24 3.645,-0.485 5.444,-0.725Z" style="fill:#016ca2;"/></g><g><path d="M167.508,114.912c7.781,-1.143 15.013,4.239 16.155,12.018c1.334,9.087 3.063,20.862 4.397,29.948c1.142,7.781 -4.238,15.014 -12.019,16.156c-1.797,0.264 -3.635,0.534 -5.434,0.798c-7.781,1.142 -15.013,-4.239 -16.156,-12.02c-1.334,-9.086 -3.062,-20.861 -4.396,-29.948c-1.142,-7.779 4.238,-15.012 12.019,-16.154c1.799,-0.265 3.638,-0.535 5.434,-0.798Z" style="fill:#40c0e7;"/></g><g><path d="M171.026,267.148l115.658,0" style="fill:none;stroke:#282828;stroke-width:20.85px;"/></g><g><path d="M419.662,441.216c0,0 -6.285,3.81 -12.781,7.745c-3.627,2.196 -8.006,2.77 -12.076,1.586c-4.066,-1.189 -7.451,-4.024 -9.33,-7.825c-11.084,-22.409 -31.782,-64.262 -40.613,-82.125c-2.551,-5.157 -7.81,-8.426 -13.564,-8.426l-135.921,0c-7.6,0 -14.025,-5.642 -15.005,-13.182c-6.141,-47.215 -26.666,-205.065 -26.666,-205.065" style="fill:none;stroke:#ed6c30;stroke-width:20.84px;"/></g><path d="M286.684,267.148l-0,-31.93" style="fill:none;stroke:#282828;stroke-width:12.5px;"/><g><path d="M374.937,495.045c-3.581,-6.593 -7.591,-13.098 -9.722,-20.348c-2.35,-8.011 -2.574,-16.423 -4.397,-24.545c-1.823,-8.137 -5.167,-14.646 -8.92,-21.985c-3.665,-7.167 -8.169,-14.958 -15.634,-18.81c-4.286,-2.215 -9.559,-2.732 -14.245,-3.436" style="fill:none;stroke:#ed6c30;stroke-width:12.5px;"/></g><g><path d="M135.856,494.907c3.581,-6.593 7.591,-13.098 9.722,-20.348c2.35,-8.011 2.574,-16.423 4.397,-24.545c1.824,-8.137 5.167,-14.646 8.92,-21.985c3.665,-7.167 8.169,-14.958 15.635,-18.81c4.285,-2.215 9.558,-2.732 14.244,-3.436" style="fill:none;stroke:#ed6c30;stroke-width:12.5px;"/></g></g><g><g><path d="M225.231,96.347l3.207,38.98l30.014,1.144l4.269,-77.592l-37.49,37.468Z" style="fill:#70534a;fill-rule:nonzero;"/></g><g><g><path d="M219.518,56.998l7.821,64.783l42.284,-4.793c19.668,-2.224 33.478,-20.442 30.297,-39.957l-3.87,-23.686c-3.564,-21.888 -25.226,-35.926 -46.654,-30.22l-8.494,2.26c-13.967,3.753 -23.109,17.225 -21.384,31.613Z" style="fill:#70534a;fill-rule:nonzero;"/><path d="M223.316,101.118l19.324,-5.897l-0.616,-14.006c-0.231,-4.706 2.179,-9.146 6.235,-11.557l6.547,14.692c4.477,-1.378 7.931,-4.995 9.105,-9.53l2.332,-9.031c1.01,-3.912 3.848,-7.107 7.613,-8.574l21.313,-8.194c-0,0 -3.872,-30.574 -34.523,-30.605c-5.281,0.001 -10.485,0.27 -15.46,0.769c-23.036,2.263 -38.682,24.461 -33.166,46.922c2.873,11.977 6.664,23.647 11.296,35.011Z" style="fill:#232020;fill-rule:nonzero;"/></g><path d="M282.278,70.185c0.422,2.87 2.642,4.936 5.014,4.591c2.372,-0.345 3.979,-2.909 3.557,-5.779c-0.421,-2.87 -2.641,-4.936 -5.014,-4.591c-2.372,0.307 -3.94,2.91 -3.557,5.779" style="fill:#444;fill-rule:nonzero;"/></g></g><g><g><path d="M228.064,240.621l28.294,1.887l3.814,-57.229l-28.294,-1.884l-3.814,57.226Z" style="fill:#70534a;fill-rule:nonzero;"/></g><g><path d="M253.569,232.628c-4.916,-6.21 -13.949,-7.26 -20.158,-2.344c-6.21,4.916 -7.26,13.948 -2.344,20.158c4.916,6.209 13.948,7.26 20.158,2.344c6.209,-4.916 7.26,-13.949 2.344,-20.158Z" style="fill:#70534a;"/></g><g><path d="M265.863,205.111l-44.292,-3.746l3.842,-45.3c1.085,-10.494 9.502,-18.84 20.004,-19.838c12.141,-1.155 23.079,7.884 24.234,20.025c0.112,1.181 0.133,2.37 0.054,3.558l-3.842,45.301Z" style="fill:#04a287;fill-rule:nonzero;"/></g><g><path d="M253.88,291.888l24.801,-13.747l-23.539,-42.474l-24.801,13.747l23.539,42.474Z" style="fill:#70534a;fill-rule:nonzero;"/></g><g><path d="M282.376,313.284c-2.234,1.25 -4.705,2.02 -7.25,2.262c-7.264,0.69 -14.284,-2.997 -17.835,-9.371l-4.495,-8.068c-1.251,-2.233 -2.02,-4.705 -2.262,-7.25c-0.691,-7.264 2.997,-14.284 9.371,-17.835c2.233,-1.25 4.705,-2.019 7.25,-2.261c7.264,-0.691 14.284,2.997 17.835,9.371l4.495,8.067c1.246,2.23 2.015,4.698 2.257,7.243c0.691,7.264 -2.993,14.284 -9.366,17.842Z" style="fill:#70534a;fill-rule:nonzero;"/></g></g></svg>