<?xml version="1.0" encoding="UTF-8" standalone="no"?>
<!DOCTYPE svg PUBLIC "-//W3C//DTD SVG 1.1//EN" "http://www.w3.org/Graphics/SVG/1.1/DTD/svg11.dtd">
<svg width="100%" height="100%" viewBox="0 0 128 128" version="1.1" xmlns="http://www.w3.org/2000/svg" xmlns:xlink="http://www.w3.org/1999/xlink" xml:space="preserve" xmlns:serif="http://www.serif.com/" style="fill-rule:evenodd;clip-rule:evenodd;stroke-linejoin:round;stroke-miterlimit:2;">
    <g transform="matrix(0.836855,0,0,1,18.9133,-3.54094)">
        <path d="M66.08,18.957C66.894,33.581 62.101,41.228 73.873,69.337C76.721,76.136 75.514,84.304 72.698,92.832C67.678,108.037 38.997,115.283 35.479,87.081C34.253,77.247 31.356,70.621 35.967,62.159C43.326,48.654 44.833,30.514 44.211,20.131L47.565,12.44L63.151,12.142L66.08,18.957Z" style="fill:rgb(191,63,12);"/>
    </g>
    <g>
        <g>
            <clipPath id="_clip1">
                <path d="M74.212,15.416C74.894,30.04 70.883,37.687 80.735,65.796C83.118,72.595 82.108,80.763 79.751,89.291C75.55,104.496 51.548,111.742 48.604,83.54C47.578,73.706 45.153,67.08 49.012,58.618C55.171,45.113 56.432,26.973 55.911,16.59L58.718,8.899L71.761,8.601L74.212,15.416Z"/>
            </clipPath>
            <g clip-path="url(#_clip1)">
                <g transform="matrix(0.989479,0,0,1,-11.0913,23.9289)">
                    <g>
                        <path d="M66.701,11.689C64.597,19.602 62.521,27.522 60.48,35.452C60.286,36.1 60.128,36.76 59.984,37.421C59.871,37.939 59.77,38.461 59.685,38.984C59.441,40.499 59.238,42.168 59.638,43.674C59.832,44.406 60.239,45.144 61.009,45.375C62.039,45.683 63.105,44.507 63.672,43.85C64.994,42.321 65.984,40.477 66.8,38.637C67.221,37.69 67.729,36.626 67.847,35.575C67.765,36.187 67.713,36.805 67.672,37.421C67.641,37.907 67.619,38.395 67.61,38.882C67.586,40.325 67.62,41.87 68.097,43.25C68.314,43.881 68.685,44.596 69.363,44.824C71.521,45.551 73.02,42.772 73.694,41.217C73.855,40.845 74.001,40.467 74.136,40.086C74.295,39.634 74.437,39.177 74.566,38.716C74.726,38.148 74.864,37.573 74.982,36.995C75.135,36.242 75.265,35.477 75.315,34.71C75.28,36.469 75.456,38.241 75.63,39.989C75.72,40.893 75.708,41.96 75.994,42.832C76.425,44.145 77.381,46.452 79.166,45.611C79.463,45.471 79.733,45.274 79.98,45.059C80.371,44.719 80.715,44.327 81.034,43.92C81.696,43.076 82.031,41.97 82.287,40.945C82.709,39.252 82.928,37.475 82.982,35.732C83.08,36.518 83.232,37.3 83.402,38.073C83.839,40.06 84.434,42.128 85.548,43.854C86.09,44.694 86.829,45.536 87.819,45.839C89.156,46.25 90.004,44.984 90.41,43.889C91.044,42.182 91.151,40.253 91.067,38.449C91.027,37.599 90.979,36.66 90.664,35.859C89.517,27.437 88.125,19.052 86.503,10.709C79.902,11.037 73.302,11.363 66.701,11.689Z" style="fill:rgb(216,76,21);"/>
                    </g>
                </g>
            </g>
        </g>
    </g>
    <g transform="matrix(0.801209,0,0,1,5.15195,-0.996621)">
        <g>
            <clipPath id="_clip2">
                <path d="M86.195,16.412C87.046,31.036 82.04,38.684 94.336,66.792C97.31,73.591 96.049,81.76 93.108,90.288C87.865,105.492 57.908,112.738 54.234,84.537C52.952,74.702 49.926,68.076 54.743,59.614C62.429,46.109 64.003,27.969 63.353,17.587L66.856,9.895L83.136,9.597L86.195,16.412Z"/>
            </clipPath>
            <g clip-path="url(#_clip2)">
                <g>
                    <clipPath id="_clip3">
                        <path d="M86.195,16.412C87.046,31.036 82.04,38.684 94.336,66.792C97.31,73.591 96.049,81.76 93.108,90.288C87.865,105.492 57.908,112.738 54.234,84.537C52.952,74.702 49.926,68.076 54.743,59.614C62.429,46.109 64.003,27.969 63.353,17.587L66.856,9.895L83.136,9.597L86.195,16.412Z"/>
                    </clipPath>
                    <g clip-path="url(#_clip3)">
                        <path d="M61.115,11.113L61.728,38.77C61.728,38.77 61.588,45.412 64.045,46.086C65.967,46.614 67.914,40.325 67.876,38.934C67.876,38.934 67.906,45.129 69.849,45.751C72.51,46.603 73.885,40.314 74.016,38.3C73.981,40.084 74.41,44.119 74.506,44.415C75.327,46.925 76.406,47.003 78.056,45.19C79.458,43.648 80.241,39.189 80.241,39.189C80.241,39.189 80.132,45.723 82.557,46.505C84.789,47.225 86.553,40.822 86.387,39.353L90.664,10.258L61.115,11.113Z" style="fill:rgb(231,102,43);"/>
                    </g>
                </g>
            </g>
        </g>
    </g>
    <g transform="matrix(1,0,0,1,0,-3.22578)">
        <g transform="matrix(1,0,0,1,3.42671,-1.39607)">
            <path d="M64.344,53.632C69.152,53.778 74.228,54.193 78.822,52.44C85.713,49.81 90.721,43.507 96.524,38.809C97.886,41.579 99.537,44.902 100.139,47.948C100.453,49.537 100.536,51.196 100.415,52.808C100.154,56.277 97.902,58.865 95.316,61.011C89.353,65.958 77.242,67.577 69.924,69.19" style="fill:rgb(216,76,21);"/>
        </g>
        <path d="M100.018,36.843C101.554,35.041 103.231,33.213 105.266,31.961C108.805,29.783 112.884,29.017 116.545,27.143C117.558,26.626 120.269,24.808 121.389,23.831C121.289,24.556 119.629,28.55 118.548,29.683C116.315,32.024 113.804,33.887 111.061,35.46C106.662,37.984 103.147,40.754 100.764,43.093" style="fill:rgb(231,102,43);"/>
        <g transform="matrix(-0.120736,1.10708,-1.18637,-0.129383,143.935,-43.3584)">
            <path d="M100.018,36.843C101.554,35.041 103.231,33.213 105.266,31.961C108.805,29.783 112.884,29.017 116.545,27.143C117.558,26.626 120.436,24.861 120.517,23.057C121.538,25.521 119.629,28.55 118.548,29.683C116.315,32.024 113.804,33.887 111.061,35.46C106.662,37.984 103.147,40.754 100.764,43.093" style="fill:rgb(231,102,43);"/>
        </g>
        <g transform="matrix(0.98897,0.148119,-0.148119,0.98897,7.95652,-2.2865)">
            <path d="M100.754,34.952C106.706,33.172 109.88,30.597 116.666,24.442C117.694,23.51 121.1,18.901 122.067,17.865C122.796,21.026 115.761,34.315 112.177,37.291C109.477,39.532 104.761,42.935 100.764,43.093" style="fill:rgb(247,147,41);"/>
        </g>
        <path d="M100.764,43.093C105.698,36.945 108.275,36.481 115.901,33.462C118.326,32.502 123.653,30.428 124.947,29.7C124.947,29.7 122.154,33.735 121.117,35.057C116.578,40.846 106.328,46.766 100.018,48.633" style="fill:rgb(255,160,0);"/>
        <g transform="matrix(0.611019,0.15189,-0.186835,0.751595,52.4792,3.55913)">
            <path d="M100.764,43.093C105.698,36.945 108.275,36.481 115.901,33.462C118.326,32.502 123.653,30.428 124.947,29.7C124.947,29.7 122.154,33.735 121.117,35.057C116.578,40.846 106.328,46.766 100.018,48.633" style="fill:rgb(255,111,0);"/>
        </g>
        <g transform="matrix(0.714536,0,0,0.714536,30.3306,15.1066)">
            <path d="M100.018,43.839C104.952,37.691 108.275,36.481 115.901,33.462C118.326,32.502 123.653,30.428 124.947,29.7C124.947,29.7 122.154,33.735 121.117,35.057C116.578,40.846 106.328,46.766 100.018,48.633" style="fill:rgb(255,179,0);"/>
        </g>
        <g transform="matrix(0.649879,0,0,0.649879,32.6603,17.9745)">
            <path d="M100.353,38.186C101.889,36.385 104.338,35.241 105.79,33.344C109.264,28.807 112.884,29.017 116.545,27.143C117.558,26.626 120.269,24.808 121.389,23.831C121.289,24.556 119.629,28.55 118.548,29.683C116.315,32.024 113.804,33.887 111.061,35.46C106.662,37.984 103.147,40.754 100.764,43.093" style="fill:rgb(216,76,21);"/>
        </g>
        <path d="M99.636,50.487C103.139,50.24 106.672,49.534 110.169,49.857C118.928,50.664 125.951,49.502 127.981,48.562C127.981,48.562 125.401,52.672 121.258,54.373C112.004,58.171 102.956,57.858 100.23,57.536" style="fill:rgb(255,167,38);"/>
        <g transform="matrix(0.219659,0.975577,-0.975577,0.219659,113.597,-49.5841)">
            <path d="M99.636,50.487C103.139,50.24 106.672,49.534 110.169,49.857C118.928,50.664 124.581,50.124 126.468,47.178C126.468,47.178 127.48,51.874 121.258,54.373C111.975,58.1 102.956,57.858 100.23,57.536" style="fill:rgb(255,167,38);"/>
        </g>
        <g transform="matrix(0.763428,0.645892,-0.645892,0.763428,47.5518,-45.7112)">
            <path d="M99.636,50.487C103.139,50.24 106.758,49.024 110.169,49.857C118.127,51.8 124.097,50.385 127.598,47.362C127.43,49.416 125.943,52.818 121.258,54.373C111.764,57.523 102.956,57.858 100.23,57.536" style="fill:rgb(255,167,38);"/>
        </g>
        <g transform="matrix(0.605279,-0.173357,0.213241,0.744534,21.9336,32.2663)">
            <path d="M100.764,43.093C105.698,36.945 108.275,36.481 115.901,33.462C117.229,32.936 119.427,32.077 121.356,31.287C121.814,31.079 122.386,31.148 122.752,31.453C123.118,31.759 123.185,32.226 122.918,32.592C122.231,33.56 121.533,34.527 121.117,35.057C116.578,40.846 106.328,46.766 100.018,48.633C99.266,47.059 99.026,45.258 100.764,43.093Z" style="fill:rgb(230,86,25);"/>
        </g>
        <g transform="matrix(0.734514,0.419173,-0.355652,0.623206,41.3602,-9.11081)">
            <path d="M100.353,38.186C101.889,36.385 100.071,36.963 101.523,35.066C104.997,30.529 112.884,29.017 116.545,27.143C117.558,26.626 120.269,24.808 121.389,23.831C121.289,24.556 119.629,28.55 118.548,29.683C116.315,32.024 113.804,33.887 111.061,35.46C106.662,37.984 103.147,40.754 100.764,43.093" style="fill:rgb(216,76,21);"/>
        </g>
        <g transform="matrix(0.98897,0.148119,-0.148119,0.98897,-13.4751,3.17185)">
            <path d="M100.754,34.952C106.706,33.172 109.88,30.597 116.666,24.442C117.694,23.51 121.1,18.901 122.067,17.865C122.796,21.026 115.761,34.315 112.177,37.291C109.477,39.532 104.761,42.935 100.764,43.093" style="fill:rgb(231,102,43);"/>
        </g>
        <g transform="matrix(0.71091,0.0718954,-0.0718954,0.71091,24.648,13.5386)">
            <path d="M100.764,43.093C105.698,36.945 108.275,36.481 115.901,33.462C118.326,32.502 123.653,30.428 124.947,29.7C124.947,29.7 122.154,33.735 121.117,35.057C116.578,40.846 106.328,46.766 100.018,48.633C97.415,49.403 91.481,51.262 89.85,51.501C86.582,51.982 96.361,48.578 100.764,43.093Z" style="fill:rgb(230,86,25);"/>
        </g>
        <g transform="matrix(-0.192348,0.68816,-0.68816,-0.192348,126.183,7.91675)">
            <path d="M100.764,43.093C105.698,36.945 108.275,36.481 115.901,33.462C118.326,32.502 123.653,30.428 124.947,29.7C124.947,29.7 122.154,33.735 121.117,35.057C116.578,40.846 106.328,46.766 100.018,48.633C97.415,49.403 91.481,51.262 89.85,51.501C86.582,51.982 96.361,48.578 100.764,43.093Z" style="fill:rgb(230,86,25);"/>
        </g>
        <g transform="matrix(1,0,0,1,0.232888,0.143236)">
            <path d="M94.768,55.279C100.916,55.062 107.227,54.958 110.823,56.657C116.651,59.411 124.057,60.012 126.572,57.651C124.414,60.816 117.354,66.241 102.606,64.184C99.017,63.683 95.429,63.025 91.991,61.944" style="fill:rgb(241,124,4);"/>
        </g>
        <g transform="matrix(0.288489,0.957483,-0.957483,0.288489,108.397,-45.3054)">
            <path d="M94.768,55.279C100.916,55.062 107.227,54.958 110.823,56.657C116.651,59.411 124.057,60.012 126.572,57.651C124.414,60.816 117.354,66.241 102.606,64.184C99.017,63.683 95.429,63.025 91.991,61.944" style="fill:rgb(252,194,27);"/>
        </g>
        <g transform="matrix(0.555289,0.296765,-0.365041,0.683043,51.8839,-5.35331)">
            <path d="M91.859,48.893C96.793,42.745 108.433,37.451 116.059,34.432C118.484,33.472 123.653,30.428 124.947,29.7C124.947,29.7 121.95,33.599 121.117,35.057C117.907,40.678 101.32,48.203 93.19,50.301" style="fill:rgb(255,143,0);"/>
        </g>
        <g transform="matrix(-0.227106,0.587229,-0.722332,-0.279355,131.48,15.0193)">
            <path d="M91.859,48.893C96.793,42.745 108.433,37.451 116.059,34.432C118.484,33.472 123.653,30.428 124.947,29.7C124.947,29.7 121.95,33.599 121.117,35.057C117.907,40.678 101.32,48.203 93.19,50.301" style="fill:rgb(237,108,48);"/>
        </g>
        <g transform="matrix(0.988403,0.151851,-0.1639,1.06683,11.7794,-20.2646)">
            <path d="M90.533,61.435C95.51,64.413 112.944,66.431 116.124,63.858C115.792,65.853 113.147,67.718 107.941,67.681C99.099,67.619 93.004,64.602 90.746,62.81" style="fill:rgb(255,179,0);"/>
        </g>
        <g transform="matrix(0.708203,0.706009,-0.762029,0.764397,73.9463,-46.0968)">
            <path d="M90.533,61.435C95.51,64.413 112.544,67.597 115.974,63.379C115.642,65.374 113.147,67.718 107.941,67.681C99.099,67.619 93.004,64.602 90.746,62.81" style="fill:rgb(255,179,0);"/>
        </g>
        <g transform="matrix(0.126323,0.401521,-0.601486,0.189234,105.715,8.57295)">
            <path d="M100.764,43.093C105.698,36.945 108.275,36.481 115.901,33.462C118.326,32.502 123.653,30.428 124.947,29.7C124.947,29.7 122.154,33.735 121.117,35.057C116.578,40.846 106.328,46.766 100.018,48.633" style="fill:rgb(255,111,0);"/>
        </g>
        <g transform="matrix(-0.222874,0.588848,-0.724323,-0.274151,137.002,12.6084)">
            <path d="M100.764,43.093C105.698,36.945 108.275,36.481 115.901,33.462C118.326,32.502 123.653,30.428 124.947,29.7C124.947,29.7 122.154,33.735 121.117,35.057C116.578,40.846 106.328,46.766 100.018,48.633" style="fill:rgb(255,111,0);"/>
        </g>
        <g transform="matrix(1,0,0,1,1.95467,0.478604)">
            <path d="M89.316,59.393C91.9,61.099 94.268,62.975 95.965,65.618C97.033,67.281 96.613,67.497 97.418,69.297C97.995,70.586 100.086,73.232 101.804,73.508C99.449,75.583 93.11,74.6 91.741,69.588C90.547,65.218 88.839,62.063 87.757,60.782" style="fill:rgb(247,147,41);"/>
        </g>
        <g transform="matrix(1,0,0,1,-7.47209,-2.14996)">
            <path d="M89.316,59.393C91.9,61.099 94.268,62.975 95.965,65.618C97.033,67.281 96.613,67.497 97.418,69.297C97.995,70.586 100.086,73.232 101.804,73.508C99.449,75.583 93.11,74.6 91.741,69.588C90.547,65.218 88.839,62.063 87.757,60.782" style="fill:rgb(247,147,41);"/>
        </g>
        <g transform="matrix(-0.256506,0.966543,-0.966543,-0.256506,152.473,-32.4299)">
            <path d="M100.754,34.952C106.706,33.172 109.88,30.597 116.666,24.442C117.694,23.51 121.1,18.901 122.067,17.865C122.796,21.026 115.761,34.315 112.177,37.291C109.477,39.532 104.761,42.935 100.764,43.093" style="fill:rgb(239,108,0);"/>
        </g>
        <g transform="matrix(-0.0930527,0.410509,-0.614951,-0.139395,120.241,21.0242)">
            <path d="M100.764,43.093C105.698,36.945 108.275,36.481 115.901,33.462C118.326,32.502 123.653,30.428 124.947,29.7C124.947,29.7 122.154,33.735 121.117,35.057C116.578,40.846 106.328,46.766 100.018,48.633" style="fill:rgb(237,108,48);"/>
        </g>
        <g transform="matrix(-0.0654437,0.382894,-0.382894,-0.0654437,102.215,22.2782)">
            <path d="M100.764,43.093C105.698,36.945 108.275,36.481 115.901,33.462C118.326,32.502 123.653,30.428 124.947,29.7C124.947,29.7 122.154,33.735 121.117,35.057C116.578,40.846 106.328,46.766 100.018,48.633C97.415,49.403 91.481,51.262 89.85,51.501C86.582,51.982 96.361,48.578 100.764,43.093Z" style="fill:rgb(231,102,43);"/>
        </g>
        <g transform="matrix(1,0,0,1,3.42671,-1.39607)">
            <path d="M64.344,53.632C69.152,53.778 74.228,54.193 78.822,52.44C85.713,49.81 90.721,43.507 96.524,38.809C97.886,41.579 99.537,44.902 100.139,47.948C100.453,49.537 100.536,51.196 100.415,52.808C100.154,56.277 97.902,58.865 95.316,61.011C89.353,65.958 77.242,67.577 69.924,69.19" style="fill:url(#_Radial4);"/>
        </g>
        <g transform="matrix(1,0,0,1,3.42671,-1.39607)">
            <path d="M64.344,53.632C69.152,53.778 74.345,54.475 78.822,52.44C85.959,49.195 91.229,42.236 96.524,38.809C99.059,40.254 95.426,47.373 90.067,52.65C84.546,58.086 71.662,60.544 64.344,62.158" style="fill:rgb(216,76,21);"/>
        </g>
        <g transform="matrix(-0.115168,0.297792,-0.530071,-0.205,111.784,37.3026)">
            <path d="M91.859,48.893C96.793,42.745 108.433,37.451 116.059,34.432C118.484,33.472 123.653,30.428 124.947,29.7C124.947,29.7 121.95,33.599 121.117,35.057C117.907,40.678 101.32,48.203 93.19,50.301" style="fill:rgb(216,76,21);"/>
        </g>
    </g>
    <g transform="matrix(-1,0,0,1,127.981,-3.22578)">
        <g transform="matrix(1,0,0,1,3.42671,-1.39607)">
            <path d="M64.344,53.632C69.152,53.778 74.228,54.193 78.822,52.44C85.713,49.81 90.721,43.507 96.524,38.809C97.886,41.579 99.537,44.902 100.139,47.948C100.453,49.537 100.536,51.196 100.415,52.808C100.154,56.277 97.902,58.865 95.316,61.011C89.353,65.958 77.242,67.577 69.924,69.19" style="fill:rgb(216,76,21);"/>
        </g>
        <path d="M100.018,36.843C101.554,35.041 103.231,33.213 105.266,31.961C108.805,29.783 112.884,29.017 116.545,27.143C117.558,26.626 120.269,24.808 121.389,23.831C121.289,24.556 119.629,28.55 118.548,29.683C116.315,32.024 113.804,33.887 111.061,35.46C106.662,37.984 103.147,40.754 100.764,43.093" style="fill:rgb(231,102,43);"/>
        <g transform="matrix(-0.120736,1.10708,-1.18637,-0.129383,143.935,-43.3584)">
            <path d="M100.018,36.843C101.554,35.041 103.231,33.213 105.266,31.961C108.805,29.783 112.884,29.017 116.545,27.143C117.558,26.626 120.436,24.861 120.517,23.057C121.538,25.521 119.629,28.55 118.548,29.683C116.315,32.024 113.804,33.887 111.061,35.46C106.662,37.984 103.147,40.754 100.764,43.093" style="fill:rgb(231,102,43);"/>
        </g>
        <g transform="matrix(0.98897,0.148119,-0.148119,0.98897,7.95652,-2.2865)">
            <path d="M100.754,34.952C106.706,33.172 109.88,30.597 116.666,24.442C117.694,23.51 121.1,18.901 122.067,17.865C122.796,21.026 115.761,34.315 112.177,37.291C109.477,39.532 104.761,42.935 100.764,43.093" style="fill:rgb(247,147,41);"/>
        </g>
        <path d="M100.764,43.093C105.698,36.945 108.275,36.481 115.901,33.462C118.326,32.502 123.653,30.428 124.947,29.7C124.947,29.7 122.154,33.735 121.117,35.057C116.578,40.846 106.328,46.766 100.018,48.633" style="fill:rgb(255,160,0);"/>
        <g transform="matrix(0.611019,0.15189,-0.186835,0.751595,52.4792,3.55913)">
            <path d="M100.764,43.093C105.698,36.945 108.275,36.481 115.901,33.462C118.326,32.502 123.653,30.428 124.947,29.7C124.947,29.7 122.154,33.735 121.117,35.057C116.578,40.846 106.328,46.766 100.018,48.633" style="fill:rgb(255,111,0);"/>
        </g>
        <g transform="matrix(0.714536,0,0,0.714536,30.3306,15.1066)">
            <path d="M100.018,43.839C104.952,37.691 108.275,36.481 115.901,33.462C118.326,32.502 123.653,30.428 124.947,29.7C124.947,29.7 122.154,33.735 121.117,35.057C116.578,40.846 106.328,46.766 100.018,48.633" style="fill:rgb(255,179,0);"/>
        </g>
        <g transform="matrix(0.649879,0,0,0.649879,32.6603,17.9745)">
            <path d="M100.353,38.186C101.889,36.385 104.338,35.241 105.79,33.344C109.264,28.807 112.884,29.017 116.545,27.143C117.558,26.626 120.269,24.808 121.389,23.831C121.289,24.556 119.629,28.55 118.548,29.683C116.315,32.024 113.804,33.887 111.061,35.46C106.662,37.984 103.147,40.754 100.764,43.093" style="fill:rgb(216,76,21);"/>
        </g>
        <path d="M99.636,50.487C103.139,50.24 106.672,49.534 110.169,49.857C118.928,50.664 125.951,49.502 127.981,48.562C127.981,48.562 125.401,52.672 121.258,54.373C112.004,58.171 102.956,57.858 100.23,57.536" style="fill:rgb(255,167,38);"/>
        <g transform="matrix(0.219659,0.975577,-0.975577,0.219659,113.597,-49.5841)">
            <path d="M99.636,50.487C103.139,50.24 106.672,49.534 110.169,49.857C118.928,50.664 124.581,50.124 126.468,47.178C126.468,47.178 127.48,51.874 121.258,54.373C111.975,58.1 102.956,57.858 100.23,57.536" style="fill:rgb(255,167,38);"/>
        </g>
        <g transform="matrix(0.763428,0.645892,-0.645892,0.763428,47.5518,-45.7112)">
            <path d="M99.636,50.487C103.139,50.24 106.758,49.024 110.169,49.857C118.127,51.8 124.097,50.385 127.598,47.362C127.43,49.416 125.943,52.818 121.258,54.373C111.764,57.523 102.956,57.858 100.23,57.536" style="fill:rgb(255,167,38);"/>
        </g>
        <g transform="matrix(0.605279,-0.173357,0.213241,0.744534,21.9336,32.2663)">
            <path d="M100.764,43.093C105.698,36.945 108.275,36.481 115.901,33.462C116.972,33.038 118.609,32.397 120.215,31.75C120.829,31.484 121.586,31.584 122.064,31.995C122.542,32.406 122.623,33.026 122.262,33.509C121.812,34.136 121.399,34.697 121.117,35.057C116.578,40.846 106.328,46.766 100.018,48.633C99.266,47.059 99.026,45.258 100.764,43.093Z" style="fill:rgb(230,86,25);"/>
        </g>
        <g transform="matrix(0.734514,0.419173,-0.355652,0.623206,41.3602,-9.11081)">
            <path d="M100.353,38.186C101.889,36.385 100.071,36.963 101.523,35.066C104.997,30.529 112.884,29.017 116.545,27.143C117.558,26.626 120.269,24.808 121.389,23.831C121.289,24.556 119.629,28.55 118.548,29.683C116.315,32.024 113.804,33.887 111.061,35.46C106.662,37.984 103.147,40.754 100.764,43.093" style="fill:rgb(216,76,21);"/>
        </g>
        <g transform="matrix(0.98897,0.148119,-0.148119,0.98897,-13.4751,3.17185)">
            <path d="M100.754,34.952C106.706,33.172 109.88,30.597 116.666,24.442C117.694,23.51 121.1,18.901 122.067,17.865C122.796,21.026 115.761,34.315 112.177,37.291C109.477,39.532 104.761,42.935 100.764,43.093" style="fill:rgb(231,102,43);"/>
        </g>
        <g transform="matrix(0.71091,0.0718954,-0.0718954,0.71091,24.648,13.5386)">
            <path d="M100.764,43.093C105.698,36.945 108.275,36.481 115.901,33.462C118.326,32.502 123.653,30.428 124.947,29.7C124.947,29.7 122.154,33.735 121.117,35.057C116.578,40.846 106.328,46.766 100.018,48.633C97.415,49.403 91.481,51.262 89.85,51.501C86.582,51.982 96.361,48.578 100.764,43.093Z" style="fill:rgb(230,86,25);"/>
        </g>
        <g transform="matrix(-0.192348,0.68816,-0.68816,-0.192348,126.183,7.91675)">
            <path d="M100.764,43.093C105.698,36.945 108.275,36.481 115.901,33.462C118.326,32.502 123.653,30.428 124.947,29.7C124.947,29.7 122.154,33.735 121.117,35.057C116.578,40.846 106.328,46.766 100.018,48.633C97.415,49.403 91.481,51.262 89.85,51.501C86.582,51.982 96.361,48.578 100.764,43.093Z" style="fill:rgb(230,86,25);"/>
        </g>
        <g transform="matrix(1,0,0,1,0.232888,0.143236)">
            <path d="M94.768,55.279C100.916,55.062 107.227,54.958 110.823,56.657C116.651,59.411 124.057,60.012 126.572,57.651C124.414,60.816 117.354,66.241 102.606,64.184C99.017,63.683 95.429,63.025 91.991,61.944" style="fill:rgb(241,124,4);"/>
        </g>
        <g transform="matrix(0.288489,0.957483,-0.957483,0.288489,108.397,-45.3054)">
            <path d="M94.768,55.279C100.916,55.062 107.227,54.958 110.823,56.657C116.651,59.411 124.057,60.012 126.572,57.651C124.414,60.816 117.354,66.241 102.606,64.184C99.017,63.683 95.429,63.025 91.991,61.944" style="fill:rgb(252,194,27);"/>
        </g>
        <g transform="matrix(0.555289,0.296765,-0.365041,0.683043,51.8839,-5.35331)">
            <path d="M91.859,48.893C96.793,42.745 108.433,37.451 116.059,34.432C118.484,33.472 123.653,30.428 124.947,29.7C124.947,29.7 121.95,33.599 121.117,35.057C117.907,40.678 101.32,48.203 93.19,50.301" style="fill:rgb(255,143,0);"/>
        </g>
        <g transform="matrix(-0.227106,0.587229,-0.722332,-0.279355,131.48,15.0193)">
            <path d="M91.859,48.893C96.793,42.745 108.433,37.451 116.059,34.432C118.484,33.472 123.653,30.428 124.947,29.7C124.947,29.7 121.95,33.599 121.117,35.057C117.907,40.678 101.32,48.203 93.19,50.301" style="fill:rgb(237,108,48);"/>
        </g>
        <g transform="matrix(0.988403,0.151851,-0.1639,1.06683,11.7794,-20.2646)">
            <path d="M90.533,61.435C95.51,64.413 112.944,66.431 116.124,63.858C115.792,65.853 113.147,67.718 107.941,67.681C99.099,67.619 93.004,64.602 90.746,62.81" style="fill:rgb(255,179,0);"/>
        </g>
        <g transform="matrix(0.708203,0.706009,-0.762029,0.764397,73.9463,-46.0968)">
            <path d="M90.533,61.435C95.51,64.413 112.544,67.597 115.974,63.379C115.642,65.374 113.147,67.718 107.941,67.681C99.099,67.619 93.004,64.602 90.746,62.81" style="fill:rgb(255,179,0);"/>
        </g>
        <g transform="matrix(0.126323,0.401521,-0.601486,0.189234,105.715,8.57295)">
            <path d="M100.764,43.093C105.698,36.945 108.275,36.481 115.901,33.462C118.326,32.502 123.653,30.428 124.947,29.7C124.947,29.7 122.154,33.735 121.117,35.057C116.578,40.846 106.328,46.766 100.018,48.633" style="fill:rgb(255,111,0);"/>
        </g>
        <g transform="matrix(-0.222874,0.588848,-0.724323,-0.274151,137.002,12.6084)">
            <path d="M100.764,43.093C105.698,36.945 108.275,36.481 115.901,33.462C118.326,32.502 123.653,30.428 124.947,29.7C124.947,29.7 122.154,33.735 121.117,35.057C116.578,40.846 106.328,46.766 100.018,48.633" style="fill:rgb(255,111,0);"/>
        </g>
        <g transform="matrix(1,0,0,1,1.95467,0.478604)">
            <path d="M89.316,59.393C91.9,61.099 94.268,62.975 95.965,65.618C97.033,67.281 96.613,67.497 97.418,69.297C97.995,70.586 100.086,73.232 101.804,73.508C99.449,75.583 93.11,74.6 91.741,69.588C90.547,65.218 88.839,62.063 87.757,60.782" style="fill:rgb(247,147,41);"/>
        </g>
        <g transform="matrix(1,0,0,1,-7.47209,-2.14996)">
            <path d="M89.316,59.393C91.9,61.099 94.268,62.975 95.965,65.618C97.033,67.281 96.613,67.497 97.418,69.297C97.995,70.586 100.086,73.232 101.804,73.508C99.449,75.583 93.11,74.6 91.741,69.588C90.547,65.218 88.839,62.063 87.757,60.782" style="fill:rgb(247,147,41);"/>
        </g>
        <g transform="matrix(-0.256506,0.966543,-0.966543,-0.256506,152.473,-32.4299)">
            <path d="M100.754,34.952C106.706,33.172 109.88,30.597 116.666,24.442C117.694,23.51 121.1,18.901 122.067,17.865C122.796,21.026 115.761,34.315 112.177,37.291C109.477,39.532 104.761,42.935 100.764,43.093" style="fill:rgb(239,108,0);"/>
        </g>
        <g transform="matrix(-0.0930527,0.410509,-0.614951,-0.139395,120.241,21.0242)">
            <path d="M100.764,43.093C105.698,36.945 108.275,36.481 115.901,33.462C118.326,32.502 123.653,30.428 124.947,29.7C124.947,29.7 122.154,33.735 121.117,35.057C116.578,40.846 106.328,46.766 100.018,48.633" style="fill:rgb(237,108,48);"/>
        </g>
        <g transform="matrix(-0.0654437,0.382894,-0.382894,-0.0654437,102.215,22.2782)">
            <path d="M100.764,43.093C105.698,36.945 108.275,36.481 115.901,33.462C118.326,32.502 123.653,30.428 124.947,29.7C124.947,29.7 122.154,33.735 121.117,35.057C116.578,40.846 106.328,46.766 100.018,48.633C97.415,49.403 91.481,51.262 89.85,51.501C86.582,51.982 96.361,48.578 100.764,43.093Z" style="fill:rgb(231,102,43);"/>
        </g>
        <g transform="matrix(1,0,0,1,3.42671,-1.39607)">
            <path d="M64.344,53.632C69.152,53.778 74.228,54.193 78.822,52.44C85.713,49.81 90.721,43.507 96.524,38.809C97.886,41.579 99.537,44.902 100.139,47.948C100.453,49.537 100.536,51.196 100.415,52.808C100.154,56.277 97.902,58.865 95.316,61.011C89.353,65.958 77.242,67.577 69.924,69.19" style="fill:url(#_Radial5);"/>
        </g>
        <g transform="matrix(1,0,0,1,3.42671,-1.39607)">
            <path d="M64.344,53.632C69.152,53.778 74.345,54.475 78.822,52.44C85.959,49.195 91.229,42.236 96.524,38.809C99.059,40.254 95.426,47.373 90.067,52.65C84.546,58.086 71.662,60.544 64.344,62.158" style="fill:rgb(216,76,21);"/>
        </g>
        <g transform="matrix(-0.115168,0.297792,-0.530071,-0.205,111.784,37.3026)">
            <path d="M91.859,48.893C96.793,42.745 108.433,37.451 116.059,34.432C118.484,33.472 123.653,30.428 124.947,29.7C124.947,29.7 121.95,33.599 121.117,35.057C117.907,40.678 101.32,48.203 93.19,50.301" style="fill:rgb(216,76,21);"/>
        </g>
    </g>
    <g>
        <g transform="matrix(2.76056,0,0,1.99387,-212.451,-28.2655)">
            <path d="M120.932,24.442C120.28,25.164 119.368,25.948 118.537,26.46C117.804,26.91 116.899,27.253 116.437,28.028C116.158,28.496 116.297,29.272 116.888,29.43C117.355,29.555 117.881,29.362 118.237,29.058C118.955,28.442 119.546,27.45 119.913,26.585C120.176,25.965 120.547,25.004 120.932,24.442Z" style="fill:rgb(239,108,0);"/>
        </g>
        <g transform="matrix(2.09127,0,0,1.66335,-131.512,-20.1867)">
            <path d="M120.932,24.442C120.28,25.164 119.368,25.948 118.537,26.46C117.804,26.91 116.899,27.253 116.437,28.028C116.158,28.496 116.297,29.272 116.888,29.43C117.355,29.555 117.881,29.362 118.237,29.058C118.955,28.442 119.546,27.45 119.913,26.585C120.176,25.965 120.547,25.004 120.932,24.442Z" style="fill:rgb(247,140,4);"/>
        </g>
        <g transform="matrix(1.57399,0,0,1.41842,-68.9563,-14.1999)">
            <path d="M120.932,24.442C120.28,25.164 119.368,25.948 118.537,26.46C117.804,26.91 116.899,27.253 116.437,28.028C116.158,28.496 116.297,29.272 116.888,29.43C117.355,29.555 117.881,29.362 118.237,29.058C118.955,28.442 119.546,27.45 119.913,26.585C120.176,25.965 120.547,25.004 120.932,24.442Z" style="fill:rgb(255,167,38);"/>
        </g>
        <g transform="matrix(1,0,0,1,0.456942,-3.97277)">
            <path d="M120.932,24.442C120.28,25.164 119.368,25.948 118.537,26.46C117.804,26.91 116.899,27.253 116.437,28.028C116.158,28.496 116.297,29.272 116.888,29.43C117.355,29.555 117.881,29.362 118.237,29.058C118.955,28.442 119.546,27.45 119.913,26.585C120.176,25.965 120.547,25.004 120.932,24.442Z" style="fill:rgb(255,204,128);"/>
        </g>
        <g transform="matrix(1.69131,0,0,1.69131,-86.377,-23.8935)">
            <path d="M124.947,29.7C124.17,30.002 123.204,30.671 122.457,31.027C121.986,31.251 121.425,31.428 121.049,31.801C120.677,32.171 120.305,32.998 120.833,33.4C121.267,33.73 121.902,33.517 122.27,33.184C122.71,32.787 122.994,32.229 123.343,31.757C123.615,31.39 123.888,31.018 124.181,30.668C124.354,30.462 124.786,29.917 124.947,29.7Z" style="fill:rgb(255,179,0);"/>
        </g>
        <g transform="matrix(1.3005,0,0,1.3005,-37.547,-12.2865)">
            <path d="M124.947,29.7C124.17,30.002 123.204,30.671 122.457,31.027C121.986,31.251 121.425,31.428 121.049,31.801C120.677,32.171 120.305,32.998 120.833,33.4C121.267,33.73 121.902,33.517 122.27,33.184C122.71,32.787 122.994,32.229 123.343,31.757C123.615,31.39 123.888,31.018 124.181,30.668C124.354,30.462 124.786,29.917 124.947,29.7Z" style="fill:rgb(255,202,40);"/>
        </g>
        <g transform="matrix(1,0,0,1,0,-3.36147)">
            <path d="M124.947,29.7C124.17,30.002 123.204,30.671 122.457,31.027C121.986,31.251 121.425,31.428 121.049,31.801C120.677,32.171 120.305,32.998 120.833,33.4C121.267,33.73 121.902,33.517 122.27,33.184C122.71,32.787 122.994,32.229 123.343,31.757C123.615,31.39 123.888,31.018 124.181,30.668C124.354,30.462 124.786,29.917 124.947,29.7Z" style="fill:rgb(255,224,130);"/>
        </g>
        <g transform="matrix(1.7456,0,0,1.58457,-83.17,-22.9224)">
            <path d="M111.548,33.462C111.164,33.887 110.546,34.512 110.041,34.792C109.614,35.028 109.027,35.211 108.841,35.721C108.676,36.176 109.174,36.498 109.572,36.476C109.715,36.468 109.859,36.373 109.969,36.289C110.183,36.124 110.325,35.886 110.473,35.665C110.839,35.118 111.309,34.072 111.548,33.462Z" style="fill:rgb(230,81,0);"/>
        </g>
        <g transform="matrix(1.32121,0,0,1.2588,-35.8304,-12.0214)">
            <path d="M111.548,33.462C111.164,33.887 110.546,34.512 110.041,34.792C109.614,35.028 109.027,35.211 108.841,35.721C108.676,36.176 109.174,36.498 109.572,36.476C109.715,36.468 109.859,36.373 109.969,36.289C110.183,36.124 110.325,35.886 110.473,35.665C110.839,35.118 111.309,34.072 111.548,33.462Z" style="fill:rgb(247,140,4);"/>
        </g>
        <g transform="matrix(1,0,0,1,0,-3.36147)">
            <path d="M111.548,33.462C111.164,33.887 110.546,34.512 110.041,34.792C109.614,35.028 109.027,35.211 108.841,35.721C108.676,36.176 109.174,36.498 109.572,36.476C109.715,36.468 109.859,36.373 109.969,36.289C110.183,36.124 110.325,35.886 110.473,35.665C110.839,35.118 111.309,34.072 111.548,33.462Z" style="fill:rgb(255,167,38);"/>
        </g>
        <g transform="matrix(0.629204,0,0,0.629204,41.2757,9.18404)">
            <path d="M111.548,33.462C111.164,33.887 110.546,34.512 110.041,34.792C109.614,35.028 109.027,35.211 108.841,35.721C108.676,36.176 109.174,36.498 109.572,36.476C109.715,36.468 109.859,36.373 109.969,36.289C110.183,36.124 110.325,35.886 110.473,35.665C110.839,35.118 111.309,34.072 111.548,33.462Z" style="fill:rgb(255,224,178);"/>
        </g>
        <g transform="matrix(1,0,0,1,0,-3.36147)">
            <path d="M105.387,30.671C106.7,29.689 109.042,26.994 109.711,25.479C109.95,24.94 110.575,23.014 110.575,23.014C110.575,23.014 111.41,24.176 111.527,24.779C112.263,28.588 107.968,29.551 105.387,30.671Z" style="fill:rgb(255,204,128);"/>
        </g>
        <g transform="matrix(0.6146,0.191514,-0.209226,0.671441,61.4943,14.8723)">
            <path d="M105.387,30.671C106.7,29.689 109.042,26.994 109.711,25.479C109.95,24.94 110.575,23.014 110.575,23.014C110.575,23.014 111.41,24.176 111.527,24.779C112.263,28.588 107.968,29.551 105.387,30.671Z" style="fill:rgb(255,224,130);"/>
        </g>
        <g transform="matrix(1,0,0,1,0,-3.36147)">
            <path d="M122.215,43.743C122.711,42.824 123.306,41.844 123.965,41.037C124.096,40.876 124.502,40.256 124.502,40.256C124.502,40.256 124.314,41.288 124.206,41.568C123.856,42.475 123.068,43.275 122.215,43.743Z" style="fill:rgb(255,224,130);"/>
        </g>
        <g transform="matrix(0.945885,0.324501,-0.324501,0.945885,16.1524,-51.9907)">
            <path d="M122.215,43.743C122.711,42.824 123.306,41.844 123.965,41.037C124.096,40.876 124.502,40.256 124.502,40.256C124.502,40.256 124.314,41.288 124.206,41.568C123.856,42.475 123.068,43.275 122.215,43.743Z" style="fill:rgb(255,224,130);"/>
        </g>
        <g transform="matrix(0.0981342,-0.995173,-0.995173,-0.0981342,155.844,171.513)">
            <path d="M122.215,43.743C122.711,42.824 123.306,41.844 123.965,41.037C124.096,40.876 124.502,40.256 124.502,40.256C124.502,40.256 124.314,41.288 124.206,41.568C123.856,42.475 123.068,43.275 122.215,43.743Z" style="fill:rgb(255,224,130);"/>
        </g>
        <g transform="matrix(0.97534,-0.220709,0.220709,0.97534,-4.11124,24.9331)">
            <path d="M119.934,28.733C120.8,28.689 121.705,28.654 122.525,28.337C123.119,28.108 123.611,27.679 124.213,27.458C124.484,27.359 125.495,27.261 125.495,27.261C125.495,27.261 124.163,26.548 123.657,26.501C122.231,26.368 120.614,27.364 119.934,28.733Z" style="fill:rgb(255,250,209);"/>
        </g>
        <g transform="matrix(1,0,0,1,0,-3.36147)">
            <path d="M119.848,49.7C120.762,49.209 122.748,47.137 123.52,46.442C124.019,45.993 125.227,44.514 125.251,44.347C125.735,45.244 125.668,46.753 124.969,47.623C123.999,48.831 121.476,49.611 119.848,49.7Z" style="fill:rgb(255,224,178);"/>
        </g>
    </g>
    <g transform="matrix(-1,0,0,1,128,0)">
        <g transform="matrix(2.76056,0,0,1.99387,-212.451,-28.2655)">
            <path d="M120.932,24.442C120.28,25.164 119.368,25.948 118.537,26.46C117.804,26.91 116.899,27.253 116.437,28.028C116.158,28.496 116.297,29.272 116.888,29.43C117.355,29.555 117.881,29.362 118.237,29.058C118.955,28.442 119.546,27.45 119.913,26.585C120.176,25.965 120.547,25.004 120.932,24.442Z" style="fill:rgb(239,108,0);"/>
        </g>
        <g transform="matrix(2.09127,0,0,1.66335,-131.512,-20.1867)">
            <path d="M120.932,24.442C120.28,25.164 119.368,25.948 118.537,26.46C117.804,26.91 116.899,27.253 116.437,28.028C116.158,28.496 116.297,29.272 116.888,29.43C117.355,29.555 117.881,29.362 118.237,29.058C118.955,28.442 119.546,27.45 119.913,26.585C120.176,25.965 120.547,25.004 120.932,24.442Z" style="fill:rgb(247,140,4);"/>
        </g>
        <g transform="matrix(1.57399,0,0,1.41842,-68.9563,-14.1999)">
            <path d="M120.932,24.442C120.28,25.164 119.368,25.948 118.537,26.46C117.804,26.91 116.899,27.253 116.437,28.028C116.158,28.496 116.297,29.272 116.888,29.43C117.355,29.555 117.881,29.362 118.237,29.058C118.955,28.442 119.546,27.45 119.913,26.585C120.176,25.965 120.547,25.004 120.932,24.442Z" style="fill:rgb(255,167,38);"/>
        </g>
        <g transform="matrix(1,0,0,1,0.456942,-3.97277)">
            <path d="M120.932,24.442C120.28,25.164 119.368,25.948 118.537,26.46C117.804,26.91 116.899,27.253 116.437,28.028C116.158,28.496 116.297,29.272 116.888,29.43C117.355,29.555 117.881,29.362 118.237,29.058C118.955,28.442 119.546,27.45 119.913,26.585C120.176,25.965 120.547,25.004 120.932,24.442Z" style="fill:rgb(255,204,128);"/>
        </g>
        <g transform="matrix(1.69131,0,0,1.69131,-86.377,-23.8935)">
            <path d="M124.947,29.7C124.17,30.002 123.204,30.671 122.457,31.027C121.986,31.251 121.425,31.428 121.049,31.801C120.677,32.171 120.305,32.998 120.833,33.4C121.267,33.73 121.902,33.517 122.27,33.184C122.71,32.787 122.994,32.229 123.343,31.757C123.615,31.39 123.888,31.018 124.181,30.668C124.354,30.462 124.786,29.917 124.947,29.7Z" style="fill:rgb(255,179,0);"/>
        </g>
        <g transform="matrix(1.3005,0,0,1.3005,-37.547,-12.2865)">
            <path d="M124.947,29.7C124.17,30.002 123.204,30.671 122.457,31.027C121.986,31.251 121.425,31.428 121.049,31.801C120.677,32.171 120.305,32.998 120.833,33.4C121.267,33.73 121.902,33.517 122.27,33.184C122.71,32.787 122.994,32.229 123.343,31.757C123.615,31.39 123.888,31.018 124.181,30.668C124.354,30.462 124.786,29.917 124.947,29.7Z" style="fill:rgb(255,202,40);"/>
        </g>
        <g transform="matrix(1,0,0,1,0,-3.36147)">
            <path d="M124.947,29.7C124.17,30.002 123.204,30.671 122.457,31.027C121.986,31.251 121.425,31.428 121.049,31.801C120.677,32.171 120.305,32.998 120.833,33.4C121.267,33.73 121.902,33.517 122.27,33.184C122.71,32.787 122.994,32.229 123.343,31.757C123.615,31.39 123.888,31.018 124.181,30.668C124.354,30.462 124.786,29.917 124.947,29.7Z" style="fill:rgb(255,224,130);"/>
        </g>
        <g transform="matrix(1.7456,0,0,1.58457,-83.17,-22.9224)">
            <path d="M111.548,33.462C111.164,33.887 110.546,34.512 110.041,34.792C109.614,35.028 109.027,35.211 108.841,35.721C108.676,36.176 109.174,36.498 109.572,36.476C109.715,36.468 109.859,36.373 109.969,36.289C110.183,36.124 110.325,35.886 110.473,35.665C110.839,35.118 111.309,34.072 111.548,33.462Z" style="fill:rgb(230,81,0);"/>
        </g>
        <g transform="matrix(1.32121,0,0,1.2588,-35.8304,-12.0214)">
            <path d="M111.548,33.462C111.164,33.887 110.546,34.512 110.041,34.792C109.614,35.028 109.027,35.211 108.841,35.721C108.676,36.176 109.174,36.498 109.572,36.476C109.715,36.468 109.859,36.373 109.969,36.289C110.183,36.124 110.325,35.886 110.473,35.665C110.839,35.118 111.309,34.072 111.548,33.462Z" style="fill:rgb(247,140,4);"/>
        </g>
        <g transform="matrix(1,0,0,1,0,-3.36147)">
            <path d="M111.548,33.462C111.164,33.887 110.546,34.512 110.041,34.792C109.614,35.028 109.027,35.211 108.841,35.721C108.676,36.176 109.174,36.498 109.572,36.476C109.715,36.468 109.859,36.373 109.969,36.289C110.183,36.124 110.325,35.886 110.473,35.665C110.839,35.118 111.309,34.072 111.548,33.462Z" style="fill:rgb(255,167,38);"/>
        </g>
        <g transform="matrix(0.629204,0,0,0.629204,41.2757,9.18404)">
            <path d="M111.548,33.462C111.164,33.887 110.546,34.512 110.041,34.792C109.614,35.028 109.027,35.211 108.841,35.721C108.676,36.176 109.174,36.498 109.572,36.476C109.715,36.468 109.859,36.373 109.969,36.289C110.183,36.124 110.325,35.886 110.473,35.665C110.839,35.118 111.309,34.072 111.548,33.462Z" style="fill:rgb(255,224,178);"/>
        </g>
        <g transform="matrix(1,0,0,1,0,-3.36147)">
            <path d="M105.387,30.671C106.7,29.689 109.042,26.994 109.711,25.479C109.95,24.94 110.575,23.014 110.575,23.014C110.575,23.014 111.41,24.176 111.527,24.779C112.263,28.588 107.968,29.551 105.387,30.671Z" style="fill:rgb(255,204,128);"/>
        </g>
        <g transform="matrix(0.6146,0.191514,-0.209226,0.671441,61.4943,14.8723)">
            <path d="M105.387,30.671C106.7,29.689 109.042,26.994 109.711,25.479C109.95,24.94 110.575,23.014 110.575,23.014C110.575,23.014 111.41,24.176 111.527,24.779C112.263,28.588 107.968,29.551 105.387,30.671Z" style="fill:rgb(255,224,130);"/>
        </g>
        <g transform="matrix(1,0,0,1,0,-3.36147)">
            <path d="M122.215,43.743C122.711,42.824 123.306,41.844 123.965,41.037C124.096,40.876 124.502,40.256 124.502,40.256C124.502,40.256 124.314,41.288 124.206,41.568C123.856,42.475 123.068,43.275 122.215,43.743Z" style="fill:rgb(255,224,130);"/>
        </g>
        <g transform="matrix(0.945885,0.324501,-0.324501,0.945885,16.1524,-51.9907)">
            <path d="M122.215,43.743C122.711,42.824 123.306,41.844 123.965,41.037C124.096,40.876 124.502,40.256 124.502,40.256C124.502,40.256 124.314,41.288 124.206,41.568C123.856,42.475 123.068,43.275 122.215,43.743Z" style="fill:rgb(255,224,130);"/>
        </g>
        <g transform="matrix(0.0981342,-0.995173,-0.995173,-0.0981342,155.844,171.513)">
            <path d="M122.215,43.743C122.711,42.824 123.306,41.844 123.965,41.037C124.096,40.876 124.502,40.256 124.502,40.256C124.502,40.256 124.314,41.288 124.206,41.568C123.856,42.475 123.068,43.275 122.215,43.743Z" style="fill:rgb(255,224,130);"/>
        </g>
        <g transform="matrix(0.97534,-0.220709,0.220709,0.97534,-4.11124,24.9331)">
            <path d="M119.934,28.733C120.8,28.689 121.705,28.654 122.525,28.337C123.119,28.108 123.611,27.679 124.213,27.458C124.484,27.359 125.495,27.261 125.495,27.261C125.495,27.261 124.163,26.548 123.657,26.501C122.231,26.368 120.614,27.364 119.934,28.733Z" style="fill:rgb(255,250,209);"/>
        </g>
        <g transform="matrix(1,0,0,1,0,-3.36147)">
            <path d="M119.848,49.7C120.762,49.209 122.748,47.137 123.52,46.442C124.019,45.993 125.227,44.514 125.251,44.347C125.735,45.244 125.668,46.753 124.969,47.623C123.999,48.831 121.476,49.611 119.848,49.7Z" style="fill:rgb(255,224,178);"/>
        </g>
    </g>
    <g>
        <g transform="matrix(0.481253,0.0714866,-0.0722302,0.486259,47.6822,-8.52243)">
            <path d="M19.383,46.656C17.401,49.774 15.954,53.566 15.574,57.253C15.379,59.147 15.574,60.722 15.839,61.771C15.897,61.939 16.056,62.052 16.235,62.054C16.415,62.055 16.576,61.945 16.637,61.778C17.393,59.845 18.803,56.356 19.127,55.649C20.491,52.674 23.012,49.783 24.409,47.611" style="fill:rgb(255,224,130);"/>
        </g>
        <g transform="matrix(0.481253,0.0714866,-0.0722302,0.486259,47.6822,-8.52243)">
            <path d="M59.249,41.522C59.648,42.073 60.346,42.329 61.011,42.167C61.676,42.005 62.175,41.458 62.269,40.786C61.483,34.858 58.253,26.595 56.368,24.182C53.689,20.753 49.726,17.003 41.98,15.082C32.537,12.739 18.774,25.94 17.313,33.55C14.213,49.692 25.293,52.282 33.607,39.881C36.447,35.645 43.685,32.596 48.381,33.612C52.071,34.411 55.963,36.753 59.249,41.522Z" style="fill:rgb(255,111,0);"/>
        </g>
        <g transform="matrix(0.93358,0.301401,-0.306346,0.948899,41.3247,-35.3371)">
            <g>
                <circle cx="37.641" cy="39.861" r="1.575" style="fill:rgb(33,33,33);"/>
            </g>
        </g>
    </g>
    <g transform="matrix(0.393233,0,0,0.393233,39.3308,69.8264)">
        <path d="M98.59,51.16C94.36,52.08 90.71,54.44 89,58.51C87.97,60.98 86.53,67.36 82.58,65.71C80.69,64.93 80.72,62.22 80.94,60.53C81.41,57.06 82.97,53.89 84.04,50.59C85.14,47.17 86.09,43.73 86.77,40.19C89.05,28.47 88.42,14.97 80.13,5.6C78.73,4 75.2,0.3 72.87,0.22C71.43,0.18 72.85,1.88 73.25,2.45C74.06,3.62 74.74,4.89 75.26,6.22C81.39,21.86 66.28,33.77 56.35,43.04C51.59,47.49 47.79,52.21 44.37,57.72C44.03,58.25 43.28,60.03 42.31,59.66C41.16,59.22 41.04,56.59 40.68,55.61C40,53.73 38.95,51.68 37.6,50.21C34.99,47.35 31.34,45.42 27.39,45.68C27.24,45.69 26.81,45.76 26.28,45.88C25.45,46.06 23.23,46.35 23.83,47.69C24.14,48.38 25.05,48.32 25.7,48.51C34.04,51.07 33.85,59.81 32.5,66.83C30.06,79.61 23.3,91.69 28.1,104.83C33.76,120.32 51.48,129.99 67.56,127.33C71.95,126.61 77.01,125.19 80.95,123.07C85.14,120.81 89.73,117.72 93,114.24C97.21,109.77 99.89,104.04 100.68,97.97C101.61,90.95 99.37,84.33 97.33,77.7C94.87,69.7 92.04,56.64 102.26,52.73C102.76,52.53 103.76,52.38 104.11,51.85C105.41,49.91 99.17,51.04 98.59,51.16Z" style="fill:rgb(231,102,43);fill-rule:nonzero;"/>
    </g>
    <g transform="matrix(0.551266,0,0,0.551266,10.2806,57.4149)">
        <path d="M98.59,51.16C94.36,52.08 90.71,54.44 89,58.51C87.97,60.98 86.53,67.36 82.58,65.71C80.69,64.93 80.72,62.22 80.94,60.53C81.41,57.06 82.97,53.89 84.04,50.59C85.14,47.17 86.09,43.73 86.77,40.19C89.05,28.47 88.42,14.97 80.13,5.6C78.73,4 75.2,0.3 72.87,0.22C71.43,0.18 72.85,1.88 73.25,2.45C74.06,3.62 74.74,4.89 75.26,6.22C81.39,21.86 66.28,33.77 56.35,43.04C51.59,47.49 47.79,52.21 44.37,57.72C44.03,58.25 43.28,60.03 42.31,59.66C41.16,59.22 41.04,56.59 40.68,55.61C40,53.73 38.95,51.68 37.6,50.21C34.99,47.35 31.34,45.42 27.39,45.68C27.24,45.69 26.81,45.76 26.28,45.88C25.45,46.06 23.23,46.35 23.83,47.69C24.14,48.38 25.05,48.32 25.7,48.51C34.04,51.07 33.85,59.81 32.5,66.83C30.06,79.61 23.3,91.69 28.1,104.83C33.76,120.32 51.48,129.99 67.56,127.33C71.95,126.61 77.01,125.19 80.95,123.07C85.14,120.81 89.73,117.72 93,114.24C97.21,109.77 99.89,104.04 100.68,97.97C101.61,90.95 99.37,84.33 97.33,77.7C94.87,69.7 92.04,56.64 102.26,52.73C102.76,52.53 103.76,52.38 104.11,51.85C105.41,49.91 99.17,51.04 98.59,51.16Z" style="fill:rgb(231,102,43);fill-rule:nonzero;"/>
    </g>
    <g transform="matrix(0.637131,0,0,0.637131,3.09617,47.3773)">
        <path d="M68.13,106.07C70.25,107.85 73.22,106.98 75.22,105.46C76.29,104.65 77.21,103.61 77.81,102.4C78.06,101.88 78.35,101.22 78.35,100.63C78.35,99.84 77.88,99.06 78.08,98.25C79.76,97.92 81.84,102.75 82.05,103.87C83.73,112.7 75.41,119.98 67.38,121.39C53.83,123.76 46.04,111.89 47.6,101.35C48.57,94.79 52.97,90.28 57.45,85.78C61.16,82.05 64.6,78.85 65.8,74C66.01,73.14 65.96,71.82 65.71,70.97C65.5,70.24 65.1,69.57 65.08,68.78C65.02,67.12 66.63,69.29 67,69.71C71.46,74.74 72.73,82.17 71.54,88.67C70.77,92.87 67.77,95.87 66.72,99.89C66.11,102.18 66.17,104.41 68.13,106.07Z" style="fill:rgb(255,179,0);fill-rule:nonzero;"/>
    </g>
    <g transform="matrix(0.522941,0,0,0.522941,52.7323,61.4457)">
        <path d="M98.59,51.16C94.36,52.08 90.71,54.44 89,58.51C87.97,60.98 86.53,67.36 82.58,65.71C80.69,64.93 80.72,62.22 80.94,60.53C81.41,57.06 82.97,53.89 84.04,50.59C85.14,47.17 86.09,43.73 86.77,40.19C89.05,28.47 88.42,14.97 80.13,5.6C78.73,4 75.2,0.3 72.87,0.22C71.43,0.18 72.85,1.88 73.25,2.45C74.06,3.62 74.74,4.89 75.26,6.22C81.39,21.86 66.28,33.77 56.35,43.04C51.59,47.49 47.79,52.21 44.37,57.72C44.03,58.25 43.28,60.03 42.31,59.66C41.16,59.22 41.04,56.59 40.68,55.61C40,53.73 38.95,51.68 37.6,50.21C34.99,47.35 31.34,45.42 27.39,45.68C27.24,45.69 26.81,45.76 26.28,45.88C25.45,46.06 23.23,46.35 23.83,47.69C24.14,48.38 25.05,48.32 25.7,48.51C34.04,51.07 33.85,59.81 32.5,66.83C30.06,79.61 23.3,91.69 28.1,104.83C33.76,120.32 51.48,129.99 67.56,127.33C71.95,126.61 77.01,125.19 80.95,123.07C85.14,120.81 89.73,117.72 93,114.24C97.21,109.77 99.89,104.04 100.68,97.97C101.61,90.95 99.37,84.33 97.33,77.7C94.87,69.7 92.04,56.64 102.26,52.73C102.76,52.53 103.76,52.38 104.11,51.85C105.41,49.91 99.17,51.04 98.59,51.16Z" style="fill:rgb(231,102,43);fill-rule:nonzero;"/>
    </g>
    <g transform="matrix(0.551266,0,0,0.551266,50.4632,57.3348)">
        <path d="M68.13,106.07C70.25,107.85 73.22,106.98 75.22,105.46C76.29,104.65 77.21,103.61 77.81,102.4C78.06,101.88 78.35,101.22 78.35,100.63C78.35,99.84 77.88,99.06 78.08,98.25C79.76,97.92 81.84,102.75 82.05,103.87C83.73,112.7 75.41,119.98 67.38,121.39C53.83,123.76 46.04,111.89 47.6,101.35C48.57,94.79 52.97,90.28 57.45,85.78C61.16,82.05 64.6,78.85 65.8,74C66.01,73.14 65.96,71.82 65.71,70.97C65.5,70.24 65.1,69.57 65.08,68.78C65.02,67.12 66.63,69.29 67,69.71C71.46,74.74 72.73,82.17 71.54,88.67C70.77,92.87 67.77,95.87 66.72,99.89C66.11,102.18 66.17,104.41 68.13,106.07Z" style="fill:rgb(255,179,0);fill-rule:nonzero;"/>
    </g>
    <path d="M60.196,2.739C62.58,1.692 65.12,0.666 67.765,0.756C70.575,0.852 73.425,1.313 76.15,2.072C77.184,2.361 80.728,1.716 81.089,1.337C81.342,1.896 79.975,3.428 78.61,3.9C75.473,4.985 72.153,3.866 69.074,3.948" style="fill:rgb(255,111,0);"/>
    <g transform="matrix(1,0,0,0.526943,0,0.354924)">
        <path d="M60.196,4.524C61.843,2.996 64.57,0.307 67.765,0.756C70.549,1.148 73.312,1.847 76.037,2.607C77.071,2.895 80.728,2.243 81.089,1.863C81.342,2.422 77.112,3.824 75.678,3.655C70.834,3.083 66.735,-0.367 60.196,4.524Z" style="fill:rgb(255,179,0);"/>
    </g>
    <g transform="matrix(1,0,0,1,-0.178317,-0.178317)">
        <path d="M68.283,4.151C69.574,4.031 70.816,4.091 72.087,4.367C73.613,4.697 75.066,5.207 76.633,5.346C78.91,5.549 81.704,4.932 83.524,3.498C84.093,3.05 84.943,1.907 84.943,1.907C85.2,2.464 85.097,3.216 84.812,3.842C84.288,4.99 83.095,5.714 81.955,6.109C79.767,6.868 77.686,7.351 75.471,7.588C73.874,7.76 72.585,8.691 71.215,9.44" style="fill:rgb(255,111,0);"/>
    </g>
    <defs>
        <radialGradient id="_Radial4" cx="0" cy="0" r="1" gradientUnits="userSpaceOnUse" gradientTransform="matrix(-20.0312,14.089,-9.64207,-13.7087,83.7291,52.4682)"><stop offset="0" style="stop-color:rgb(216,76,21);stop-opacity:1"/><stop offset="1" style="stop-color:rgb(216,76,21);stop-opacity:0"/></radialGradient>
        <radialGradient id="_Radial5" cx="0" cy="0" r="1" gradientUnits="userSpaceOnUse" gradientTransform="matrix(-20.0312,14.089,-9.64207,-13.7087,83.7291,52.4682)"><stop offset="0" style="stop-color:rgb(216,76,21);stop-opacity:1"/><stop offset="1" style="stop-color:rgb(216,76,21);stop-opacity:0"/></radialGradient>
    </defs>
</svg>
