<?xml version="1.0" encoding="UTF-8" standalone="no"?><!DOCTYPE svg PUBLIC "-//W3C//DTD SVG 1.1//EN" "http://www.w3.org/Graphics/SVG/1.1/DTD/svg11.dtd"><svg width="100%" height="100%" viewBox="0 0 534 534" version="1.1" xmlns="http://www.w3.org/2000/svg" xmlns:xlink="http://www.w3.org/1999/xlink" xml:space="preserve" xmlns:serif="http://www.serif.com/" style="fill-rule:evenodd;clip-rule:evenodd;stroke-linecap:round;stroke-linejoin:round;stroke-miterlimit:1.5;"><g><g><path d="M404.449,314.553l2.104,-52.168l-108.428,-16.602l-9.299,65.164l115.623,3.606Z" style="fill:#f4d598;fill-rule:nonzero;"/></g><g><path d="M268.395,283.251c-2.034,13.291 7.105,25.733 20.396,27.768c13.291,2.034 25.733,-7.105 27.767,-20.396c2.034,-13.291 -7.105,-25.733 -20.396,-27.767c-13.291,-2.035 -25.733,7.104 -27.767,20.395Z" style="fill:#f4d598;"/></g><g><path d="M268.395,283.252l6.284,-41.056l48.167,7.372l-6.284,41.056l-48.167,-7.372Z" style="fill:#f4d598;"/></g></g><g><path d="M285.637,261.47l50.704,0c9.635,0 17.564,-7.929 17.564,-17.564l-9.184,-91.419c-1.837,-14.847 -6.467,-39.644 -26.71,-39.644l-17.526,-0c-17.45,-0 -24.72,20.626 -25.486,38.802l-6.888,92.299c-0.038,9.643 7.807,17.526 17.526,17.526Z" style="fill:#651fff;fill-rule:nonzero;"/></g><g><g><g><path d="M185.303,166.74c-0,-3.635 2.952,-6.588 6.588,-6.588l34.147,0c3.63,0 6.582,2.953 6.582,6.588c0,3.636 -2.952,6.583 -6.582,6.583l-34.147,-0c-3.636,-0 -6.588,-2.947 -6.588,-6.583Z" style="fill:#454545;"/></g><g><path d="M221.703,404.26c1.151,5.531 10.504,6.01 10.967,-0.749l-0,-53.526c-0,-3.239 2.627,-5.866 5.866,-5.866l144.802,-0c1.559,-0 3.051,0.616 4.148,1.718c1.101,1.102 1.718,2.589 1.718,4.148l0,116.873c0.76,11.149 10.654,5.322 11.017,0l0,-134.968c-0.281,-4.275 -2.435,-5.305 -5.508,-5.509l-156.182,0c-3.239,0 -5.861,-2.622 -5.861,-5.861c-0.011,-29.04 -0.05,-156.104 -0.05,-156.104c-1.129,-5.421 -14.713,-6.192 -15.187,0.749l0,238.346c-0.005,-0.022 4.253,0.501 4.27,0.749Z" style="fill:#e27338;fill-rule:nonzero;"/></g><g><g><path d="M394.712,442.07c-13.68,0 -24.788,11.108 -24.788,24.788c0,13.68 11.108,24.789 24.788,24.789c13.68,-0 24.789,-11.109 24.789,-24.789c-0,-13.68 -11.109,-24.788 -24.789,-24.788Zm0,3.04c-12.003,-0 -21.748,9.745 -21.748,21.748c-0,12.004 9.745,21.749 21.748,21.749c12.004,-0 21.749,-9.745 21.749,-21.749c-0,-12.003 -9.745,-21.748 -21.749,-21.748Z" style="fill:#414141;"/></g><g><path d="M394.712,445.111l0,43.494" style="fill:none;stroke:#4c4c4c;stroke-width:3.13px;"/></g><g><path d="M383.839,448.025l21.747,37.667" style="fill:none;stroke:#4c4c4c;stroke-width:3.13px;"/></g><g><path d="M375.879,455.985l37.667,21.746" style="fill:none;stroke:#4c4c4c;stroke-width:3.13px;"/></g><g><path d="M372.965,466.858l43.494,0" style="fill:none;stroke:#4c4c4c;stroke-width:3.13px;"/></g><g><path d="M375.879,477.731l37.667,-21.746" style="fill:none;stroke:#4c4c4c;stroke-width:3.13px;"/></g><g><path d="M383.839,485.692l21.747,-37.666" style="fill:none;stroke:#4c4c4c;stroke-width:3.13px;"/></g></g><g><path d="M232.664,304.634l145.644,-0c6.153,-0 11.139,4.985 11.139,11.138l-0,6.968c-0,2.011 -1.631,3.641 -3.642,3.641l-149.389,0c-0.992,0 -1.95,-0.396 -2.655,-1.101c-0.7,-0.706 -1.097,-1.658 -1.097,-2.656l0,-17.99Z" style="fill:#4d8fd9;"/></g><g><path d="M232.62,176.777c0,-1.906 1.548,-3.454 3.454,-3.454l10.775,-0c3.151,-0 5.701,2.556 5.701,5.707l-0,125.604l-19.93,-0l0,-127.857Z" style="fill:#4d8fd9;"/></g><g><path d="M232.251,256.457c-1.669,0.305 -2.864,1.094 -3.002,3.39l-0,66.532c0.225,3.572 6.502,5.272 6.831,-0l0,-63.116l130.686,0c0.899,0 1.756,0.359 2.392,0.992c0.633,0.634 0.988,1.492 0.988,2.388l0,59.736c0.435,6.883 6.611,3.569 6.836,-0l-0,-66.532c-0.113,-1.838 -1.539,-3.303 -3.418,-3.417l-140.901,0c-0.135,0.009 -0.273,0.018 -0.412,0.027Z" style="fill:#e27338;fill-rule:nonzero;"/></g><g><path d="M255.652,259.849c0,-4.496 3.648,-8.145 8.143,-8.145l93.457,0c4.494,0 8.146,3.649 8.146,8.145c0,4.495 -3.652,8.144 -8.146,8.144l-93.457,0c-4.495,0 -8.143,-3.649 -8.143,-8.144Z" style="fill:#205999;"/></g><g><g><path d="M227.162,295.297c-59.72,-0 -108.212,48.492 -108.212,108.212c-0,59.719 48.492,108.212 108.212,108.212c59.72,-0 108.212,-48.493 108.212,-108.212c0,-59.72 -48.492,-108.212 -108.212,-108.212Zm0,19.911c-48.736,-0 -88.301,39.565 -88.301,88.301c-0,48.736 39.565,88.301 88.301,88.301c48.736,-0 88.301,-39.565 88.301,-88.301c0,-48.736 -39.565,-88.301 -88.301,-88.301Z" style="fill:#414141;"/></g><path d="M227.162,308.573l0,189.872" style="fill:none;stroke:#4c4c4c;stroke-width:3.11px;"/><g><path d="M179.694,321.292l94.936,164.433" style="fill:none;stroke:#4c4c4c;stroke-width:3.11px;"/></g><g><path d="M144.947,356.041l164.434,94.936" style="fill:none;stroke:#4c4c4c;stroke-width:3.11px;"/></g><g><path d="M132.226,403.509l189.872,-0" style="fill:none;stroke:#4c4c4c;stroke-width:3.11px;"/></g><g><path d="M144.947,450.977l164.434,-94.936" style="fill:none;stroke:#4c4c4c;stroke-width:3.11px;"/></g><g><path d="M179.691,485.724l94.936,-164.434" style="fill:none;stroke:#4c4c4c;stroke-width:3.11px;"/></g></g></g><g><path d="M395.335,330.394l44.614,106.831l22.187,-7.942" style="fill:none;stroke:#e27338;stroke-width:9.53px;"/></g></g><g><g><g><path d="M384.12,276.743c-4.832,11.798 0.824,25.299 12.622,30.13c11.798,4.832 25.299,-0.824 30.131,-12.622c4.831,-11.798 -0.824,-25.299 -12.622,-30.131c-11.799,-4.831 -25.3,0.825 -30.131,12.623Z" style="fill:#f4d598;"/></g><g><path d="M432.647,395.046l36.613,-15.884l-43.445,-105.201l-41.179,21.45l48.011,99.635Z" style="fill:#f4d598;fill-rule:nonzero;"/></g></g><g><path d="M454.341,413.277l31.712,-13.773c5.702,-2.468 8.792,-8.787 7.232,-14.801c-0.166,-0.639 -0.383,-1.265 -0.646,-1.868c-2.798,-6.426 -10.243,-9.385 -16.669,-6.586l-31.712,13.773c-6.427,2.798 -9.385,10.243 -6.587,16.669c2.767,6.376 10.289,9.347 16.67,6.586Z" style="fill:#4568ad;fill-rule:nonzero;"/><path d="M492.164,381.663l-54.982,23.874l6.824,15.712l54.982,-23.874l-6.824,-15.712Z" style="fill:#4568ad;fill-rule:nonzero;"/><path d="M451.632,386.799l-18.985,8.246l5.544,12.763l18.985,-8.246l-5.544,-12.763Z" style="fill:#4568ad;fill-rule:nonzero;"/></g></g><g><path d="M293.712,81.694l-0.498,39.108l29.772,3.98l11.594,-76.839l-40.868,33.751Z" style="fill:#fadcbc;fill-rule:nonzero;"/></g><g><g><path d="M290.107,42.468l3.308,65.17l42.514,-1.848c19.776,-0.854 34.816,-18.071 32.997,-37.759l-2.218,-23.898c-2.037,-22.082 -22.673,-37.59 -44.445,-33.383l-8.631,1.665c-14.193,2.775 -24.248,15.58 -23.525,30.053Z" style="fill:#fadcbc;fill-rule:nonzero;"/><path d="M290.836,86.746l19.686,-4.543l0.357,-14.014c0.096,-4.712 2.808,-8.973 7.022,-11.098l5.512,15.112c4.561,-1.065 8.259,-4.434 9.744,-8.876l2.953,-8.848c1.278,-3.832 4.332,-6.823 8.19,-8.025l21.829,-6.696c0,0 -1.741,-30.769 -32.317,-32.926c-5.268,-0.365 -10.478,-0.458 -15.476,-0.305c-23.137,0.659 -40.285,21.718 -36.341,44.508c2.035,12.147 5.007,24.053 8.841,35.711Z" style="fill:#212121;fill-rule:nonzero;"/><path d="M281.448,43.978c0,-0 -21.075,3.564 -19.912,37.707c0.913,27.221 -21.716,50.432 -21.716,50.432c0,-0 31.728,-8.388 47.686,-35.514c15.957,-27.126 -6.058,-52.625 -6.058,-52.625Z" style="fill:#212121;fill-rule:nonzero;"/></g><path d="M351.801,59.978c0.222,2.892 2.293,5.107 4.684,4.927c2.39,-0.179 4.171,-2.626 3.949,-5.518c-0.221,-2.892 -2.292,-5.107 -4.683,-4.928c-2.388,0.142 -4.133,2.629 -3.95,5.519" style="fill:#444;fill-rule:nonzero;"/></g><g><path d="M242.728,198.852l21.644,18.321l37.054,-43.781l-21.646,-18.318l-37.052,43.778Z" style="fill:#fadcbc;fill-rule:nonzero;"/></g><g><path d="M267.996,207.566c-0.268,-7.915 -6.911,-14.124 -14.827,-13.856c-7.915,0.267 -14.124,6.911 -13.856,14.827c0.267,7.915 6.911,14.124 14.827,13.856c7.915,-0.268 14.124,-6.911 13.856,-14.827Z" style="fill:#fadcbc;"/></g><g><path d="M294.228,192.728l-33.412,-29.316l29.992,-34.167c7.105,-7.798 18.833,-9.515 27.876,-4.082c10.454,6.281 13.887,20.049 7.606,30.503c-0.611,1.017 -1.301,1.986 -2.07,2.895l-29.992,34.167Z" style="fill:#3615af;fill-rule:nonzero;"/></g><g><path d="M233.055,255.432l28.118,3.666l6.284,-48.152l-28.118,-3.667l-6.284,48.153Z" style="fill:#fadcbc;fill-rule:nonzero;"/></g><g><path d="M243.277,289.568c-2.54,-0.32 -4.985,-1.169 -7.177,-2.485c-6.255,-3.759 -9.713,-10.894 -8.785,-18.131l1.174,-9.161c0.321,-2.539 1.169,-4.985 2.486,-7.176c3.758,-6.255 10.894,-9.713 18.13,-8.785c2.54,0.32 4.985,1.169 7.177,2.486c6.255,3.758 9.713,10.894 8.785,18.13l-1.174,9.161c-0.322,2.534 -1.169,4.977 -2.485,7.168c-3.758,6.255 -10.891,9.715 -18.131,8.793Z" style="fill:#fadcbc;fill-rule:nonzero;"/></g></svg>