<?xml version="1.0" encoding="UTF-8" standalone="no"?><!DOCTYPE svg PUBLIC "-//W3C//DTD SVG 1.1//EN" "http://www.w3.org/Graphics/SVG/1.1/DTD/svg11.dtd"><svg width="100%" height="100%" viewBox="0 0 534 534" version="1.1" xmlns="http://www.w3.org/2000/svg" xmlns:xlink="http://www.w3.org/1999/xlink" xml:space="preserve" xmlns:serif="http://www.serif.com/" style="fill-rule:evenodd;clip-rule:evenodd;stroke-linejoin:round;stroke-miterlimit:2;"><path d="M247.106,388.431c-10.538,-10.175 -27.354,-9.88 -37.529,0.658c-10.175,10.538 -9.88,27.355 0.658,37.53c10.538,10.175 27.355,9.88 37.53,-0.658c10.175,-10.539 9.88,-27.355 -0.659,-37.53Z" style="fill:#e5b35a;"/><path d="M202.854,401.417l50.459,16.041l45.208,-101.583l-62.5,-22.542l-33.167,108.084Z" style="fill:#e5b35a;fill-rule:nonzero;"/><path d="M123.854,417.583l13.292,44.5l99.458,-29.208l-15.583,-49.25l-97.167,33.958Z" style="fill:#e5b35a;fill-rule:nonzero;"/><g><path d="M100.063,439.625l11.666,38.75c1.786,5.985 7.329,10.116 13.575,10.116c1.401,0 2.794,-0.207 4.134,-0.616l0.666,-0.208c5.986,-1.786 10.116,-7.33 10.116,-13.576c0,-1.4 -0.207,-2.793 -0.616,-4.133l-11.666,-38.75c-1.786,-5.985 -7.33,-10.116 -13.576,-10.116c-1.4,0 -2.793,0.208 -4.133,0.616l-0.666,0.209c-7.542,2.25 -11.792,10.166 -9.5,17.708Z" style="fill:#4568ad;fill-rule:nonzero;"/><path d="M131.158,487.35l-19.883,-65.988l-18.871,5.684l19.884,65.987l18.87,-5.683Z" style="fill:#4568ad;fill-rule:nonzero;"/><path d="M130.721,440.333l-6.875,-22.82l-15.321,4.616l6.875,22.821l15.321,-4.617Z" style="fill:#4568ad;fill-rule:nonzero;"/></g><g><path d="M391.604,523.125l35.209,-20c4.438,-2.522 7.189,-7.249 7.189,-12.354c-0,-2.461 -0.64,-4.881 -1.856,-7.021l-0.333,-0.625c-2.522,-4.438 -7.249,-7.189 -12.354,-7.189c-2.462,-0 -4.882,0.639 -7.021,1.856l-35.209,20c-4.438,2.521 -7.189,7.249 -7.189,12.353c-0,2.462 0.639,4.882 1.856,7.022l0.333,0.625c3.857,6.77 12.596,9.176 19.375,5.333Z" style="fill:#4568ad;fill-rule:nonzero;"/><path d="M431.208,482.108l-59.908,34.059l9.742,17.133l59.908,-34.058l-9.742,-17.134Z" style="fill:#4568ad;fill-rule:nonzero;"/><path d="M385.483,492.979l-20.716,11.779l7.908,13.909l20.717,-11.78l-7.909,-13.908Z" style="fill:#4568ad;fill-rule:nonzero;"/></g><g><path d="M356.289,395.547c-3.81,-14.144 -18.387,-22.534 -32.531,-18.724c-14.145,3.81 -22.535,18.387 -18.725,32.531c3.81,14.145 18.387,22.535 32.532,18.725c14.144,-3.81 22.535,-18.387 18.724,-32.532Z" style="fill:#f4d598;"/><path d="M312.188,421.458l39.666,-35.041l-63.875,-90.959l-51.5,42.042l75.709,83.958Z" style="fill:#f4d598;fill-rule:nonzero;"/><path d="M365.063,505.292l40.416,-22.875l-51.375,-92.5l-44.541,26.166l55.5,89.209Z" style="fill:#f4d598;fill-rule:nonzero;"/><circle cx="262.188" cy="316.5" r="33.208" style="fill:#f4d598;"/></g><path d="M338.05,282.067l24.158,-17.929l-36.275,-48.888l-24.158,17.925l36.275,48.892Z" style="fill:#9b643c;fill-rule:nonzero;"/><path d="M353.196,258.069c-8.255,-1.641 -16.29,3.728 -17.932,11.983c-1.641,8.255 3.728,16.29 11.984,17.931c8.255,1.642 16.289,-3.728 17.931,-11.983c1.641,-8.255 -3.728,-16.29 -11.983,-17.931Z" style="fill:#9b643c;"/><path d="M344.146,227.375l-38.417,27.458l-28.416,-39.75c-7.329,-10.28 -4.924,-24.764 5.333,-32.125l0.958,-0.666c10.28,-7.329 24.765,-4.924 32.125,5.333l28.417,39.75Z" style="fill:#3615af;fill-rule:nonzero;"/><path d="M399.158,293.342l3.067,-29.925l-51.275,-5.25l-3.067,29.925l51.275,5.25Z" style="fill:#9b643c;fill-rule:nonzero;"/><path d="M435.146,281.042l-0.083,0.958c-0.955,9.72 -9.226,17.218 -18.992,17.218c-0.629,0 -1.258,-0.031 -1.883,-0.093l-10.75,-1.083c-9.721,-0.955 -17.219,-9.225 -17.219,-18.992c0,-0.629 0.031,-1.258 0.094,-1.883l0.083,-0.959c0.954,-9.72 9.225,-17.218 18.992,-17.218c0.629,0 1.257,0.031 1.883,0.093l10.75,1.084c9.718,0.941 17.22,9.206 17.22,18.969c0,0.637 -0.032,1.272 -0.095,1.906Z" style="fill:#9b643c;fill-rule:nonzero;"/><g><path d="M292.604,128.833l-10.791,42.334l31.291,12.083l32.667,-80.333l-53.167,25.916Z" style="fill:#9b643c;fill-rule:nonzero;"/><path d="M295.021,85.917l-8.459,72.333l47.167,5.875c21.917,2.75 41.667,-13.417 43.334,-35.458l1.999,-26.709c1.875,-24.666 -18,-45.583 -42.708,-45l-9.833,0.25c-16.209,0.417 -29.625,12.625 -31.5,28.709Z" style="fill:#9b643c;fill-rule:nonzero;"/><path d="M287.563,134.792l22.5,-1.334l2.958,-15.333c0.99,-5.164 4.766,-9.373 9.792,-10.917l3.25,17.667c5.208,-0.333 9.916,-3.333 12.375,-7.958l4.875,-9.209c2.112,-3.983 6.03,-6.704 10.5,-7.291l25.25,-3.292c-0,0 3.791,-34.167 -29.459,-42.25c-5.75,-1.375 -11.458,-2.417 -16.958,-3.208c-25.583,-3.584 -48.375,16.416 -48.292,42.25c0.111,13.683 1.183,27.342 3.209,40.875Z" style="fill:#47352d;fill-rule:nonzero;"/><path d="M359.646,116.625c-0.333,3.208 1.583,6.042 4.25,6.292c2.667,0.25 5.083,-2.125 5.375,-5.334c0.333,-3.208 -1.583,-6.041 -4.25,-6.291c-2.667,-0.292 -5.042,2.125 -5.375,5.333" style="fill:#c07b47;fill-rule:nonzero;"/></g><path d="M241.521,312.958l51.833,12.292c9.917,2.333 19.834,-3.792 22.209,-13.667l12.75,-95.708c1.708,-15.625 3,-42.125 -17.709,-47l-17.916,-4.25c-17.834,-4.208 -30.25,15.083 -35.459,33.458l-29.416,92.667c-2.33,9.851 3.857,19.875 13.708,22.208Z" style="fill:#651fff;fill-rule:nonzero;"/><g><path d="M201.258,233.017l15.013,26.075l52.762,-30.375l-15.008,-26.071l-52.767,30.371Z" style="fill:#9b643c;fill-rule:nonzero;"/><path d="M213.495,231.625c-8.01,-2.584 -16.611,1.821 -19.195,9.831c-2.585,8.01 1.821,16.612 9.831,19.196c8.01,2.584 16.611,-1.821 19.195,-9.832c2.585,-8.01 -1.821,-16.611 -9.831,-19.195Z" style="fill:#9b643c;"/><path d="M254.896,245.417l-22.792,-41.334l42.75,-23.625c11.066,-6.082 25.176,-2.006 31.292,9.042l0.541,1c6.083,11.066 2.006,25.175 -9.041,31.292l-42.75,23.625Z" style="fill:#3615af;fill-rule:nonzero;"/><path d="M171.258,286.021l26.746,13.779l23.604,-45.821l-26.745,-13.779l-23.605,45.821Z" style="fill:#9b643c;fill-rule:nonzero;"/><path d="M169.604,324l-0.833,-0.417c-6.373,-3.255 -10.4,-9.834 -10.4,-16.99c0,-3.032 0.723,-6.021 2.108,-8.718l4.917,-9.583c3.255,-6.373 9.834,-10.4 16.99,-10.4c3.032,-0 6.021,0.723 8.718,2.108l0.834,0.417c6.373,3.255 10.399,9.834 10.399,16.99c0,3.032 -0.722,6.021 -2.108,8.718l-4.916,9.583c-4.792,9.31 -16.381,13.048 -25.709,8.292Z" style="fill:#9b643c;fill-rule:nonzero;"/></g><path d="M285.729,83.292c0,-0 -21.875,-7.917 -39.083,25.083c-13.708,26.292 -47.583,36.167 -47.583,36.167c-0,-0 34.583,9.041 64.25,-8.125c29.625,-17.167 22.416,-53.125 22.416,-53.125Z" style="fill:#47352d;fill-rule:nonzero;"/></svg>